%FSLAX45Y45*%
G04 Gerber Fmt 4.5, Leading zero omitted, Abs format (unit mm)*
G04 Created by KiCad (PCBNEW 6.0.2+dfsg-1) date 2023-04-26 20:29:48*
%MOMM*%
%LPD*%
G01*
G04 APERTURE LIST*
%TA.AperFunction,Profile*%
%ADD10C,0.100000*%
%TD*%
%ADD11C,0.200000*%
G04 APERTURE END LIST*
D10*
X10350500Y-7239000D02*
X10350500Y-11620500D01*
X7239000Y-7239000D02*
X10350500Y-7239000D01*
X10350500Y-11620500D02*
X7239000Y-11620500D01*
X7239000Y-11620500D02*
X7239000Y-7239000D01*
D11*
X7491619Y-11935976D02*
X7491619Y-11735976D01*
X7539238Y-11735976D01*
X7567809Y-11745500D01*
X7586857Y-11764548D01*
X7596381Y-11783595D01*
X7605905Y-11821690D01*
X7605905Y-11850262D01*
X7596381Y-11888357D01*
X7586857Y-11907405D01*
X7567809Y-11926452D01*
X7539238Y-11935976D01*
X7491619Y-11935976D01*
X7691619Y-11935976D02*
X7691619Y-11802643D01*
X7691619Y-11840738D02*
X7701143Y-11821690D01*
X7710667Y-11812167D01*
X7729714Y-11802643D01*
X7748762Y-11802643D01*
X7815428Y-11935976D02*
X7815428Y-11802643D01*
X7815428Y-11735976D02*
X7805905Y-11745500D01*
X7815428Y-11755024D01*
X7824952Y-11745500D01*
X7815428Y-11735976D01*
X7815428Y-11755024D01*
X7939238Y-11935976D02*
X7920190Y-11926452D01*
X7910667Y-11907405D01*
X7910667Y-11735976D01*
X8044000Y-11935976D02*
X8024952Y-11926452D01*
X8015428Y-11907405D01*
X8015428Y-11735976D01*
X8272571Y-11935976D02*
X8272571Y-11735976D01*
X8339238Y-11878833D01*
X8405905Y-11735976D01*
X8405905Y-11935976D01*
X8586857Y-11935976D02*
X8586857Y-11831214D01*
X8577333Y-11812167D01*
X8558286Y-11802643D01*
X8520190Y-11802643D01*
X8501143Y-11812167D01*
X8586857Y-11926452D02*
X8567810Y-11935976D01*
X8520190Y-11935976D01*
X8501143Y-11926452D01*
X8491619Y-11907405D01*
X8491619Y-11888357D01*
X8501143Y-11869309D01*
X8520190Y-11859786D01*
X8567810Y-11859786D01*
X8586857Y-11850262D01*
X8682095Y-11802643D02*
X8682095Y-12002643D01*
X8682095Y-11812167D02*
X8701143Y-11802643D01*
X8739238Y-11802643D01*
X8758286Y-11812167D01*
X8767810Y-11821690D01*
X8777333Y-11840738D01*
X8777333Y-11897881D01*
X8767810Y-11916928D01*
X8758286Y-11926452D01*
X8739238Y-11935976D01*
X8701143Y-11935976D01*
X8682095Y-11926452D01*
X8863048Y-11916928D02*
X8872571Y-11926452D01*
X8863048Y-11935976D01*
X8853524Y-11926452D01*
X8863048Y-11916928D01*
X8863048Y-11935976D01*
X8863048Y-11812167D02*
X8872571Y-11821690D01*
X8863048Y-11831214D01*
X8853524Y-11821690D01*
X8863048Y-11812167D01*
X8863048Y-11831214D01*
M02*
