G04 #@! TF.GenerationSoftware,KiCad,Pcbnew,6.0.2+dfsg-1*
G04 #@! TF.CreationDate,2023-04-26T20:37:37-05:00*
G04 #@! TF.ProjectId,dac-attack,6461632d-6174-4746-9163-6b2e6b696361,2023a*
G04 #@! TF.SameCoordinates,Original*
G04 #@! TF.FileFunction,Legend,Top*
G04 #@! TF.FilePolarity,Positive*
%FSLAX46Y46*%
G04 Gerber Fmt 4.6, Leading zero omitted, Abs format (unit mm)*
G04 Created by KiCad (PCBNEW 6.0.2+dfsg-1) date 2023-04-26 20:37:37*
%MOMM*%
%LPD*%
G01*
G04 APERTURE LIST*
G04 Aperture macros list*
%AMRoundRect*
0 Rectangle with rounded corners*
0 $1 Rounding radius*
0 $2 $3 $4 $5 $6 $7 $8 $9 X,Y pos of 4 corners*
0 Add a 4 corners polygon primitive as box body*
4,1,4,$2,$3,$4,$5,$6,$7,$8,$9,$2,$3,0*
0 Add four circle primitives for the rounded corners*
1,1,$1+$1,$2,$3*
1,1,$1+$1,$4,$5*
1,1,$1+$1,$6,$7*
1,1,$1+$1,$8,$9*
0 Add four rect primitives between the rounded corners*
20,1,$1+$1,$2,$3,$4,$5,0*
20,1,$1+$1,$4,$5,$6,$7,0*
20,1,$1+$1,$6,$7,$8,$9,0*
20,1,$1+$1,$8,$9,$2,$3,0*%
G04 Aperture macros list end*
%ADD10C,0.150000*%
%ADD11C,0.300000*%
%ADD12C,0.120000*%
%ADD13RoundRect,0.135000X0.185000X-0.135000X0.185000X0.135000X-0.185000X0.135000X-0.185000X-0.135000X0*%
%ADD14RoundRect,0.140000X0.140000X0.170000X-0.140000X0.170000X-0.140000X-0.170000X0.140000X-0.170000X0*%
%ADD15RoundRect,0.200000X0.200000X0.275000X-0.200000X0.275000X-0.200000X-0.275000X0.200000X-0.275000X0*%
%ADD16RoundRect,0.135000X-0.135000X-0.185000X0.135000X-0.185000X0.135000X0.185000X-0.135000X0.185000X0*%
%ADD17RoundRect,0.225000X0.225000X0.250000X-0.225000X0.250000X-0.225000X-0.250000X0.225000X-0.250000X0*%
%ADD18RoundRect,0.225000X-0.225000X-0.250000X0.225000X-0.250000X0.225000X0.250000X-0.225000X0.250000X0*%
%ADD19RoundRect,0.140000X-0.140000X-0.170000X0.140000X-0.170000X0.140000X0.170000X-0.140000X0.170000X0*%
%ADD20RoundRect,0.225000X-0.250000X0.225000X-0.250000X-0.225000X0.250000X-0.225000X0.250000X0.225000X0*%
%ADD21RoundRect,0.150000X-0.150000X-0.625000X0.150000X-0.625000X0.150000X0.625000X-0.150000X0.625000X0*%
%ADD22RoundRect,0.250000X-0.350000X-0.650000X0.350000X-0.650000X0.350000X0.650000X-0.350000X0.650000X0*%
%ADD23RoundRect,0.100000X-0.100000X0.637500X-0.100000X-0.637500X0.100000X-0.637500X0.100000X0.637500X0*%
%ADD24RoundRect,0.225000X0.250000X-0.225000X0.250000X0.225000X-0.250000X0.225000X-0.250000X-0.225000X0*%
%ADD25RoundRect,0.140000X0.170000X-0.140000X0.170000X0.140000X-0.170000X0.140000X-0.170000X-0.140000X0*%
%ADD26RoundRect,0.150000X-0.587500X-0.150000X0.587500X-0.150000X0.587500X0.150000X-0.587500X0.150000X0*%
%ADD27R,1.700000X1.700000*%
%ADD28O,1.700000X1.700000*%
%ADD29RoundRect,0.135000X-0.185000X0.135000X-0.185000X-0.135000X0.185000X-0.135000X0.185000X0.135000X0*%
%ADD30RoundRect,0.200000X0.275000X-0.200000X0.275000X0.200000X-0.275000X0.200000X-0.275000X-0.200000X0*%
%ADD31RoundRect,0.218750X0.218750X0.381250X-0.218750X0.381250X-0.218750X-0.381250X0.218750X-0.381250X0*%
%ADD32RoundRect,0.150000X0.150000X-0.512500X0.150000X0.512500X-0.150000X0.512500X-0.150000X-0.512500X0*%
%ADD33RoundRect,0.250000X-0.475000X0.250000X-0.475000X-0.250000X0.475000X-0.250000X0.475000X0.250000X0*%
%ADD34RoundRect,0.135000X0.135000X0.185000X-0.135000X0.185000X-0.135000X-0.185000X0.135000X-0.185000X0*%
%ADD35RoundRect,0.100000X0.100000X-0.637500X0.100000X0.637500X-0.100000X0.637500X-0.100000X-0.637500X0*%
%ADD36RoundRect,0.250000X0.475000X-0.250000X0.475000X0.250000X-0.475000X0.250000X-0.475000X-0.250000X0*%
%ADD37C,1.854200*%
G04 APERTURE END LIST*
D10*
X92162380Y-110664047D02*
X92876666Y-110664047D01*
X93019523Y-110711666D01*
X93114761Y-110806904D01*
X93162380Y-110949761D01*
X93162380Y-111045000D01*
X93162380Y-109711666D02*
X93162380Y-110187857D01*
X92162380Y-110187857D01*
X93067142Y-108806904D02*
X93114761Y-108854523D01*
X93162380Y-108997380D01*
X93162380Y-109092619D01*
X93114761Y-109235476D01*
X93019523Y-109330714D01*
X92924285Y-109378333D01*
X92733809Y-109425952D01*
X92590952Y-109425952D01*
X92400476Y-109378333D01*
X92305238Y-109330714D01*
X92210000Y-109235476D01*
X92162380Y-109092619D01*
X92162380Y-108997380D01*
X92210000Y-108854523D01*
X92257619Y-108806904D01*
X92162380Y-108092619D02*
X92876666Y-108092619D01*
X93019523Y-108140238D01*
X93114761Y-108235476D01*
X93162380Y-108378333D01*
X93162380Y-108473571D01*
X93162380Y-107140238D02*
X93162380Y-107616428D01*
X92162380Y-107616428D01*
X93067142Y-106235476D02*
X93114761Y-106283095D01*
X93162380Y-106425952D01*
X93162380Y-106521190D01*
X93114761Y-106664047D01*
X93019523Y-106759285D01*
X92924285Y-106806904D01*
X92733809Y-106854523D01*
X92590952Y-106854523D01*
X92400476Y-106806904D01*
X92305238Y-106759285D01*
X92210000Y-106664047D01*
X92162380Y-106521190D01*
X92162380Y-106425952D01*
X92210000Y-106283095D01*
X92257619Y-106235476D01*
X92162380Y-105521190D02*
X92876666Y-105521190D01*
X93019523Y-105568809D01*
X93114761Y-105664047D01*
X93162380Y-105806904D01*
X93162380Y-105902142D01*
X93162380Y-104568809D02*
X93162380Y-105045000D01*
X92162380Y-105045000D01*
X93067142Y-103664047D02*
X93114761Y-103711666D01*
X93162380Y-103854523D01*
X93162380Y-103949761D01*
X93114761Y-104092619D01*
X93019523Y-104187857D01*
X92924285Y-104235476D01*
X92733809Y-104283095D01*
X92590952Y-104283095D01*
X92400476Y-104235476D01*
X92305238Y-104187857D01*
X92210000Y-104092619D01*
X92162380Y-103949761D01*
X92162380Y-103854523D01*
X92210000Y-103711666D01*
X92257619Y-103664047D01*
X92162380Y-102949761D02*
X92876666Y-102949761D01*
X93019523Y-102997380D01*
X93114761Y-103092619D01*
X93162380Y-103235476D01*
X93162380Y-103330714D01*
X93162380Y-101997380D02*
X93162380Y-102473571D01*
X92162380Y-102473571D01*
X93067142Y-101092619D02*
X93114761Y-101140238D01*
X93162380Y-101283095D01*
X93162380Y-101378333D01*
X93114761Y-101521190D01*
X93019523Y-101616428D01*
X92924285Y-101664047D01*
X92733809Y-101711666D01*
X92590952Y-101711666D01*
X92400476Y-101664047D01*
X92305238Y-101616428D01*
X92210000Y-101521190D01*
X92162380Y-101378333D01*
X92162380Y-101283095D01*
X92210000Y-101140238D01*
X92257619Y-101092619D01*
D11*
X87799642Y-92920000D02*
X87799642Y-94062857D01*
X88085357Y-93777142D02*
X87799642Y-94062857D01*
X87513928Y-93777142D01*
X88371071Y-92205714D02*
X86871071Y-92205714D01*
X87942500Y-91705714D01*
X86871071Y-91205714D01*
X88371071Y-91205714D01*
X87585357Y-90491428D02*
X87585357Y-89991428D01*
X88371071Y-89777142D02*
X88371071Y-90491428D01*
X86871071Y-90491428D01*
X86871071Y-89777142D01*
X88371071Y-89134285D02*
X86871071Y-89134285D01*
X87942500Y-88634285D01*
X86871071Y-88134285D01*
X88371071Y-88134285D01*
X86871071Y-87134285D02*
X86871071Y-86848571D01*
X86942500Y-86705714D01*
X87085357Y-86562857D01*
X87371071Y-86491428D01*
X87871071Y-86491428D01*
X88156785Y-86562857D01*
X88299642Y-86705714D01*
X88371071Y-86848571D01*
X88371071Y-87134285D01*
X88299642Y-87277142D01*
X88156785Y-87420000D01*
X87871071Y-87491428D01*
X87371071Y-87491428D01*
X87085357Y-87420000D01*
X86942500Y-87277142D01*
X86871071Y-87134285D01*
X88371071Y-84991428D02*
X87656785Y-85491428D01*
X88371071Y-85848571D02*
X86871071Y-85848571D01*
X86871071Y-85277142D01*
X86942500Y-85134285D01*
X87013928Y-85062857D01*
X87156785Y-84991428D01*
X87371071Y-84991428D01*
X87513928Y-85062857D01*
X87585357Y-85134285D01*
X87656785Y-85277142D01*
X87656785Y-85848571D01*
X87656785Y-84062857D02*
X88371071Y-84062857D01*
X86871071Y-84562857D02*
X87656785Y-84062857D01*
X86871071Y-83562857D01*
X90214642Y-92920000D02*
X90214642Y-94062857D01*
X90500357Y-93777142D02*
X90214642Y-94062857D01*
X89928928Y-93777142D01*
X90643214Y-91348571D02*
X90714642Y-91420000D01*
X90786071Y-91634285D01*
X90786071Y-91777142D01*
X90714642Y-91991428D01*
X90571785Y-92134285D01*
X90428928Y-92205714D01*
X90143214Y-92277142D01*
X89928928Y-92277142D01*
X89643214Y-92205714D01*
X89500357Y-92134285D01*
X89357500Y-91991428D01*
X89286071Y-91777142D01*
X89286071Y-91634285D01*
X89357500Y-91420000D01*
X89428928Y-91348571D01*
X90357500Y-90777142D02*
X90357500Y-90062857D01*
X90786071Y-90920000D02*
X89286071Y-90420000D01*
X90786071Y-89920000D01*
X90786071Y-88562857D02*
X90071785Y-89062857D01*
X90786071Y-89420000D02*
X89286071Y-89420000D01*
X89286071Y-88848571D01*
X89357500Y-88705714D01*
X89428928Y-88634285D01*
X89571785Y-88562857D01*
X89786071Y-88562857D01*
X89928928Y-88634285D01*
X90000357Y-88705714D01*
X90071785Y-88848571D01*
X90071785Y-89420000D01*
X90786071Y-87920000D02*
X89286071Y-87920000D01*
X89286071Y-87562857D01*
X89357500Y-87348571D01*
X89500357Y-87205714D01*
X89643214Y-87134285D01*
X89928928Y-87062857D01*
X90143214Y-87062857D01*
X90428928Y-87134285D01*
X90571785Y-87205714D01*
X90714642Y-87348571D01*
X90786071Y-87562857D01*
X90786071Y-87920000D01*
X93484285Y-75608571D02*
X92984285Y-74894285D01*
X92627142Y-75608571D02*
X92627142Y-74108571D01*
X93198571Y-74108571D01*
X93341428Y-74180000D01*
X93412857Y-74251428D01*
X93484285Y-74394285D01*
X93484285Y-74608571D01*
X93412857Y-74751428D01*
X93341428Y-74822857D01*
X93198571Y-74894285D01*
X92627142Y-74894285D01*
X94127142Y-75608571D02*
X94127142Y-74108571D01*
X95627142Y-74180000D02*
X95484285Y-74108571D01*
X95270000Y-74108571D01*
X95055714Y-74180000D01*
X94912857Y-74322857D01*
X94841428Y-74465714D01*
X94770000Y-74751428D01*
X94770000Y-74965714D01*
X94841428Y-75251428D01*
X94912857Y-75394285D01*
X95055714Y-75537142D01*
X95270000Y-75608571D01*
X95412857Y-75608571D01*
X95627142Y-75537142D01*
X95698571Y-75465714D01*
X95698571Y-74965714D01*
X95412857Y-74965714D01*
X96341428Y-75608571D02*
X96341428Y-74108571D01*
X96341428Y-74822857D02*
X97198571Y-74822857D01*
X97198571Y-75608571D02*
X97198571Y-74108571D01*
X97698571Y-74108571D02*
X98555714Y-74108571D01*
X98127142Y-75608571D02*
X98127142Y-74108571D01*
X93412857Y-76720000D02*
X93270000Y-76648571D01*
X93055714Y-76648571D01*
X92841428Y-76720000D01*
X92698571Y-76862857D01*
X92627142Y-77005714D01*
X92555714Y-77291428D01*
X92555714Y-77505714D01*
X92627142Y-77791428D01*
X92698571Y-77934285D01*
X92841428Y-78077142D01*
X93055714Y-78148571D01*
X93198571Y-78148571D01*
X93412857Y-78077142D01*
X93484285Y-78005714D01*
X93484285Y-77505714D01*
X93198571Y-77505714D01*
X93341428Y-83228571D02*
X92627142Y-83228571D01*
X92627142Y-81728571D01*
X93841428Y-82442857D02*
X94341428Y-82442857D01*
X94555714Y-83228571D02*
X93841428Y-83228571D01*
X93841428Y-81728571D01*
X94555714Y-81728571D01*
X95698571Y-82442857D02*
X95198571Y-82442857D01*
X95198571Y-83228571D02*
X95198571Y-81728571D01*
X95912857Y-81728571D01*
X96270000Y-81728571D02*
X97127142Y-81728571D01*
X96698571Y-83228571D02*
X96698571Y-81728571D01*
X93412857Y-79260000D02*
X93270000Y-79188571D01*
X93055714Y-79188571D01*
X92841428Y-79260000D01*
X92698571Y-79402857D01*
X92627142Y-79545714D01*
X92555714Y-79831428D01*
X92555714Y-80045714D01*
X92627142Y-80331428D01*
X92698571Y-80474285D01*
X92841428Y-80617142D01*
X93055714Y-80688571D01*
X93198571Y-80688571D01*
X93412857Y-80617142D01*
X93484285Y-80545714D01*
X93484285Y-80045714D01*
X93198571Y-80045714D01*
X93412857Y-98310000D02*
X93270000Y-98238571D01*
X93055714Y-98238571D01*
X92841428Y-98310000D01*
X92698571Y-98452857D01*
X92627142Y-98595714D01*
X92555714Y-98881428D01*
X92555714Y-99095714D01*
X92627142Y-99381428D01*
X92698571Y-99524285D01*
X92841428Y-99667142D01*
X93055714Y-99738571D01*
X93198571Y-99738571D01*
X93412857Y-99667142D01*
X93484285Y-99595714D01*
X93484285Y-99095714D01*
X93198571Y-99095714D01*
X92627142Y-97198571D02*
X92627142Y-95698571D01*
X92984285Y-95698571D01*
X93198571Y-95770000D01*
X93341428Y-95912857D01*
X93412857Y-96055714D01*
X93484285Y-96341428D01*
X93484285Y-96555714D01*
X93412857Y-96841428D01*
X93341428Y-96984285D01*
X93198571Y-97127142D01*
X92984285Y-97198571D01*
X92627142Y-97198571D01*
D10*
X88717380Y-97321666D02*
X88241190Y-97655000D01*
X88717380Y-97893095D02*
X87717380Y-97893095D01*
X87717380Y-97512142D01*
X87765000Y-97416904D01*
X87812619Y-97369285D01*
X87907857Y-97321666D01*
X88050714Y-97321666D01*
X88145952Y-97369285D01*
X88193571Y-97416904D01*
X88241190Y-97512142D01*
X88241190Y-97893095D01*
X87717380Y-96416904D02*
X87717380Y-96893095D01*
X88193571Y-96940714D01*
X88145952Y-96893095D01*
X88098333Y-96797857D01*
X88098333Y-96559761D01*
X88145952Y-96464523D01*
X88193571Y-96416904D01*
X88288809Y-96369285D01*
X88526904Y-96369285D01*
X88622142Y-96416904D01*
X88669761Y-96464523D01*
X88717380Y-96559761D01*
X88717380Y-96797857D01*
X88669761Y-96893095D01*
X88622142Y-96940714D01*
X80002142Y-95607142D02*
X79954523Y-95654761D01*
X79811666Y-95702380D01*
X79716428Y-95702380D01*
X79573571Y-95654761D01*
X79478333Y-95559523D01*
X79430714Y-95464285D01*
X79383095Y-95273809D01*
X79383095Y-95130952D01*
X79430714Y-94940476D01*
X79478333Y-94845238D01*
X79573571Y-94750000D01*
X79716428Y-94702380D01*
X79811666Y-94702380D01*
X79954523Y-94750000D01*
X80002142Y-94797619D01*
X80954523Y-95702380D02*
X80383095Y-95702380D01*
X80668809Y-95702380D02*
X80668809Y-94702380D01*
X80573571Y-94845238D01*
X80478333Y-94940476D01*
X80383095Y-94988095D01*
X81287857Y-94702380D02*
X81954523Y-94702380D01*
X81525952Y-95702380D01*
X97623333Y-109037380D02*
X97290000Y-108561190D01*
X97051904Y-109037380D02*
X97051904Y-108037380D01*
X97432857Y-108037380D01*
X97528095Y-108085000D01*
X97575714Y-108132619D01*
X97623333Y-108227857D01*
X97623333Y-108370714D01*
X97575714Y-108465952D01*
X97528095Y-108513571D01*
X97432857Y-108561190D01*
X97051904Y-108561190D01*
X98099523Y-109037380D02*
X98290000Y-109037380D01*
X98385238Y-108989761D01*
X98432857Y-108942142D01*
X98528095Y-108799285D01*
X98575714Y-108608809D01*
X98575714Y-108227857D01*
X98528095Y-108132619D01*
X98480476Y-108085000D01*
X98385238Y-108037380D01*
X98194761Y-108037380D01*
X98099523Y-108085000D01*
X98051904Y-108132619D01*
X98004285Y-108227857D01*
X98004285Y-108465952D01*
X98051904Y-108561190D01*
X98099523Y-108608809D01*
X98194761Y-108656428D01*
X98385238Y-108656428D01*
X98480476Y-108608809D01*
X98528095Y-108561190D01*
X98575714Y-108465952D01*
X89527142Y-102052380D02*
X89193809Y-101576190D01*
X88955714Y-102052380D02*
X88955714Y-101052380D01*
X89336666Y-101052380D01*
X89431904Y-101100000D01*
X89479523Y-101147619D01*
X89527142Y-101242857D01*
X89527142Y-101385714D01*
X89479523Y-101480952D01*
X89431904Y-101528571D01*
X89336666Y-101576190D01*
X88955714Y-101576190D01*
X90479523Y-102052380D02*
X89908095Y-102052380D01*
X90193809Y-102052380D02*
X90193809Y-101052380D01*
X90098571Y-101195238D01*
X90003333Y-101290476D01*
X89908095Y-101338095D01*
X91336666Y-101052380D02*
X91146190Y-101052380D01*
X91050952Y-101100000D01*
X91003333Y-101147619D01*
X90908095Y-101290476D01*
X90860476Y-101480952D01*
X90860476Y-101861904D01*
X90908095Y-101957142D01*
X90955714Y-102004761D01*
X91050952Y-102052380D01*
X91241428Y-102052380D01*
X91336666Y-102004761D01*
X91384285Y-101957142D01*
X91431904Y-101861904D01*
X91431904Y-101623809D01*
X91384285Y-101528571D01*
X91336666Y-101480952D01*
X91241428Y-101433333D01*
X91050952Y-101433333D01*
X90955714Y-101480952D01*
X90908095Y-101528571D01*
X90860476Y-101623809D01*
X95877142Y-95607142D02*
X95829523Y-95654761D01*
X95686666Y-95702380D01*
X95591428Y-95702380D01*
X95448571Y-95654761D01*
X95353333Y-95559523D01*
X95305714Y-95464285D01*
X95258095Y-95273809D01*
X95258095Y-95130952D01*
X95305714Y-94940476D01*
X95353333Y-94845238D01*
X95448571Y-94750000D01*
X95591428Y-94702380D01*
X95686666Y-94702380D01*
X95829523Y-94750000D01*
X95877142Y-94797619D01*
X96829523Y-95702380D02*
X96258095Y-95702380D01*
X96543809Y-95702380D02*
X96543809Y-94702380D01*
X96448571Y-94845238D01*
X96353333Y-94940476D01*
X96258095Y-94988095D01*
X97781904Y-95702380D02*
X97210476Y-95702380D01*
X97496190Y-95702380D02*
X97496190Y-94702380D01*
X97400952Y-94845238D01*
X97305714Y-94940476D01*
X97210476Y-94988095D01*
X95877142Y-88622142D02*
X95829523Y-88669761D01*
X95686666Y-88717380D01*
X95591428Y-88717380D01*
X95448571Y-88669761D01*
X95353333Y-88574523D01*
X95305714Y-88479285D01*
X95258095Y-88288809D01*
X95258095Y-88145952D01*
X95305714Y-87955476D01*
X95353333Y-87860238D01*
X95448571Y-87765000D01*
X95591428Y-87717380D01*
X95686666Y-87717380D01*
X95829523Y-87765000D01*
X95877142Y-87812619D01*
X96829523Y-88717380D02*
X96258095Y-88717380D01*
X96543809Y-88717380D02*
X96543809Y-87717380D01*
X96448571Y-87860238D01*
X96353333Y-87955476D01*
X96258095Y-88003095D01*
X97162857Y-87717380D02*
X97781904Y-87717380D01*
X97448571Y-88098333D01*
X97591428Y-88098333D01*
X97686666Y-88145952D01*
X97734285Y-88193571D01*
X97781904Y-88288809D01*
X97781904Y-88526904D01*
X97734285Y-88622142D01*
X97686666Y-88669761D01*
X97591428Y-88717380D01*
X97305714Y-88717380D01*
X97210476Y-88669761D01*
X97162857Y-88622142D01*
X82034142Y-112498142D02*
X81986523Y-112545761D01*
X81843666Y-112593380D01*
X81748428Y-112593380D01*
X81605571Y-112545761D01*
X81510333Y-112450523D01*
X81462714Y-112355285D01*
X81415095Y-112164809D01*
X81415095Y-112021952D01*
X81462714Y-111831476D01*
X81510333Y-111736238D01*
X81605571Y-111641000D01*
X81748428Y-111593380D01*
X81843666Y-111593380D01*
X81986523Y-111641000D01*
X82034142Y-111688619D01*
X82415095Y-111688619D02*
X82462714Y-111641000D01*
X82557952Y-111593380D01*
X82796047Y-111593380D01*
X82891285Y-111641000D01*
X82938904Y-111688619D01*
X82986523Y-111783857D01*
X82986523Y-111879095D01*
X82938904Y-112021952D01*
X82367476Y-112593380D01*
X82986523Y-112593380D01*
X83319857Y-111593380D02*
X83938904Y-111593380D01*
X83605571Y-111974333D01*
X83748428Y-111974333D01*
X83843666Y-112021952D01*
X83891285Y-112069571D01*
X83938904Y-112164809D01*
X83938904Y-112402904D01*
X83891285Y-112498142D01*
X83843666Y-112545761D01*
X83748428Y-112593380D01*
X83462714Y-112593380D01*
X83367476Y-112545761D01*
X83319857Y-112498142D01*
X83018333Y-90654142D02*
X82970714Y-90701761D01*
X82827857Y-90749380D01*
X82732619Y-90749380D01*
X82589761Y-90701761D01*
X82494523Y-90606523D01*
X82446904Y-90511285D01*
X82399285Y-90320809D01*
X82399285Y-90177952D01*
X82446904Y-89987476D01*
X82494523Y-89892238D01*
X82589761Y-89797000D01*
X82732619Y-89749380D01*
X82827857Y-89749380D01*
X82970714Y-89797000D01*
X83018333Y-89844619D01*
X83923095Y-89749380D02*
X83446904Y-89749380D01*
X83399285Y-90225571D01*
X83446904Y-90177952D01*
X83542142Y-90130333D01*
X83780238Y-90130333D01*
X83875476Y-90177952D01*
X83923095Y-90225571D01*
X83970714Y-90320809D01*
X83970714Y-90558904D01*
X83923095Y-90654142D01*
X83875476Y-90701761D01*
X83780238Y-90749380D01*
X83542142Y-90749380D01*
X83446904Y-90701761D01*
X83399285Y-90654142D01*
X75001380Y-95257857D02*
X74525190Y-95591190D01*
X75001380Y-95829285D02*
X74001380Y-95829285D01*
X74001380Y-95448333D01*
X74049000Y-95353095D01*
X74096619Y-95305476D01*
X74191857Y-95257857D01*
X74334714Y-95257857D01*
X74429952Y-95305476D01*
X74477571Y-95353095D01*
X74525190Y-95448333D01*
X74525190Y-95829285D01*
X75001380Y-94305476D02*
X75001380Y-94876904D01*
X75001380Y-94591190D02*
X74001380Y-94591190D01*
X74144238Y-94686428D01*
X74239476Y-94781666D01*
X74287095Y-94876904D01*
X74001380Y-93972142D02*
X74001380Y-93353095D01*
X74382333Y-93686428D01*
X74382333Y-93543571D01*
X74429952Y-93448333D01*
X74477571Y-93400714D01*
X74572809Y-93353095D01*
X74810904Y-93353095D01*
X74906142Y-93400714D01*
X74953761Y-93448333D01*
X75001380Y-93543571D01*
X75001380Y-93829285D01*
X74953761Y-93924523D01*
X74906142Y-93972142D01*
X84907380Y-95416666D02*
X84431190Y-95750000D01*
X84907380Y-95988095D02*
X83907380Y-95988095D01*
X83907380Y-95607142D01*
X83955000Y-95511904D01*
X84002619Y-95464285D01*
X84097857Y-95416666D01*
X84240714Y-95416666D01*
X84335952Y-95464285D01*
X84383571Y-95511904D01*
X84431190Y-95607142D01*
X84431190Y-95988095D01*
X84907380Y-94464285D02*
X84907380Y-95035714D01*
X84907380Y-94750000D02*
X83907380Y-94750000D01*
X84050238Y-94845238D01*
X84145476Y-94940476D01*
X84193095Y-95035714D01*
X78557380Y-75572857D02*
X78081190Y-75906190D01*
X78557380Y-76144285D02*
X77557380Y-76144285D01*
X77557380Y-75763333D01*
X77605000Y-75668095D01*
X77652619Y-75620476D01*
X77747857Y-75572857D01*
X77890714Y-75572857D01*
X77985952Y-75620476D01*
X78033571Y-75668095D01*
X78081190Y-75763333D01*
X78081190Y-76144285D01*
X78557380Y-74620476D02*
X78557380Y-75191904D01*
X78557380Y-74906190D02*
X77557380Y-74906190D01*
X77700238Y-75001428D01*
X77795476Y-75096666D01*
X77843095Y-75191904D01*
X77985952Y-74049047D02*
X77938333Y-74144285D01*
X77890714Y-74191904D01*
X77795476Y-74239523D01*
X77747857Y-74239523D01*
X77652619Y-74191904D01*
X77605000Y-74144285D01*
X77557380Y-74049047D01*
X77557380Y-73858571D01*
X77605000Y-73763333D01*
X77652619Y-73715714D01*
X77747857Y-73668095D01*
X77795476Y-73668095D01*
X77890714Y-73715714D01*
X77938333Y-73763333D01*
X77985952Y-73858571D01*
X77985952Y-74049047D01*
X78033571Y-74144285D01*
X78081190Y-74191904D01*
X78176428Y-74239523D01*
X78366904Y-74239523D01*
X78462142Y-74191904D01*
X78509761Y-74144285D01*
X78557380Y-74049047D01*
X78557380Y-73858571D01*
X78509761Y-73763333D01*
X78462142Y-73715714D01*
X78366904Y-73668095D01*
X78176428Y-73668095D01*
X78081190Y-73715714D01*
X78033571Y-73763333D01*
X77985952Y-73858571D01*
X77462142Y-89257142D02*
X77414523Y-89304761D01*
X77271666Y-89352380D01*
X77176428Y-89352380D01*
X77033571Y-89304761D01*
X76938333Y-89209523D01*
X76890714Y-89114285D01*
X76843095Y-88923809D01*
X76843095Y-88780952D01*
X76890714Y-88590476D01*
X76938333Y-88495238D01*
X77033571Y-88400000D01*
X77176428Y-88352380D01*
X77271666Y-88352380D01*
X77414523Y-88400000D01*
X77462142Y-88447619D01*
X77843095Y-88447619D02*
X77890714Y-88400000D01*
X77985952Y-88352380D01*
X78224047Y-88352380D01*
X78319285Y-88400000D01*
X78366904Y-88447619D01*
X78414523Y-88542857D01*
X78414523Y-88638095D01*
X78366904Y-88780952D01*
X77795476Y-89352380D01*
X78414523Y-89352380D01*
X78795476Y-88447619D02*
X78843095Y-88400000D01*
X78938333Y-88352380D01*
X79176428Y-88352380D01*
X79271666Y-88400000D01*
X79319285Y-88447619D01*
X79366904Y-88542857D01*
X79366904Y-88638095D01*
X79319285Y-88780952D01*
X78747857Y-89352380D01*
X79366904Y-89352380D01*
X84812142Y-80811666D02*
X84859761Y-80859285D01*
X84907380Y-81002142D01*
X84907380Y-81097380D01*
X84859761Y-81240238D01*
X84764523Y-81335476D01*
X84669285Y-81383095D01*
X84478809Y-81430714D01*
X84335952Y-81430714D01*
X84145476Y-81383095D01*
X84050238Y-81335476D01*
X83955000Y-81240238D01*
X83907380Y-81097380D01*
X83907380Y-81002142D01*
X83955000Y-80859285D01*
X84002619Y-80811666D01*
X84335952Y-80240238D02*
X84288333Y-80335476D01*
X84240714Y-80383095D01*
X84145476Y-80430714D01*
X84097857Y-80430714D01*
X84002619Y-80383095D01*
X83955000Y-80335476D01*
X83907380Y-80240238D01*
X83907380Y-80049761D01*
X83955000Y-79954523D01*
X84002619Y-79906904D01*
X84097857Y-79859285D01*
X84145476Y-79859285D01*
X84240714Y-79906904D01*
X84288333Y-79954523D01*
X84335952Y-80049761D01*
X84335952Y-80240238D01*
X84383571Y-80335476D01*
X84431190Y-80383095D01*
X84526428Y-80430714D01*
X84716904Y-80430714D01*
X84812142Y-80383095D01*
X84859761Y-80335476D01*
X84907380Y-80240238D01*
X84907380Y-80049761D01*
X84859761Y-79954523D01*
X84812142Y-79906904D01*
X84716904Y-79859285D01*
X84526428Y-79859285D01*
X84431190Y-79906904D01*
X84383571Y-79954523D01*
X84335952Y-80049761D01*
X87447380Y-108751666D02*
X86971190Y-109085000D01*
X87447380Y-109323095D02*
X86447380Y-109323095D01*
X86447380Y-108942142D01*
X86495000Y-108846904D01*
X86542619Y-108799285D01*
X86637857Y-108751666D01*
X86780714Y-108751666D01*
X86875952Y-108799285D01*
X86923571Y-108846904D01*
X86971190Y-108942142D01*
X86971190Y-109323095D01*
X86447380Y-108418333D02*
X86447380Y-107799285D01*
X86828333Y-108132619D01*
X86828333Y-107989761D01*
X86875952Y-107894523D01*
X86923571Y-107846904D01*
X87018809Y-107799285D01*
X87256904Y-107799285D01*
X87352142Y-107846904D01*
X87399761Y-107894523D01*
X87447380Y-107989761D01*
X87447380Y-108275476D01*
X87399761Y-108370714D01*
X87352142Y-108418333D01*
X98258333Y-100687142D02*
X98210714Y-100734761D01*
X98067857Y-100782380D01*
X97972619Y-100782380D01*
X97829761Y-100734761D01*
X97734523Y-100639523D01*
X97686904Y-100544285D01*
X97639285Y-100353809D01*
X97639285Y-100210952D01*
X97686904Y-100020476D01*
X97734523Y-99925238D01*
X97829761Y-99830000D01*
X97972619Y-99782380D01*
X98067857Y-99782380D01*
X98210714Y-99830000D01*
X98258333Y-99877619D01*
X98591666Y-99782380D02*
X99258333Y-99782380D01*
X98829761Y-100782380D01*
X88566666Y-112482380D02*
X88566666Y-113196666D01*
X88519047Y-113339523D01*
X88423809Y-113434761D01*
X88280952Y-113482380D01*
X88185714Y-113482380D01*
X88947619Y-112482380D02*
X89566666Y-112482380D01*
X89233333Y-112863333D01*
X89376190Y-112863333D01*
X89471428Y-112910952D01*
X89519047Y-112958571D01*
X89566666Y-113053809D01*
X89566666Y-113291904D01*
X89519047Y-113387142D01*
X89471428Y-113434761D01*
X89376190Y-113482380D01*
X89090476Y-113482380D01*
X88995238Y-113434761D01*
X88947619Y-113387142D01*
X80002142Y-94337142D02*
X79954523Y-94384761D01*
X79811666Y-94432380D01*
X79716428Y-94432380D01*
X79573571Y-94384761D01*
X79478333Y-94289523D01*
X79430714Y-94194285D01*
X79383095Y-94003809D01*
X79383095Y-93860952D01*
X79430714Y-93670476D01*
X79478333Y-93575238D01*
X79573571Y-93480000D01*
X79716428Y-93432380D01*
X79811666Y-93432380D01*
X79954523Y-93480000D01*
X80002142Y-93527619D01*
X80954523Y-94432380D02*
X80383095Y-94432380D01*
X80668809Y-94432380D02*
X80668809Y-93432380D01*
X80573571Y-93575238D01*
X80478333Y-93670476D01*
X80383095Y-93718095D01*
X81525952Y-93860952D02*
X81430714Y-93813333D01*
X81383095Y-93765714D01*
X81335476Y-93670476D01*
X81335476Y-93622857D01*
X81383095Y-93527619D01*
X81430714Y-93480000D01*
X81525952Y-93432380D01*
X81716428Y-93432380D01*
X81811666Y-93480000D01*
X81859285Y-93527619D01*
X81906904Y-93622857D01*
X81906904Y-93670476D01*
X81859285Y-93765714D01*
X81811666Y-93813333D01*
X81716428Y-93860952D01*
X81525952Y-93860952D01*
X81430714Y-93908571D01*
X81383095Y-93956190D01*
X81335476Y-94051428D01*
X81335476Y-94241904D01*
X81383095Y-94337142D01*
X81430714Y-94384761D01*
X81525952Y-94432380D01*
X81716428Y-94432380D01*
X81811666Y-94384761D01*
X81859285Y-94337142D01*
X81906904Y-94241904D01*
X81906904Y-94051428D01*
X81859285Y-93956190D01*
X81811666Y-93908571D01*
X81716428Y-93860952D01*
X83272380Y-87121904D02*
X84081904Y-87121904D01*
X84177142Y-87074285D01*
X84224761Y-87026666D01*
X84272380Y-86931428D01*
X84272380Y-86740952D01*
X84224761Y-86645714D01*
X84177142Y-86598095D01*
X84081904Y-86550476D01*
X83272380Y-86550476D01*
X83367619Y-86121904D02*
X83320000Y-86074285D01*
X83272380Y-85979047D01*
X83272380Y-85740952D01*
X83320000Y-85645714D01*
X83367619Y-85598095D01*
X83462857Y-85550476D01*
X83558095Y-85550476D01*
X83700952Y-85598095D01*
X84272380Y-86169523D01*
X84272380Y-85550476D01*
X77573142Y-112561666D02*
X77620761Y-112609285D01*
X77668380Y-112752142D01*
X77668380Y-112847380D01*
X77620761Y-112990238D01*
X77525523Y-113085476D01*
X77430285Y-113133095D01*
X77239809Y-113180714D01*
X77096952Y-113180714D01*
X76906476Y-113133095D01*
X76811238Y-113085476D01*
X76716000Y-112990238D01*
X76668380Y-112847380D01*
X76668380Y-112752142D01*
X76716000Y-112609285D01*
X76763619Y-112561666D01*
X77668380Y-111609285D02*
X77668380Y-112180714D01*
X77668380Y-111895000D02*
X76668380Y-111895000D01*
X76811238Y-111990238D01*
X76906476Y-112085476D01*
X76954095Y-112180714D01*
X95447142Y-93352857D02*
X95494761Y-93400476D01*
X95542380Y-93543333D01*
X95542380Y-93638571D01*
X95494761Y-93781428D01*
X95399523Y-93876666D01*
X95304285Y-93924285D01*
X95113809Y-93971904D01*
X94970952Y-93971904D01*
X94780476Y-93924285D01*
X94685238Y-93876666D01*
X94590000Y-93781428D01*
X94542380Y-93638571D01*
X94542380Y-93543333D01*
X94590000Y-93400476D01*
X94637619Y-93352857D01*
X95542380Y-92400476D02*
X95542380Y-92971904D01*
X95542380Y-92686190D02*
X94542380Y-92686190D01*
X94685238Y-92781428D01*
X94780476Y-92876666D01*
X94828095Y-92971904D01*
X94637619Y-92019523D02*
X94590000Y-91971904D01*
X94542380Y-91876666D01*
X94542380Y-91638571D01*
X94590000Y-91543333D01*
X94637619Y-91495714D01*
X94732857Y-91448095D01*
X94828095Y-91448095D01*
X94970952Y-91495714D01*
X95542380Y-92067142D01*
X95542380Y-91448095D01*
X82907142Y-76067857D02*
X82954761Y-76115476D01*
X83002380Y-76258333D01*
X83002380Y-76353571D01*
X82954761Y-76496428D01*
X82859523Y-76591666D01*
X82764285Y-76639285D01*
X82573809Y-76686904D01*
X82430952Y-76686904D01*
X82240476Y-76639285D01*
X82145238Y-76591666D01*
X82050000Y-76496428D01*
X82002380Y-76353571D01*
X82002380Y-76258333D01*
X82050000Y-76115476D01*
X82097619Y-76067857D01*
X83002380Y-75115476D02*
X83002380Y-75686904D01*
X83002380Y-75401190D02*
X82002380Y-75401190D01*
X82145238Y-75496428D01*
X82240476Y-75591666D01*
X82288095Y-75686904D01*
X83002380Y-74639285D02*
X83002380Y-74448809D01*
X82954761Y-74353571D01*
X82907142Y-74305952D01*
X82764285Y-74210714D01*
X82573809Y-74163095D01*
X82192857Y-74163095D01*
X82097619Y-74210714D01*
X82050000Y-74258333D01*
X82002380Y-74353571D01*
X82002380Y-74544047D01*
X82050000Y-74639285D01*
X82097619Y-74686904D01*
X82192857Y-74734523D01*
X82430952Y-74734523D01*
X82526190Y-74686904D01*
X82573809Y-74639285D01*
X82621428Y-74544047D01*
X82621428Y-74353571D01*
X82573809Y-74258333D01*
X82526190Y-74210714D01*
X82430952Y-74163095D01*
X100838095Y-82764380D02*
X100838095Y-83573904D01*
X100885714Y-83669142D01*
X100933333Y-83716761D01*
X101028571Y-83764380D01*
X101219047Y-83764380D01*
X101314285Y-83716761D01*
X101361904Y-83669142D01*
X101409523Y-83573904D01*
X101409523Y-82764380D01*
X102361904Y-82764380D02*
X101885714Y-82764380D01*
X101838095Y-83240571D01*
X101885714Y-83192952D01*
X101980952Y-83145333D01*
X102219047Y-83145333D01*
X102314285Y-83192952D01*
X102361904Y-83240571D01*
X102409523Y-83335809D01*
X102409523Y-83573904D01*
X102361904Y-83669142D01*
X102314285Y-83716761D01*
X102219047Y-83764380D01*
X101980952Y-83764380D01*
X101885714Y-83716761D01*
X101838095Y-83669142D01*
X94916666Y-100822380D02*
X94916666Y-101536666D01*
X94869047Y-101679523D01*
X94773809Y-101774761D01*
X94630952Y-101822380D01*
X94535714Y-101822380D01*
X95345238Y-100917619D02*
X95392857Y-100870000D01*
X95488095Y-100822380D01*
X95726190Y-100822380D01*
X95821428Y-100870000D01*
X95869047Y-100917619D01*
X95916666Y-101012857D01*
X95916666Y-101108095D01*
X95869047Y-101250952D01*
X95297619Y-101822380D01*
X95916666Y-101822380D01*
X78811380Y-94781666D02*
X78335190Y-95115000D01*
X78811380Y-95353095D02*
X77811380Y-95353095D01*
X77811380Y-94972142D01*
X77859000Y-94876904D01*
X77906619Y-94829285D01*
X78001857Y-94781666D01*
X78144714Y-94781666D01*
X78239952Y-94829285D01*
X78287571Y-94876904D01*
X78335190Y-94972142D01*
X78335190Y-95353095D01*
X77811380Y-94448333D02*
X77811380Y-93781666D01*
X78811380Y-94210238D01*
X101901666Y-108672380D02*
X101901666Y-109386666D01*
X101854047Y-109529523D01*
X101758809Y-109624761D01*
X101615952Y-109672380D01*
X101520714Y-109672380D01*
X102901666Y-109672380D02*
X102330238Y-109672380D01*
X102615952Y-109672380D02*
X102615952Y-108672380D01*
X102520714Y-108815238D01*
X102425476Y-108910476D01*
X102330238Y-108958095D01*
X75398333Y-76430142D02*
X75350714Y-76477761D01*
X75207857Y-76525380D01*
X75112619Y-76525380D01*
X74969761Y-76477761D01*
X74874523Y-76382523D01*
X74826904Y-76287285D01*
X74779285Y-76096809D01*
X74779285Y-75953952D01*
X74826904Y-75763476D01*
X74874523Y-75668238D01*
X74969761Y-75573000D01*
X75112619Y-75525380D01*
X75207857Y-75525380D01*
X75350714Y-75573000D01*
X75398333Y-75620619D01*
X75731666Y-75525380D02*
X76350714Y-75525380D01*
X76017380Y-75906333D01*
X76160238Y-75906333D01*
X76255476Y-75953952D01*
X76303095Y-76001571D01*
X76350714Y-76096809D01*
X76350714Y-76334904D01*
X76303095Y-76430142D01*
X76255476Y-76477761D01*
X76160238Y-76525380D01*
X75874523Y-76525380D01*
X75779285Y-76477761D01*
X75731666Y-76430142D01*
X85161380Y-109894666D02*
X84685190Y-110228000D01*
X85161380Y-110466095D02*
X84161380Y-110466095D01*
X84161380Y-110085142D01*
X84209000Y-109989904D01*
X84256619Y-109942285D01*
X84351857Y-109894666D01*
X84494714Y-109894666D01*
X84589952Y-109942285D01*
X84637571Y-109989904D01*
X84685190Y-110085142D01*
X84685190Y-110466095D01*
X84589952Y-109323238D02*
X84542333Y-109418476D01*
X84494714Y-109466095D01*
X84399476Y-109513714D01*
X84351857Y-109513714D01*
X84256619Y-109466095D01*
X84209000Y-109418476D01*
X84161380Y-109323238D01*
X84161380Y-109132761D01*
X84209000Y-109037523D01*
X84256619Y-108989904D01*
X84351857Y-108942285D01*
X84399476Y-108942285D01*
X84494714Y-108989904D01*
X84542333Y-109037523D01*
X84589952Y-109132761D01*
X84589952Y-109323238D01*
X84637571Y-109418476D01*
X84685190Y-109466095D01*
X84780428Y-109513714D01*
X84970904Y-109513714D01*
X85066142Y-109466095D01*
X85113761Y-109418476D01*
X85161380Y-109323238D01*
X85161380Y-109132761D01*
X85113761Y-109037523D01*
X85066142Y-108989904D01*
X84970904Y-108942285D01*
X84780428Y-108942285D01*
X84685190Y-108989904D01*
X84637571Y-109037523D01*
X84589952Y-109132761D01*
X84431142Y-75591666D02*
X84478761Y-75639285D01*
X84526380Y-75782142D01*
X84526380Y-75877380D01*
X84478761Y-76020238D01*
X84383523Y-76115476D01*
X84288285Y-76163095D01*
X84097809Y-76210714D01*
X83954952Y-76210714D01*
X83764476Y-76163095D01*
X83669238Y-76115476D01*
X83574000Y-76020238D01*
X83526380Y-75877380D01*
X83526380Y-75782142D01*
X83574000Y-75639285D01*
X83621619Y-75591666D01*
X83621619Y-75210714D02*
X83574000Y-75163095D01*
X83526380Y-75067857D01*
X83526380Y-74829761D01*
X83574000Y-74734523D01*
X83621619Y-74686904D01*
X83716857Y-74639285D01*
X83812095Y-74639285D01*
X83954952Y-74686904D01*
X84526380Y-75258333D01*
X84526380Y-74639285D01*
X81843571Y-115133333D02*
X81843571Y-115466666D01*
X82367380Y-115466666D02*
X81367380Y-115466666D01*
X81367380Y-114990476D01*
X81843571Y-114276190D02*
X81891190Y-114133333D01*
X81938809Y-114085714D01*
X82034047Y-114038095D01*
X82176904Y-114038095D01*
X82272142Y-114085714D01*
X82319761Y-114133333D01*
X82367380Y-114228571D01*
X82367380Y-114609523D01*
X81367380Y-114609523D01*
X81367380Y-114276190D01*
X81415000Y-114180952D01*
X81462619Y-114133333D01*
X81557857Y-114085714D01*
X81653095Y-114085714D01*
X81748333Y-114133333D01*
X81795952Y-114180952D01*
X81843571Y-114276190D01*
X81843571Y-114609523D01*
X82367380Y-113085714D02*
X82367380Y-113657142D01*
X82367380Y-113371428D02*
X81367380Y-113371428D01*
X81510238Y-113466666D01*
X81605476Y-113561904D01*
X81653095Y-113657142D01*
X86177380Y-95416666D02*
X85701190Y-95750000D01*
X86177380Y-95988095D02*
X85177380Y-95988095D01*
X85177380Y-95607142D01*
X85225000Y-95511904D01*
X85272619Y-95464285D01*
X85367857Y-95416666D01*
X85510714Y-95416666D01*
X85605952Y-95464285D01*
X85653571Y-95511904D01*
X85701190Y-95607142D01*
X85701190Y-95988095D01*
X85177380Y-94559523D02*
X85177380Y-94750000D01*
X85225000Y-94845238D01*
X85272619Y-94892857D01*
X85415476Y-94988095D01*
X85605952Y-95035714D01*
X85986904Y-95035714D01*
X86082142Y-94988095D01*
X86129761Y-94940476D01*
X86177380Y-94845238D01*
X86177380Y-94654761D01*
X86129761Y-94559523D01*
X86082142Y-94511904D01*
X85986904Y-94464285D01*
X85748809Y-94464285D01*
X85653571Y-94511904D01*
X85605952Y-94559523D01*
X85558333Y-94654761D01*
X85558333Y-94845238D01*
X85605952Y-94940476D01*
X85653571Y-94988095D01*
X85748809Y-95035714D01*
X89892142Y-107322857D02*
X89939761Y-107370476D01*
X89987380Y-107513333D01*
X89987380Y-107608571D01*
X89939761Y-107751428D01*
X89844523Y-107846666D01*
X89749285Y-107894285D01*
X89558809Y-107941904D01*
X89415952Y-107941904D01*
X89225476Y-107894285D01*
X89130238Y-107846666D01*
X89035000Y-107751428D01*
X88987380Y-107608571D01*
X88987380Y-107513333D01*
X89035000Y-107370476D01*
X89082619Y-107322857D01*
X89082619Y-106941904D02*
X89035000Y-106894285D01*
X88987380Y-106799047D01*
X88987380Y-106560952D01*
X89035000Y-106465714D01*
X89082619Y-106418095D01*
X89177857Y-106370476D01*
X89273095Y-106370476D01*
X89415952Y-106418095D01*
X89987380Y-106989523D01*
X89987380Y-106370476D01*
X89320714Y-105513333D02*
X89987380Y-105513333D01*
X88939761Y-105751428D02*
X89654047Y-105989523D01*
X89654047Y-105370476D01*
X95447142Y-86367857D02*
X95494761Y-86415476D01*
X95542380Y-86558333D01*
X95542380Y-86653571D01*
X95494761Y-86796428D01*
X95399523Y-86891666D01*
X95304285Y-86939285D01*
X95113809Y-86986904D01*
X94970952Y-86986904D01*
X94780476Y-86939285D01*
X94685238Y-86891666D01*
X94590000Y-86796428D01*
X94542380Y-86653571D01*
X94542380Y-86558333D01*
X94590000Y-86415476D01*
X94637619Y-86367857D01*
X95542380Y-85415476D02*
X95542380Y-85986904D01*
X95542380Y-85701190D02*
X94542380Y-85701190D01*
X94685238Y-85796428D01*
X94780476Y-85891666D01*
X94828095Y-85986904D01*
X94875714Y-84558333D02*
X95542380Y-84558333D01*
X94494761Y-84796428D02*
X95209047Y-85034523D01*
X95209047Y-84415476D01*
X97382380Y-104266904D02*
X98191904Y-104266904D01*
X98287142Y-104219285D01*
X98334761Y-104171666D01*
X98382380Y-104076428D01*
X98382380Y-103885952D01*
X98334761Y-103790714D01*
X98287142Y-103743095D01*
X98191904Y-103695476D01*
X97382380Y-103695476D01*
X97382380Y-103314523D02*
X97382380Y-102695476D01*
X97763333Y-103028809D01*
X97763333Y-102885952D01*
X97810952Y-102790714D01*
X97858571Y-102743095D01*
X97953809Y-102695476D01*
X98191904Y-102695476D01*
X98287142Y-102743095D01*
X98334761Y-102790714D01*
X98382380Y-102885952D01*
X98382380Y-103171666D01*
X98334761Y-103266904D01*
X98287142Y-103314523D01*
X76601142Y-108434142D02*
X76553523Y-108481761D01*
X76410666Y-108529380D01*
X76315428Y-108529380D01*
X76172571Y-108481761D01*
X76077333Y-108386523D01*
X76029714Y-108291285D01*
X75982095Y-108100809D01*
X75982095Y-107957952D01*
X76029714Y-107767476D01*
X76077333Y-107672238D01*
X76172571Y-107577000D01*
X76315428Y-107529380D01*
X76410666Y-107529380D01*
X76553523Y-107577000D01*
X76601142Y-107624619D01*
X77553523Y-108529380D02*
X76982095Y-108529380D01*
X77267809Y-108529380D02*
X77267809Y-107529380D01*
X77172571Y-107672238D01*
X77077333Y-107767476D01*
X76982095Y-107815095D01*
X78458285Y-107529380D02*
X77982095Y-107529380D01*
X77934476Y-108005571D01*
X77982095Y-107957952D01*
X78077333Y-107910333D01*
X78315428Y-107910333D01*
X78410666Y-107957952D01*
X78458285Y-108005571D01*
X78505904Y-108100809D01*
X78505904Y-108338904D01*
X78458285Y-108434142D01*
X78410666Y-108481761D01*
X78315428Y-108529380D01*
X78077333Y-108529380D01*
X77982095Y-108481761D01*
X77934476Y-108434142D01*
X86717142Y-76207857D02*
X86764761Y-76255476D01*
X86812380Y-76398333D01*
X86812380Y-76493571D01*
X86764761Y-76636428D01*
X86669523Y-76731666D01*
X86574285Y-76779285D01*
X86383809Y-76826904D01*
X86240952Y-76826904D01*
X86050476Y-76779285D01*
X85955238Y-76731666D01*
X85860000Y-76636428D01*
X85812380Y-76493571D01*
X85812380Y-76398333D01*
X85860000Y-76255476D01*
X85907619Y-76207857D01*
X85907619Y-75826904D02*
X85860000Y-75779285D01*
X85812380Y-75684047D01*
X85812380Y-75445952D01*
X85860000Y-75350714D01*
X85907619Y-75303095D01*
X86002857Y-75255476D01*
X86098095Y-75255476D01*
X86240952Y-75303095D01*
X86812380Y-75874523D01*
X86812380Y-75255476D01*
X85812380Y-74350714D02*
X85812380Y-74826904D01*
X86288571Y-74874523D01*
X86240952Y-74826904D01*
X86193333Y-74731666D01*
X86193333Y-74493571D01*
X86240952Y-74398333D01*
X86288571Y-74350714D01*
X86383809Y-74303095D01*
X86621904Y-74303095D01*
X86717142Y-74350714D01*
X86764761Y-74398333D01*
X86812380Y-74493571D01*
X86812380Y-74731666D01*
X86764761Y-74826904D01*
X86717142Y-74874523D01*
X74652142Y-80652857D02*
X74699761Y-80700476D01*
X74747380Y-80843333D01*
X74747380Y-80938571D01*
X74699761Y-81081428D01*
X74604523Y-81176666D01*
X74509285Y-81224285D01*
X74318809Y-81271904D01*
X74175952Y-81271904D01*
X73985476Y-81224285D01*
X73890238Y-81176666D01*
X73795000Y-81081428D01*
X73747380Y-80938571D01*
X73747380Y-80843333D01*
X73795000Y-80700476D01*
X73842619Y-80652857D01*
X73842619Y-80271904D02*
X73795000Y-80224285D01*
X73747380Y-80129047D01*
X73747380Y-79890952D01*
X73795000Y-79795714D01*
X73842619Y-79748095D01*
X73937857Y-79700476D01*
X74033095Y-79700476D01*
X74175952Y-79748095D01*
X74747380Y-80319523D01*
X74747380Y-79700476D01*
X73747380Y-79081428D02*
X73747380Y-78986190D01*
X73795000Y-78890952D01*
X73842619Y-78843333D01*
X73937857Y-78795714D01*
X74128333Y-78748095D01*
X74366428Y-78748095D01*
X74556904Y-78795714D01*
X74652142Y-78843333D01*
X74699761Y-78890952D01*
X74747380Y-78986190D01*
X74747380Y-79081428D01*
X74699761Y-79176666D01*
X74652142Y-79224285D01*
X74556904Y-79271904D01*
X74366428Y-79319523D01*
X74128333Y-79319523D01*
X73937857Y-79271904D01*
X73842619Y-79224285D01*
X73795000Y-79176666D01*
X73747380Y-79081428D01*
X96512142Y-98782142D02*
X96464523Y-98829761D01*
X96321666Y-98877380D01*
X96226428Y-98877380D01*
X96083571Y-98829761D01*
X95988333Y-98734523D01*
X95940714Y-98639285D01*
X95893095Y-98448809D01*
X95893095Y-98305952D01*
X95940714Y-98115476D01*
X95988333Y-98020238D01*
X96083571Y-97925000D01*
X96226428Y-97877380D01*
X96321666Y-97877380D01*
X96464523Y-97925000D01*
X96512142Y-97972619D01*
X97464523Y-98877380D02*
X96893095Y-98877380D01*
X97178809Y-98877380D02*
X97178809Y-97877380D01*
X97083571Y-98020238D01*
X96988333Y-98115476D01*
X96893095Y-98163095D01*
X98083571Y-97877380D02*
X98178809Y-97877380D01*
X98274047Y-97925000D01*
X98321666Y-97972619D01*
X98369285Y-98067857D01*
X98416904Y-98258333D01*
X98416904Y-98496428D01*
X98369285Y-98686904D01*
X98321666Y-98782142D01*
X98274047Y-98829761D01*
X98178809Y-98877380D01*
X98083571Y-98877380D01*
X97988333Y-98829761D01*
X97940714Y-98782142D01*
X97893095Y-98686904D01*
X97845476Y-98496428D01*
X97845476Y-98258333D01*
X97893095Y-98067857D01*
X97940714Y-97972619D01*
X97988333Y-97925000D01*
X98083571Y-97877380D01*
X77541380Y-95257857D02*
X77065190Y-95591190D01*
X77541380Y-95829285D02*
X76541380Y-95829285D01*
X76541380Y-95448333D01*
X76589000Y-95353095D01*
X76636619Y-95305476D01*
X76731857Y-95257857D01*
X76874714Y-95257857D01*
X76969952Y-95305476D01*
X77017571Y-95353095D01*
X77065190Y-95448333D01*
X77065190Y-95829285D01*
X77541380Y-94305476D02*
X77541380Y-94876904D01*
X77541380Y-94591190D02*
X76541380Y-94591190D01*
X76684238Y-94686428D01*
X76779476Y-94781666D01*
X76827095Y-94876904D01*
X76636619Y-93924523D02*
X76589000Y-93876904D01*
X76541380Y-93781666D01*
X76541380Y-93543571D01*
X76589000Y-93448333D01*
X76636619Y-93400714D01*
X76731857Y-93353095D01*
X76827095Y-93353095D01*
X76969952Y-93400714D01*
X77541380Y-93972142D01*
X77541380Y-93353095D01*
X81383142Y-75096666D02*
X81430761Y-75144285D01*
X81478380Y-75287142D01*
X81478380Y-75382380D01*
X81430761Y-75525238D01*
X81335523Y-75620476D01*
X81240285Y-75668095D01*
X81049809Y-75715714D01*
X80906952Y-75715714D01*
X80716476Y-75668095D01*
X80621238Y-75620476D01*
X80526000Y-75525238D01*
X80478380Y-75382380D01*
X80478380Y-75287142D01*
X80526000Y-75144285D01*
X80573619Y-75096666D01*
X81478380Y-74620476D02*
X81478380Y-74430000D01*
X81430761Y-74334761D01*
X81383142Y-74287142D01*
X81240285Y-74191904D01*
X81049809Y-74144285D01*
X80668857Y-74144285D01*
X80573619Y-74191904D01*
X80526000Y-74239523D01*
X80478380Y-74334761D01*
X80478380Y-74525238D01*
X80526000Y-74620476D01*
X80573619Y-74668095D01*
X80668857Y-74715714D01*
X80906952Y-74715714D01*
X81002190Y-74668095D01*
X81049809Y-74620476D01*
X81097428Y-74525238D01*
X81097428Y-74334761D01*
X81049809Y-74239523D01*
X81002190Y-74191904D01*
X80906952Y-74144285D01*
X87463333Y-99512380D02*
X87130000Y-99036190D01*
X86891904Y-99512380D02*
X86891904Y-98512380D01*
X87272857Y-98512380D01*
X87368095Y-98560000D01*
X87415714Y-98607619D01*
X87463333Y-98702857D01*
X87463333Y-98845714D01*
X87415714Y-98940952D01*
X87368095Y-98988571D01*
X87272857Y-99036190D01*
X86891904Y-99036190D01*
X88320476Y-98845714D02*
X88320476Y-99512380D01*
X88082380Y-98464761D02*
X87844285Y-99179047D01*
X88463333Y-99179047D01*
X89527142Y-103322380D02*
X89193809Y-102846190D01*
X88955714Y-103322380D02*
X88955714Y-102322380D01*
X89336666Y-102322380D01*
X89431904Y-102370000D01*
X89479523Y-102417619D01*
X89527142Y-102512857D01*
X89527142Y-102655714D01*
X89479523Y-102750952D01*
X89431904Y-102798571D01*
X89336666Y-102846190D01*
X88955714Y-102846190D01*
X90479523Y-103322380D02*
X89908095Y-103322380D01*
X90193809Y-103322380D02*
X90193809Y-102322380D01*
X90098571Y-102465238D01*
X90003333Y-102560476D01*
X89908095Y-102608095D01*
X91384285Y-102322380D02*
X90908095Y-102322380D01*
X90860476Y-102798571D01*
X90908095Y-102750952D01*
X91003333Y-102703333D01*
X91241428Y-102703333D01*
X91336666Y-102750952D01*
X91384285Y-102798571D01*
X91431904Y-102893809D01*
X91431904Y-103131904D01*
X91384285Y-103227142D01*
X91336666Y-103274761D01*
X91241428Y-103322380D01*
X91003333Y-103322380D01*
X90908095Y-103274761D01*
X90860476Y-103227142D01*
X74747380Y-106941857D02*
X74271190Y-107275190D01*
X74747380Y-107513285D02*
X73747380Y-107513285D01*
X73747380Y-107132333D01*
X73795000Y-107037095D01*
X73842619Y-106989476D01*
X73937857Y-106941857D01*
X74080714Y-106941857D01*
X74175952Y-106989476D01*
X74223571Y-107037095D01*
X74271190Y-107132333D01*
X74271190Y-107513285D01*
X74747380Y-105989476D02*
X74747380Y-106560904D01*
X74747380Y-106275190D02*
X73747380Y-106275190D01*
X73890238Y-106370428D01*
X73985476Y-106465666D01*
X74033095Y-106560904D01*
X74747380Y-105513285D02*
X74747380Y-105322809D01*
X74699761Y-105227571D01*
X74652142Y-105179952D01*
X74509285Y-105084714D01*
X74318809Y-105037095D01*
X73937857Y-105037095D01*
X73842619Y-105084714D01*
X73795000Y-105132333D01*
X73747380Y-105227571D01*
X73747380Y-105418047D01*
X73795000Y-105513285D01*
X73842619Y-105560904D01*
X73937857Y-105608523D01*
X74175952Y-105608523D01*
X74271190Y-105560904D01*
X74318809Y-105513285D01*
X74366428Y-105418047D01*
X74366428Y-105227571D01*
X74318809Y-105132333D01*
X74271190Y-105084714D01*
X74175952Y-105037095D01*
X83637380Y-95416666D02*
X83161190Y-95750000D01*
X83637380Y-95988095D02*
X82637380Y-95988095D01*
X82637380Y-95607142D01*
X82685000Y-95511904D01*
X82732619Y-95464285D01*
X82827857Y-95416666D01*
X82970714Y-95416666D01*
X83065952Y-95464285D01*
X83113571Y-95511904D01*
X83161190Y-95607142D01*
X83161190Y-95988095D01*
X82732619Y-95035714D02*
X82685000Y-94988095D01*
X82637380Y-94892857D01*
X82637380Y-94654761D01*
X82685000Y-94559523D01*
X82732619Y-94511904D01*
X82827857Y-94464285D01*
X82923095Y-94464285D01*
X83065952Y-94511904D01*
X83637380Y-95083333D01*
X83637380Y-94464285D01*
X74297380Y-104266904D02*
X75106904Y-104266904D01*
X75202142Y-104219285D01*
X75249761Y-104171666D01*
X75297380Y-104076428D01*
X75297380Y-103885952D01*
X75249761Y-103790714D01*
X75202142Y-103743095D01*
X75106904Y-103695476D01*
X74297380Y-103695476D01*
X75297380Y-102695476D02*
X75297380Y-103266904D01*
X75297380Y-102981190D02*
X74297380Y-102981190D01*
X74440238Y-103076428D01*
X74535476Y-103171666D01*
X74583095Y-103266904D01*
X79843333Y-92432142D02*
X79795714Y-92479761D01*
X79652857Y-92527380D01*
X79557619Y-92527380D01*
X79414761Y-92479761D01*
X79319523Y-92384523D01*
X79271904Y-92289285D01*
X79224285Y-92098809D01*
X79224285Y-91955952D01*
X79271904Y-91765476D01*
X79319523Y-91670238D01*
X79414761Y-91575000D01*
X79557619Y-91527380D01*
X79652857Y-91527380D01*
X79795714Y-91575000D01*
X79843333Y-91622619D01*
X80700476Y-91860714D02*
X80700476Y-92527380D01*
X80462380Y-91479761D02*
X80224285Y-92194047D01*
X80843333Y-92194047D01*
X79827380Y-75572857D02*
X79351190Y-75906190D01*
X79827380Y-76144285D02*
X78827380Y-76144285D01*
X78827380Y-75763333D01*
X78875000Y-75668095D01*
X78922619Y-75620476D01*
X79017857Y-75572857D01*
X79160714Y-75572857D01*
X79255952Y-75620476D01*
X79303571Y-75668095D01*
X79351190Y-75763333D01*
X79351190Y-76144285D01*
X79827380Y-74620476D02*
X79827380Y-75191904D01*
X79827380Y-74906190D02*
X78827380Y-74906190D01*
X78970238Y-75001428D01*
X79065476Y-75096666D01*
X79113095Y-75191904D01*
X78827380Y-74287142D02*
X78827380Y-73620476D01*
X79827380Y-74049047D01*
X97623333Y-107037142D02*
X97575714Y-107084761D01*
X97432857Y-107132380D01*
X97337619Y-107132380D01*
X97194761Y-107084761D01*
X97099523Y-106989523D01*
X97051904Y-106894285D01*
X97004285Y-106703809D01*
X97004285Y-106560952D01*
X97051904Y-106370476D01*
X97099523Y-106275238D01*
X97194761Y-106180000D01*
X97337619Y-106132380D01*
X97432857Y-106132380D01*
X97575714Y-106180000D01*
X97623333Y-106227619D01*
X98480476Y-106132380D02*
X98290000Y-106132380D01*
X98194761Y-106180000D01*
X98147142Y-106227619D01*
X98051904Y-106370476D01*
X98004285Y-106560952D01*
X98004285Y-106941904D01*
X98051904Y-107037142D01*
X98099523Y-107084761D01*
X98194761Y-107132380D01*
X98385238Y-107132380D01*
X98480476Y-107084761D01*
X98528095Y-107037142D01*
X98575714Y-106941904D01*
X98575714Y-106703809D01*
X98528095Y-106608571D01*
X98480476Y-106560952D01*
X98385238Y-106513333D01*
X98194761Y-106513333D01*
X98099523Y-106560952D01*
X98051904Y-106608571D01*
X98004285Y-106703809D01*
X100838095Y-89749380D02*
X100838095Y-90558904D01*
X100885714Y-90654142D01*
X100933333Y-90701761D01*
X101028571Y-90749380D01*
X101219047Y-90749380D01*
X101314285Y-90701761D01*
X101361904Y-90654142D01*
X101409523Y-90558904D01*
X101409523Y-89749380D01*
X102314285Y-90082714D02*
X102314285Y-90749380D01*
X102076190Y-89701761D02*
X101838095Y-90416047D01*
X102457142Y-90416047D01*
X80637142Y-108434142D02*
X80589523Y-108481761D01*
X80446666Y-108529380D01*
X80351428Y-108529380D01*
X80208571Y-108481761D01*
X80113333Y-108386523D01*
X80065714Y-108291285D01*
X80018095Y-108100809D01*
X80018095Y-107957952D01*
X80065714Y-107767476D01*
X80113333Y-107672238D01*
X80208571Y-107577000D01*
X80351428Y-107529380D01*
X80446666Y-107529380D01*
X80589523Y-107577000D01*
X80637142Y-107624619D01*
X81018095Y-107624619D02*
X81065714Y-107577000D01*
X81160952Y-107529380D01*
X81399047Y-107529380D01*
X81494285Y-107577000D01*
X81541904Y-107624619D01*
X81589523Y-107719857D01*
X81589523Y-107815095D01*
X81541904Y-107957952D01*
X80970476Y-108529380D01*
X81589523Y-108529380D01*
X81922857Y-107529380D02*
X82589523Y-107529380D01*
X82160952Y-108529380D01*
X85447142Y-89542857D02*
X85494761Y-89590476D01*
X85542380Y-89733333D01*
X85542380Y-89828571D01*
X85494761Y-89971428D01*
X85399523Y-90066666D01*
X85304285Y-90114285D01*
X85113809Y-90161904D01*
X84970952Y-90161904D01*
X84780476Y-90114285D01*
X84685238Y-90066666D01*
X84590000Y-89971428D01*
X84542380Y-89828571D01*
X84542380Y-89733333D01*
X84590000Y-89590476D01*
X84637619Y-89542857D01*
X84637619Y-89161904D02*
X84590000Y-89114285D01*
X84542380Y-89019047D01*
X84542380Y-88780952D01*
X84590000Y-88685714D01*
X84637619Y-88638095D01*
X84732857Y-88590476D01*
X84828095Y-88590476D01*
X84970952Y-88638095D01*
X85542380Y-89209523D01*
X85542380Y-88590476D01*
X85542380Y-87638095D02*
X85542380Y-88209523D01*
X85542380Y-87923809D02*
X84542380Y-87923809D01*
X84685238Y-88019047D01*
X84780476Y-88114285D01*
X84828095Y-88209523D01*
X77589142Y-110847142D02*
X77541523Y-110894761D01*
X77398666Y-110942380D01*
X77303428Y-110942380D01*
X77160571Y-110894761D01*
X77065333Y-110799523D01*
X77017714Y-110704285D01*
X76970095Y-110513809D01*
X76970095Y-110370952D01*
X77017714Y-110180476D01*
X77065333Y-110085238D01*
X77160571Y-109990000D01*
X77303428Y-109942380D01*
X77398666Y-109942380D01*
X77541523Y-109990000D01*
X77589142Y-110037619D01*
X78541523Y-110942380D02*
X77970095Y-110942380D01*
X78255809Y-110942380D02*
X78255809Y-109942380D01*
X78160571Y-110085238D01*
X78065333Y-110180476D01*
X77970095Y-110228095D01*
X79398666Y-109942380D02*
X79208190Y-109942380D01*
X79112952Y-109990000D01*
X79065333Y-110037619D01*
X78970095Y-110180476D01*
X78922476Y-110370952D01*
X78922476Y-110751904D01*
X78970095Y-110847142D01*
X79017714Y-110894761D01*
X79112952Y-110942380D01*
X79303428Y-110942380D01*
X79398666Y-110894761D01*
X79446285Y-110847142D01*
X79493904Y-110751904D01*
X79493904Y-110513809D01*
X79446285Y-110418571D01*
X79398666Y-110370952D01*
X79303428Y-110323333D01*
X79112952Y-110323333D01*
X79017714Y-110370952D01*
X78970095Y-110418571D01*
X78922476Y-110513809D01*
X76271380Y-95257857D02*
X75795190Y-95591190D01*
X76271380Y-95829285D02*
X75271380Y-95829285D01*
X75271380Y-95448333D01*
X75319000Y-95353095D01*
X75366619Y-95305476D01*
X75461857Y-95257857D01*
X75604714Y-95257857D01*
X75699952Y-95305476D01*
X75747571Y-95353095D01*
X75795190Y-95448333D01*
X75795190Y-95829285D01*
X76271380Y-94305476D02*
X76271380Y-94876904D01*
X76271380Y-94591190D02*
X75271380Y-94591190D01*
X75414238Y-94686428D01*
X75509476Y-94781666D01*
X75557095Y-94876904D01*
X75604714Y-93448333D02*
X76271380Y-93448333D01*
X75223761Y-93686428D02*
X75938047Y-93924523D01*
X75938047Y-93305476D01*
X86942142Y-80652857D02*
X86989761Y-80700476D01*
X87037380Y-80843333D01*
X87037380Y-80938571D01*
X86989761Y-81081428D01*
X86894523Y-81176666D01*
X86799285Y-81224285D01*
X86608809Y-81271904D01*
X86465952Y-81271904D01*
X86275476Y-81224285D01*
X86180238Y-81176666D01*
X86085000Y-81081428D01*
X86037380Y-80938571D01*
X86037380Y-80843333D01*
X86085000Y-80700476D01*
X86132619Y-80652857D01*
X86132619Y-80271904D02*
X86085000Y-80224285D01*
X86037380Y-80129047D01*
X86037380Y-79890952D01*
X86085000Y-79795714D01*
X86132619Y-79748095D01*
X86227857Y-79700476D01*
X86323095Y-79700476D01*
X86465952Y-79748095D01*
X87037380Y-80319523D01*
X87037380Y-79700476D01*
X86037380Y-78843333D02*
X86037380Y-79033809D01*
X86085000Y-79129047D01*
X86132619Y-79176666D01*
X86275476Y-79271904D01*
X86465952Y-79319523D01*
X86846904Y-79319523D01*
X86942142Y-79271904D01*
X86989761Y-79224285D01*
X87037380Y-79129047D01*
X87037380Y-78938571D01*
X86989761Y-78843333D01*
X86942142Y-78795714D01*
X86846904Y-78748095D01*
X86608809Y-78748095D01*
X86513571Y-78795714D01*
X86465952Y-78843333D01*
X86418333Y-78938571D01*
X86418333Y-79129047D01*
X86465952Y-79224285D01*
X86513571Y-79271904D01*
X86608809Y-79319523D01*
D12*
X86615000Y-97308641D02*
X86615000Y-97001359D01*
X87375000Y-97308641D02*
X87375000Y-97001359D01*
X81387836Y-98150000D02*
X81172164Y-98150000D01*
X81387836Y-97430000D02*
X81172164Y-97430000D01*
X100567258Y-109107500D02*
X100092742Y-109107500D01*
X100567258Y-108062500D02*
X100092742Y-108062500D01*
X87476359Y-101980000D02*
X87783641Y-101980000D01*
X87476359Y-101220000D02*
X87783641Y-101220000D01*
X99835580Y-95760000D02*
X99554420Y-95760000D01*
X99835580Y-94740000D02*
X99554420Y-94740000D01*
X99835580Y-87755000D02*
X99554420Y-87755000D01*
X99835580Y-88775000D02*
X99554420Y-88775000D01*
X81387836Y-110850000D02*
X81172164Y-110850000D01*
X81387836Y-110130000D02*
X81172164Y-110130000D01*
X80504420Y-90807000D02*
X80785580Y-90807000D01*
X80504420Y-89787000D02*
X80785580Y-89787000D01*
X74550000Y-97308641D02*
X74550000Y-97001359D01*
X75310000Y-97308641D02*
X75310000Y-97001359D01*
X84075000Y-97308641D02*
X84075000Y-97001359D01*
X84835000Y-97308641D02*
X84835000Y-97001359D01*
X77725000Y-77623641D02*
X77725000Y-77316359D01*
X78485000Y-77623641D02*
X78485000Y-77316359D01*
X80537164Y-89260000D02*
X80752836Y-89260000D01*
X80537164Y-88540000D02*
X80752836Y-88540000D01*
X84965000Y-83044420D02*
X84965000Y-83325580D01*
X83945000Y-83044420D02*
X83945000Y-83325580D01*
X87375000Y-106833641D02*
X87375000Y-106526359D01*
X86615000Y-106833641D02*
X86615000Y-106526359D01*
X100824420Y-99820000D02*
X101105580Y-99820000D01*
X100824420Y-100840000D02*
X101105580Y-100840000D01*
X85790000Y-113618000D02*
X85790000Y-111118000D01*
X85790000Y-111118000D02*
X86840000Y-111118000D01*
X86960000Y-115588000D02*
X90840000Y-115588000D01*
X92010000Y-113618000D02*
X92010000Y-111118000D01*
X86840000Y-111118000D02*
X86840000Y-110128000D01*
X92010000Y-111118000D02*
X90960000Y-111118000D01*
X80537164Y-96880000D02*
X80752836Y-96880000D01*
X80537164Y-96160000D02*
X80752836Y-96160000D01*
X75990000Y-83820000D02*
X75990000Y-86020000D01*
X82760000Y-83820000D02*
X82760000Y-80220000D01*
X82760000Y-83820000D02*
X82760000Y-86020000D01*
X75990000Y-83820000D02*
X75990000Y-81620000D01*
X79234420Y-111885000D02*
X79515580Y-111885000D01*
X79234420Y-112905000D02*
X79515580Y-112905000D01*
X96010000Y-92850580D02*
X96010000Y-92569420D01*
X97030000Y-92850580D02*
X97030000Y-92569420D01*
X82910000Y-78072836D02*
X82910000Y-77857164D01*
X82190000Y-78072836D02*
X82190000Y-77857164D01*
X99695000Y-84165000D02*
X100345000Y-84165000D01*
X99695000Y-84165000D02*
X98020000Y-84165000D01*
X99695000Y-87285000D02*
X99045000Y-87285000D01*
X99695000Y-87285000D02*
X100345000Y-87285000D01*
X96580000Y-102810000D02*
X96580000Y-104140000D01*
X93920000Y-105410000D02*
X93920000Y-115630000D01*
X93920000Y-105410000D02*
X96580000Y-105410000D01*
X95250000Y-102810000D02*
X96580000Y-102810000D01*
X93920000Y-115630000D02*
X96580000Y-115630000D01*
X96580000Y-105410000D02*
X96580000Y-115630000D01*
X78360000Y-97001359D02*
X78360000Y-97308641D01*
X79120000Y-97001359D02*
X79120000Y-97308641D01*
X97730000Y-110430000D02*
X97730000Y-115630000D01*
X97730000Y-110430000D02*
X100330000Y-110430000D01*
X100330000Y-110430000D02*
X100330000Y-113030000D01*
X97730000Y-115630000D02*
X102930000Y-115630000D01*
X102930000Y-113030000D02*
X102930000Y-115630000D01*
X101600000Y-110430000D02*
X102930000Y-110430000D01*
X100330000Y-113030000D02*
X102930000Y-113030000D01*
X102930000Y-110430000D02*
X102930000Y-111760000D01*
X75705580Y-76833000D02*
X75424420Y-76833000D01*
X75705580Y-77853000D02*
X75424420Y-77853000D01*
X83707500Y-110092258D02*
X83707500Y-109617742D01*
X82662500Y-110092258D02*
X82662500Y-109617742D01*
X83564000Y-78105580D02*
X83564000Y-77824420D01*
X84584000Y-78105580D02*
X84584000Y-77824420D01*
X79774622Y-114860000D02*
X78975378Y-114860000D01*
X79774622Y-113740000D02*
X78975378Y-113740000D01*
X85345000Y-97001359D02*
X85345000Y-97308641D01*
X86105000Y-97001359D02*
X86105000Y-97308641D01*
X87905000Y-106787836D02*
X87905000Y-106572164D01*
X88625000Y-106787836D02*
X88625000Y-106572164D01*
X96010000Y-85865580D02*
X96010000Y-85584420D01*
X97030000Y-85865580D02*
X97030000Y-85584420D01*
X101890000Y-103505000D02*
X101890000Y-102705000D01*
X101890000Y-103505000D02*
X101890000Y-104305000D01*
X98770000Y-103505000D02*
X98770000Y-102705000D01*
X98770000Y-103505000D02*
X98770000Y-105305000D01*
X77108164Y-108860000D02*
X77323836Y-108860000D01*
X77108164Y-109580000D02*
X77323836Y-109580000D01*
X89000000Y-75303748D02*
X89000000Y-75826252D01*
X87530000Y-75303748D02*
X87530000Y-75826252D01*
X76307836Y-78380000D02*
X76092164Y-78380000D01*
X76307836Y-79100000D02*
X76092164Y-79100000D01*
X100470580Y-98935000D02*
X100189420Y-98935000D01*
X100470580Y-97915000D02*
X100189420Y-97915000D01*
X77850000Y-97308641D02*
X77850000Y-97001359D01*
X77090000Y-97308641D02*
X77090000Y-97001359D01*
X80516000Y-77610580D02*
X80516000Y-77329420D01*
X81536000Y-77610580D02*
X81536000Y-77329420D01*
X87783641Y-99950000D02*
X87476359Y-99950000D01*
X87783641Y-100710000D02*
X87476359Y-100710000D01*
X87476359Y-102490000D02*
X87783641Y-102490000D01*
X87476359Y-103250000D02*
X87783641Y-103250000D01*
X74675000Y-108558359D02*
X74675000Y-108865641D01*
X73915000Y-108558359D02*
X73915000Y-108865641D01*
X82805000Y-97308641D02*
X82805000Y-97001359D01*
X83565000Y-97308641D02*
X83565000Y-97001359D01*
X75685000Y-101195000D02*
X75960000Y-101195000D01*
X75685000Y-103505000D02*
X75685000Y-101195000D01*
X75685000Y-105815000D02*
X75960000Y-105815000D01*
X85605000Y-103505000D02*
X85605000Y-105815000D01*
X75960000Y-105815000D02*
X75960000Y-107105000D01*
X85605000Y-103505000D02*
X85605000Y-101195000D01*
X85605000Y-105815000D02*
X85330000Y-105815000D01*
X75685000Y-103505000D02*
X75685000Y-105815000D01*
X85605000Y-101195000D02*
X85330000Y-101195000D01*
X82690580Y-92585000D02*
X82409420Y-92585000D01*
X82690580Y-91565000D02*
X82409420Y-91565000D01*
X79755000Y-77623641D02*
X79755000Y-77316359D01*
X78995000Y-77623641D02*
X78995000Y-77316359D01*
X100189420Y-106170000D02*
X100470580Y-106170000D01*
X100189420Y-107190000D02*
X100470580Y-107190000D01*
X99695000Y-91150000D02*
X98020000Y-91150000D01*
X99695000Y-91150000D02*
X100345000Y-91150000D01*
X99695000Y-94270000D02*
X99045000Y-94270000D01*
X99695000Y-94270000D02*
X100345000Y-94270000D01*
X81387836Y-108860000D02*
X81172164Y-108860000D01*
X81387836Y-109580000D02*
X81172164Y-109580000D01*
X83077164Y-89260000D02*
X83292836Y-89260000D01*
X83077164Y-88540000D02*
X83292836Y-88540000D01*
X79140164Y-108860000D02*
X79355836Y-108860000D01*
X79140164Y-109580000D02*
X79355836Y-109580000D01*
X76580000Y-97308641D02*
X76580000Y-97001359D01*
X75820000Y-97308641D02*
X75820000Y-97001359D01*
X89000000Y-81541252D02*
X89000000Y-81018748D01*
X87530000Y-81541252D02*
X87530000Y-81018748D01*
%LPC*%
D13*
X86995000Y-97665000D03*
X86995000Y-96645000D03*
D14*
X81760000Y-97790000D03*
X80800000Y-97790000D03*
D15*
X101155000Y-108585000D03*
X99505000Y-108585000D03*
D16*
X87120000Y-101600000D03*
X88140000Y-101600000D03*
D17*
X100470000Y-95250000D03*
X98920000Y-95250000D03*
X100470000Y-88265000D03*
X98920000Y-88265000D03*
D14*
X81760000Y-110490000D03*
X80800000Y-110490000D03*
D18*
X79870000Y-90297000D03*
X81420000Y-90297000D03*
D13*
X74930000Y-97665000D03*
X74930000Y-96645000D03*
X84455000Y-97665000D03*
X84455000Y-96645000D03*
X78105000Y-77980000D03*
X78105000Y-76960000D03*
D19*
X80165000Y-88900000D03*
X81125000Y-88900000D03*
D20*
X84455000Y-82410000D03*
X84455000Y-83960000D03*
D13*
X86995000Y-107190000D03*
X86995000Y-106170000D03*
D18*
X100190000Y-100330000D03*
X101740000Y-100330000D03*
D21*
X87400000Y-110903000D03*
X88400000Y-110903000D03*
X89400000Y-110903000D03*
X90400000Y-110903000D03*
D22*
X91700000Y-114778000D03*
X86100000Y-114778000D03*
D19*
X80165000Y-96520000D03*
X81125000Y-96520000D03*
D23*
X82300000Y-80957500D03*
X81650000Y-80957500D03*
X81000000Y-80957500D03*
X80350000Y-80957500D03*
X79700000Y-80957500D03*
X79050000Y-80957500D03*
X78400000Y-80957500D03*
X77750000Y-80957500D03*
X77100000Y-80957500D03*
X76450000Y-80957500D03*
X76450000Y-86682500D03*
X77100000Y-86682500D03*
X77750000Y-86682500D03*
X78400000Y-86682500D03*
X79050000Y-86682500D03*
X79700000Y-86682500D03*
X80350000Y-86682500D03*
X81000000Y-86682500D03*
X81650000Y-86682500D03*
X82300000Y-86682500D03*
D18*
X78600000Y-112395000D03*
X80150000Y-112395000D03*
D24*
X96520000Y-93485000D03*
X96520000Y-91935000D03*
D25*
X82550000Y-78445000D03*
X82550000Y-77485000D03*
D26*
X98757500Y-84775000D03*
X98757500Y-86675000D03*
X100632500Y-85725000D03*
D27*
X95250000Y-104140000D03*
D28*
X95250000Y-106680000D03*
X95250000Y-109220000D03*
X95250000Y-111760000D03*
X95250000Y-114300000D03*
D29*
X78740000Y-96645000D03*
X78740000Y-97665000D03*
D27*
X101600000Y-111760000D03*
D28*
X99060000Y-111760000D03*
X101600000Y-114300000D03*
X99060000Y-114300000D03*
D17*
X76340000Y-77343000D03*
X74790000Y-77343000D03*
D30*
X83185000Y-110680000D03*
X83185000Y-109030000D03*
D24*
X84074000Y-78740000D03*
X84074000Y-77190000D03*
D31*
X80437500Y-114300000D03*
X78312500Y-114300000D03*
D29*
X85725000Y-96645000D03*
X85725000Y-97665000D03*
D25*
X88265000Y-107160000D03*
X88265000Y-106200000D03*
D24*
X96520000Y-86500000D03*
X96520000Y-84950000D03*
D32*
X99380000Y-104642500D03*
X100330000Y-104642500D03*
X101280000Y-104642500D03*
X101280000Y-102367500D03*
X100330000Y-102367500D03*
X99380000Y-102367500D03*
D19*
X76736000Y-109220000D03*
X77696000Y-109220000D03*
D33*
X88265000Y-74615000D03*
X88265000Y-76515000D03*
D14*
X76680000Y-78740000D03*
X75720000Y-78740000D03*
D17*
X101105000Y-98425000D03*
X99555000Y-98425000D03*
D13*
X77470000Y-97665000D03*
X77470000Y-96645000D03*
D24*
X81026000Y-78245000D03*
X81026000Y-76695000D03*
D34*
X88140000Y-100330000D03*
X87120000Y-100330000D03*
D16*
X87120000Y-102870000D03*
X88140000Y-102870000D03*
D29*
X74295000Y-108202000D03*
X74295000Y-109222000D03*
D13*
X83185000Y-97665000D03*
X83185000Y-96645000D03*
D35*
X76420000Y-106367500D03*
X77070000Y-106367500D03*
X77720000Y-106367500D03*
X78370000Y-106367500D03*
X79020000Y-106367500D03*
X79670000Y-106367500D03*
X80320000Y-106367500D03*
X80970000Y-106367500D03*
X81620000Y-106367500D03*
X82270000Y-106367500D03*
X82920000Y-106367500D03*
X83570000Y-106367500D03*
X84220000Y-106367500D03*
X84870000Y-106367500D03*
X84870000Y-100642500D03*
X84220000Y-100642500D03*
X83570000Y-100642500D03*
X82920000Y-100642500D03*
X82270000Y-100642500D03*
X81620000Y-100642500D03*
X80970000Y-100642500D03*
X80320000Y-100642500D03*
X79670000Y-100642500D03*
X79020000Y-100642500D03*
X78370000Y-100642500D03*
X77720000Y-100642500D03*
X77070000Y-100642500D03*
X76420000Y-100642500D03*
D17*
X83325000Y-92075000D03*
X81775000Y-92075000D03*
D13*
X79375000Y-77980000D03*
X79375000Y-76960000D03*
D18*
X99555000Y-106680000D03*
X101105000Y-106680000D03*
D26*
X98757500Y-91760000D03*
X98757500Y-93660000D03*
X100632500Y-92710000D03*
D14*
X81760000Y-109220000D03*
X80800000Y-109220000D03*
D19*
X82705000Y-88900000D03*
X83665000Y-88900000D03*
X78768000Y-109220000D03*
X79728000Y-109220000D03*
D13*
X76200000Y-97665000D03*
X76200000Y-96645000D03*
D36*
X88265000Y-82230000D03*
X88265000Y-80330000D03*
D37*
X90805000Y-99060000D03*
X90805000Y-96520000D03*
X90805000Y-82550000D03*
X90805000Y-80010000D03*
X90805000Y-77470000D03*
X90805000Y-74930000D03*
D27*
X92710000Y-90805000D03*
D28*
X92710000Y-88265000D03*
D27*
X74295000Y-114300000D03*
D28*
X74295000Y-111760000D03*
M02*
