G04 #@! TF.GenerationSoftware,KiCad,Pcbnew,6.0.2+dfsg-1*
G04 #@! TF.CreationDate,2023-04-26T20:37:37-05:00*
G04 #@! TF.ProjectId,dac-attack,6461632d-6174-4746-9163-6b2e6b696361,2023a*
G04 #@! TF.SameCoordinates,Original*
G04 #@! TF.FileFunction,Copper,L2,Bot*
G04 #@! TF.FilePolarity,Positive*
%FSLAX46Y46*%
G04 Gerber Fmt 4.6, Leading zero omitted, Abs format (unit mm)*
G04 Created by KiCad (PCBNEW 6.0.2+dfsg-1) date 2023-04-26 20:37:37*
%MOMM*%
%LPD*%
G01*
G04 APERTURE LIST*
G04 #@! TA.AperFunction,ComponentPad*
%ADD10R,1.700000X1.700000*%
G04 #@! TD*
G04 #@! TA.AperFunction,ComponentPad*
%ADD11O,1.700000X1.700000*%
G04 #@! TD*
G04 #@! TA.AperFunction,ComponentPad*
%ADD12C,1.854200*%
G04 #@! TD*
G04 #@! TA.AperFunction,ViaPad*
%ADD13C,0.500000*%
G04 #@! TD*
G04 #@! TA.AperFunction,Conductor*
%ADD14C,0.400000*%
G04 #@! TD*
G04 #@! TA.AperFunction,Conductor*
%ADD15C,0.200000*%
G04 #@! TD*
G04 APERTURE END LIST*
D10*
X95250000Y-104140000D03*
D11*
X95250000Y-106680000D03*
X95250000Y-109220000D03*
X95250000Y-111760000D03*
X95250000Y-114300000D03*
D10*
X101600000Y-111760000D03*
D11*
X99060000Y-111760000D03*
X101600000Y-114300000D03*
X99060000Y-114300000D03*
D12*
X90805000Y-99060000D03*
X90805000Y-96520000D03*
X90805000Y-82550000D03*
X90805000Y-80010000D03*
X90805000Y-77470000D03*
X90805000Y-74930000D03*
D10*
X92710000Y-90805000D03*
D11*
X92710000Y-88265000D03*
D10*
X74295000Y-114300000D03*
D11*
X74295000Y-111760000D03*
D13*
X79375000Y-88138000D03*
X82550000Y-76581000D03*
X74930000Y-78740000D03*
X79883000Y-110490000D03*
X78359000Y-99187000D03*
X81915000Y-88900000D03*
X98425000Y-90678000D03*
X99695000Y-83820000D03*
X96266000Y-90678000D03*
X95377000Y-91948000D03*
X75819000Y-109220000D03*
X76835000Y-82550000D03*
X78359000Y-102235000D03*
X97409000Y-89535000D03*
X81534000Y-79375000D03*
X75565000Y-83185000D03*
X97790000Y-95250000D03*
X99695000Y-82550000D03*
X100457000Y-91186000D03*
X82423000Y-90297000D03*
X86995000Y-108077000D03*
X75565000Y-80899000D03*
X97155000Y-103505000D03*
X102235000Y-106680000D03*
X97155000Y-82550000D03*
X98425000Y-83820000D03*
X88265000Y-79121000D03*
X98425000Y-89535000D03*
X97155000Y-83820000D03*
X97409000Y-90678000D03*
X96266000Y-89535000D03*
X100965000Y-82550000D03*
X88265000Y-77724000D03*
X81026000Y-75565000D03*
X100457000Y-84455000D03*
X81788000Y-88138000D03*
X98425000Y-103505000D03*
X97155000Y-104775000D03*
X78740000Y-95504000D03*
X80320000Y-108133000D03*
X95123000Y-89535000D03*
X84455000Y-95631000D03*
X77089000Y-88265000D03*
X102235000Y-103505000D03*
X78105000Y-83185000D03*
X98552000Y-85725000D03*
X81153000Y-95631000D03*
X80391000Y-99187000D03*
X80264000Y-102235000D03*
X84582000Y-88900000D03*
X98425000Y-104775000D03*
X81280000Y-112395000D03*
X89027000Y-100330000D03*
X86233000Y-110490000D03*
X95885000Y-82550000D03*
X86995000Y-98552000D03*
X95250000Y-84963000D03*
X98425000Y-82550000D03*
X76708000Y-79629000D03*
X79375000Y-83185000D03*
X95123000Y-90678000D03*
X98552000Y-92710000D03*
X73660000Y-77343000D03*
X97790000Y-88265000D03*
X102235000Y-101473000D03*
X76200000Y-88265000D03*
X84201000Y-107823000D03*
X80772000Y-92075000D03*
X84074000Y-76073000D03*
X88265000Y-108204000D03*
X90400000Y-109244000D03*
X85090000Y-73660000D03*
X78105000Y-75438000D03*
X85725000Y-74295000D03*
X79375000Y-75438000D03*
X97917000Y-110236000D03*
X87376000Y-112522000D03*
X91440000Y-112268000D03*
X89281000Y-90805000D03*
X89281000Y-94234000D03*
D14*
X100330000Y-113030000D02*
X93980000Y-113030000D01*
X101600000Y-114300000D02*
X102870000Y-113030000D01*
X102870000Y-113030000D02*
X102870000Y-110490000D01*
X101600000Y-114300000D02*
X100330000Y-113030000D01*
X102870000Y-110490000D02*
X102235000Y-109855000D01*
X100330000Y-113030000D02*
X100330000Y-109855000D01*
X78105000Y-83185000D02*
X79375000Y-83185000D01*
D15*
X88265000Y-108204000D02*
X89305000Y-109244000D01*
X95250000Y-109220000D02*
X97790000Y-109220000D01*
X99060000Y-110490000D02*
X99060000Y-111760000D01*
X97790000Y-109220000D02*
X99060000Y-110490000D01*
X89305000Y-109244000D02*
X90400000Y-109244000D01*
X79883000Y-73660000D02*
X78105000Y-75438000D01*
X79883000Y-73660000D02*
X85090000Y-73660000D01*
X79375000Y-75438000D02*
X80200500Y-74612500D01*
X85090000Y-74295000D02*
X80518000Y-74295000D01*
X85090000Y-74295000D02*
X85725000Y-74295000D01*
X80518000Y-74295000D02*
X80200500Y-74612500D01*
X97917000Y-110236000D02*
X96393000Y-111760000D01*
X87376000Y-112522000D02*
X91186000Y-112522000D01*
X96393000Y-111760000D02*
X95250000Y-111760000D01*
X91186000Y-112522000D02*
X91440000Y-112268000D01*
X89281000Y-91694000D02*
X89281000Y-90805000D01*
X89281000Y-94234000D02*
X89281000Y-91694000D01*
G04 #@! TA.AperFunction,Conductor*
G36*
X79575359Y-72918002D02*
G01*
X79621852Y-72971658D01*
X79631956Y-73041932D01*
X79602462Y-73106512D01*
X79576023Y-73128344D01*
X79576124Y-73128476D01*
X79569571Y-73133504D01*
X79569568Y-73133506D01*
X79480937Y-73201515D01*
X79480921Y-73201529D01*
X79455566Y-73220984D01*
X79455563Y-73220987D01*
X79449013Y-73226013D01*
X79443983Y-73232568D01*
X79429548Y-73251379D01*
X79418681Y-73263770D01*
X78027233Y-74655218D01*
X77964921Y-74689244D01*
X77951313Y-74691432D01*
X77948107Y-74691769D01*
X77948100Y-74691771D01*
X77941093Y-74692507D01*
X77934422Y-74694778D01*
X77786673Y-74745075D01*
X77786670Y-74745076D01*
X77780003Y-74747346D01*
X77774005Y-74751036D01*
X77774003Y-74751037D01*
X77641065Y-74832821D01*
X77641063Y-74832823D01*
X77635066Y-74836512D01*
X77630033Y-74841441D01*
X77545658Y-74924068D01*
X77513486Y-74955573D01*
X77509675Y-74961487D01*
X77509673Y-74961489D01*
X77425121Y-75092687D01*
X77421304Y-75098610D01*
X77363103Y-75258516D01*
X77341775Y-75427343D01*
X77358381Y-75596699D01*
X77412094Y-75758167D01*
X77415741Y-75764189D01*
X77415742Y-75764191D01*
X77475965Y-75863630D01*
X77500246Y-75903723D01*
X77618455Y-76026132D01*
X77760846Y-76119310D01*
X77767450Y-76121766D01*
X77767452Y-76121767D01*
X77803844Y-76135301D01*
X77920341Y-76178626D01*
X78089015Y-76201132D01*
X78096026Y-76200494D01*
X78096030Y-76200494D01*
X78251462Y-76186348D01*
X78258483Y-76185709D01*
X78265185Y-76183531D01*
X78265187Y-76183531D01*
X78413623Y-76135301D01*
X78413626Y-76135300D01*
X78420322Y-76133124D01*
X78566490Y-76045990D01*
X78571584Y-76041139D01*
X78571588Y-76041136D01*
X78653593Y-75963043D01*
X78716718Y-75930551D01*
X78787389Y-75937344D01*
X78831122Y-75966762D01*
X78888455Y-76026132D01*
X79030846Y-76119310D01*
X79037450Y-76121766D01*
X79037452Y-76121767D01*
X79073844Y-76135301D01*
X79190341Y-76178626D01*
X79359015Y-76201132D01*
X79366026Y-76200494D01*
X79366030Y-76200494D01*
X79521462Y-76186348D01*
X79528483Y-76185709D01*
X79535185Y-76183531D01*
X79535187Y-76183531D01*
X79683623Y-76135301D01*
X79683626Y-76135300D01*
X79690322Y-76133124D01*
X79836490Y-76045990D01*
X79841584Y-76041139D01*
X79841588Y-76041136D01*
X79923593Y-75963043D01*
X79959721Y-75928639D01*
X80053891Y-75786902D01*
X80114319Y-75627825D01*
X80119668Y-75589762D01*
X80148955Y-75525088D01*
X80155347Y-75518202D01*
X80733144Y-74940405D01*
X80795456Y-74906379D01*
X80822239Y-74903500D01*
X85232019Y-74903500D01*
X85301012Y-74924068D01*
X85349157Y-74955573D01*
X85380846Y-74976310D01*
X85387450Y-74978766D01*
X85387452Y-74978767D01*
X85423844Y-74992301D01*
X85540341Y-75035626D01*
X85709015Y-75058132D01*
X85716026Y-75057494D01*
X85716030Y-75057494D01*
X85871462Y-75043348D01*
X85878483Y-75042709D01*
X85885185Y-75040531D01*
X85885187Y-75040531D01*
X86033623Y-74992301D01*
X86033626Y-74992300D01*
X86040322Y-74990124D01*
X86186490Y-74902990D01*
X86191584Y-74898139D01*
X86191588Y-74898136D01*
X86195086Y-74894805D01*
X89364910Y-74894805D01*
X89365207Y-74899957D01*
X89365207Y-74899961D01*
X89374327Y-75058132D01*
X89378499Y-75130482D01*
X89379636Y-75135528D01*
X89379637Y-75135534D01*
X89400767Y-75229292D01*
X89430398Y-75360774D01*
X89519212Y-75579498D01*
X89642558Y-75780779D01*
X89797121Y-75959212D01*
X89977925Y-76109318D01*
X90017559Y-76168219D01*
X90019057Y-76239200D01*
X89998415Y-76281626D01*
X89991152Y-76291357D01*
X89997896Y-76303686D01*
X90792188Y-77097978D01*
X90806132Y-77105592D01*
X90807965Y-77105461D01*
X90814580Y-77101210D01*
X91613285Y-76302505D01*
X91620306Y-76289648D01*
X91610048Y-76275569D01*
X91586101Y-76208733D01*
X91602090Y-76139560D01*
X91638717Y-76098795D01*
X91730583Y-76033268D01*
X91730588Y-76033264D01*
X91734795Y-76030263D01*
X91902011Y-75863630D01*
X91961880Y-75780314D01*
X92036749Y-75676124D01*
X92036753Y-75676118D01*
X92039767Y-75671923D01*
X92144362Y-75460291D01*
X92212987Y-75234418D01*
X92213662Y-75229292D01*
X92243363Y-75003691D01*
X92243364Y-75003685D01*
X92243800Y-75000369D01*
X92245520Y-74930000D01*
X92226177Y-74694726D01*
X92168667Y-74465770D01*
X92101965Y-74312366D01*
X92076595Y-74254018D01*
X92076593Y-74254015D01*
X92074535Y-74249281D01*
X91946309Y-74051074D01*
X91787432Y-73876470D01*
X91783381Y-73873271D01*
X91783377Y-73873267D01*
X91606227Y-73733362D01*
X91606223Y-73733360D01*
X91602172Y-73730160D01*
X91573165Y-73714147D01*
X91400029Y-73618572D01*
X91395502Y-73616073D01*
X91390633Y-73614349D01*
X91390629Y-73614347D01*
X91177850Y-73538998D01*
X91177846Y-73538997D01*
X91172975Y-73537272D01*
X91167882Y-73536365D01*
X91167879Y-73536364D01*
X90945653Y-73496779D01*
X90945649Y-73496779D01*
X90940565Y-73495873D01*
X90854647Y-73494823D01*
X90709684Y-73493052D01*
X90709682Y-73493052D01*
X90704514Y-73492989D01*
X90471163Y-73528697D01*
X90246776Y-73602038D01*
X90242188Y-73604426D01*
X90242184Y-73604428D01*
X90058339Y-73700132D01*
X90037381Y-73711042D01*
X90033248Y-73714145D01*
X90033245Y-73714147D01*
X89852736Y-73849677D01*
X89848601Y-73852782D01*
X89685506Y-74023451D01*
X89682592Y-74027723D01*
X89682591Y-74027724D01*
X89620164Y-74119238D01*
X89552475Y-74218467D01*
X89550299Y-74223156D01*
X89550295Y-74223162D01*
X89507056Y-74316313D01*
X89453082Y-74432591D01*
X89389996Y-74660073D01*
X89364910Y-74894805D01*
X86195086Y-74894805D01*
X86260175Y-74832821D01*
X86309721Y-74785639D01*
X86403891Y-74643902D01*
X86464319Y-74484825D01*
X86488001Y-74316313D01*
X86488299Y-74295000D01*
X86469331Y-74125892D01*
X86413368Y-73965189D01*
X86323192Y-73820879D01*
X86203286Y-73700132D01*
X86059608Y-73608951D01*
X85906245Y-73554341D01*
X85848781Y-73512647D01*
X85829521Y-73477080D01*
X85778368Y-73330189D01*
X85688192Y-73185879D01*
X85615606Y-73112784D01*
X85581799Y-73050353D01*
X85587111Y-72979555D01*
X85629856Y-72922869D01*
X85696462Y-72898290D01*
X85705012Y-72898000D01*
X102871000Y-72898000D01*
X102939121Y-72918002D01*
X102985614Y-72971658D01*
X102997000Y-73024000D01*
X102997000Y-110432553D01*
X102976998Y-110500674D01*
X102923342Y-110547167D01*
X102853068Y-110557271D01*
X102795435Y-110533379D01*
X102770794Y-110514912D01*
X102696705Y-110459385D01*
X102560316Y-110408255D01*
X102498134Y-110401500D01*
X100701866Y-110401500D01*
X100639684Y-110408255D01*
X100503295Y-110459385D01*
X100386739Y-110546739D01*
X100299385Y-110663295D01*
X100296233Y-110671703D01*
X100254919Y-110781907D01*
X100212277Y-110838671D01*
X100145716Y-110863371D01*
X100076367Y-110848163D01*
X100043743Y-110822476D01*
X99993151Y-110766875D01*
X99993142Y-110766866D01*
X99989670Y-110763051D01*
X99985619Y-110759852D01*
X99985615Y-110759848D01*
X99818414Y-110627800D01*
X99818410Y-110627798D01*
X99814359Y-110624598D01*
X99769849Y-110600027D01*
X99737560Y-110582203D01*
X99687589Y-110531770D01*
X99673531Y-110488339D01*
X99668500Y-110450121D01*
X99668500Y-110450115D01*
X99653916Y-110339338D01*
X99652838Y-110331150D01*
X99591524Y-110183125D01*
X99591524Y-110183124D01*
X99518477Y-110087928D01*
X99518474Y-110087925D01*
X99493987Y-110056013D01*
X99486023Y-110049902D01*
X99468621Y-110036548D01*
X99456230Y-110025681D01*
X98254315Y-108823766D01*
X98243448Y-108811375D01*
X98229013Y-108792563D01*
X98223987Y-108786013D01*
X98192075Y-108761526D01*
X98192072Y-108761523D01*
X98096876Y-108688476D01*
X97948851Y-108627162D01*
X97940664Y-108626084D01*
X97940663Y-108626084D01*
X97929458Y-108624609D01*
X97898262Y-108620502D01*
X97829885Y-108611500D01*
X97829882Y-108611500D01*
X97829874Y-108611499D01*
X97798189Y-108607328D01*
X97790000Y-108606250D01*
X97758307Y-108610422D01*
X97741864Y-108611500D01*
X96542978Y-108611500D01*
X96474857Y-108591498D01*
X96437186Y-108553940D01*
X96432490Y-108546680D01*
X96330014Y-108388277D01*
X96179670Y-108223051D01*
X96175619Y-108219852D01*
X96175615Y-108219848D01*
X96008414Y-108087800D01*
X96008410Y-108087798D01*
X96004359Y-108084598D01*
X95963053Y-108061796D01*
X95913084Y-108011364D01*
X95898312Y-107941921D01*
X95923428Y-107875516D01*
X95950780Y-107848909D01*
X95994603Y-107817650D01*
X96129860Y-107721173D01*
X96288096Y-107563489D01*
X96347594Y-107480689D01*
X96415435Y-107386277D01*
X96418453Y-107382077D01*
X96517430Y-107181811D01*
X96582370Y-106968069D01*
X96611529Y-106746590D01*
X96613156Y-106680000D01*
X96594852Y-106457361D01*
X96540431Y-106240702D01*
X96451354Y-106035840D01*
X96330014Y-105848277D01*
X96326540Y-105844459D01*
X96326533Y-105844450D01*
X96182435Y-105686088D01*
X96151383Y-105622242D01*
X96159779Y-105551744D01*
X96204956Y-105496976D01*
X96231400Y-105483307D01*
X96338052Y-105443325D01*
X96353649Y-105434786D01*
X96455724Y-105358285D01*
X96468285Y-105345724D01*
X96544786Y-105243649D01*
X96553324Y-105228054D01*
X96598478Y-105107606D01*
X96602105Y-105092351D01*
X96607631Y-105041486D01*
X96608000Y-105034672D01*
X96608000Y-104412115D01*
X96603525Y-104396876D01*
X96602135Y-104395671D01*
X96594452Y-104394000D01*
X93910116Y-104394000D01*
X93894877Y-104398475D01*
X93893672Y-104399865D01*
X93892001Y-104407548D01*
X93892001Y-105034669D01*
X93892371Y-105041490D01*
X93897895Y-105092352D01*
X93901521Y-105107604D01*
X93946676Y-105228054D01*
X93955214Y-105243649D01*
X94031715Y-105345724D01*
X94044276Y-105358285D01*
X94146351Y-105434786D01*
X94161946Y-105443324D01*
X94270827Y-105484142D01*
X94327591Y-105526784D01*
X94352291Y-105593345D01*
X94337083Y-105662694D01*
X94317691Y-105689175D01*
X94194200Y-105818401D01*
X94190629Y-105822138D01*
X94064743Y-106006680D01*
X93970688Y-106209305D01*
X93910989Y-106424570D01*
X93887251Y-106646695D01*
X93887548Y-106651848D01*
X93887548Y-106651851D01*
X93893011Y-106746590D01*
X93900110Y-106869715D01*
X93901247Y-106874761D01*
X93901248Y-106874767D01*
X93921119Y-106962939D01*
X93949222Y-107087639D01*
X94033266Y-107294616D01*
X94035965Y-107299020D01*
X94133247Y-107457770D01*
X94149987Y-107485088D01*
X94296250Y-107653938D01*
X94468126Y-107796632D01*
X94538595Y-107837811D01*
X94541445Y-107839476D01*
X94590169Y-107891114D01*
X94603240Y-107960897D01*
X94576509Y-108026669D01*
X94536055Y-108060027D01*
X94523607Y-108066507D01*
X94519474Y-108069610D01*
X94519471Y-108069612D01*
X94444814Y-108125666D01*
X94344965Y-108200635D01*
X94190629Y-108362138D01*
X94064743Y-108546680D01*
X94043939Y-108591498D01*
X94000391Y-108685316D01*
X93970688Y-108749305D01*
X93910989Y-108964570D01*
X93887251Y-109186695D01*
X93887548Y-109191848D01*
X93887548Y-109191851D01*
X93891556Y-109261366D01*
X93900110Y-109409715D01*
X93901247Y-109414761D01*
X93901248Y-109414767D01*
X93907028Y-109440414D01*
X93949222Y-109627639D01*
X93990286Y-109728768D01*
X94030783Y-109828500D01*
X94033266Y-109834616D01*
X94056829Y-109873068D01*
X94138984Y-110007132D01*
X94149987Y-110025088D01*
X94296250Y-110193938D01*
X94468126Y-110336632D01*
X94472757Y-110339338D01*
X94541445Y-110379476D01*
X94590169Y-110431114D01*
X94603240Y-110500897D01*
X94576509Y-110566669D01*
X94536055Y-110600027D01*
X94523607Y-110606507D01*
X94519474Y-110609610D01*
X94519471Y-110609612D01*
X94349100Y-110737530D01*
X94344965Y-110740635D01*
X94305525Y-110781907D01*
X94251280Y-110838671D01*
X94190629Y-110902138D01*
X94064743Y-111086680D01*
X93970688Y-111289305D01*
X93910989Y-111504570D01*
X93887251Y-111726695D01*
X93887548Y-111731848D01*
X93887548Y-111731851D01*
X93893768Y-111839729D01*
X93900110Y-111949715D01*
X93901247Y-111954761D01*
X93901248Y-111954767D01*
X93919251Y-112034648D01*
X93949222Y-112167639D01*
X93998628Y-112289313D01*
X94025460Y-112355391D01*
X94033266Y-112374616D01*
X94070685Y-112435678D01*
X94147291Y-112560688D01*
X94149987Y-112565088D01*
X94296250Y-112733938D01*
X94468126Y-112876632D01*
X94473195Y-112879594D01*
X94541445Y-112919476D01*
X94590169Y-112971114D01*
X94603240Y-113040897D01*
X94576509Y-113106669D01*
X94536055Y-113140027D01*
X94523607Y-113146507D01*
X94519474Y-113149610D01*
X94519471Y-113149612D01*
X94359517Y-113269709D01*
X94344965Y-113280635D01*
X94190629Y-113442138D01*
X94064743Y-113626680D01*
X93970688Y-113829305D01*
X93910989Y-114044570D01*
X93887251Y-114266695D01*
X93887548Y-114271848D01*
X93887548Y-114271851D01*
X93893011Y-114366590D01*
X93900110Y-114489715D01*
X93901247Y-114494761D01*
X93901248Y-114494767D01*
X93921119Y-114582939D01*
X93949222Y-114707639D01*
X94033266Y-114914616D01*
X94149987Y-115105088D01*
X94296250Y-115273938D01*
X94468126Y-115416632D01*
X94529744Y-115452639D01*
X94546127Y-115462212D01*
X94594851Y-115513851D01*
X94607922Y-115583634D01*
X94581191Y-115649405D01*
X94523144Y-115690284D01*
X94482557Y-115697000D01*
X75622447Y-115697000D01*
X75554326Y-115676998D01*
X75507833Y-115623342D01*
X75497729Y-115553068D01*
X75521621Y-115495435D01*
X75578724Y-115419242D01*
X75595615Y-115396705D01*
X75646745Y-115260316D01*
X75653500Y-115198134D01*
X75653500Y-113401866D01*
X75646745Y-113339684D01*
X75595615Y-113203295D01*
X75508261Y-113086739D01*
X75391705Y-112999385D01*
X75357657Y-112986621D01*
X75273203Y-112954960D01*
X75216439Y-112912318D01*
X75191739Y-112845756D01*
X75206947Y-112776408D01*
X75228493Y-112747727D01*
X75269124Y-112707238D01*
X75333096Y-112643489D01*
X75392594Y-112560689D01*
X75428052Y-112511343D01*
X86612775Y-112511343D01*
X86629381Y-112680699D01*
X86683094Y-112842167D01*
X86686741Y-112848189D01*
X86686742Y-112848191D01*
X86764647Y-112976826D01*
X86771246Y-112987723D01*
X86889455Y-113110132D01*
X86937844Y-113141797D01*
X87020842Y-113196109D01*
X87031846Y-113203310D01*
X87038450Y-113205766D01*
X87038452Y-113205767D01*
X87074844Y-113219301D01*
X87191341Y-113262626D01*
X87360015Y-113285132D01*
X87367026Y-113284494D01*
X87367030Y-113284494D01*
X87522462Y-113270348D01*
X87529483Y-113269709D01*
X87536185Y-113267531D01*
X87536187Y-113267531D01*
X87684623Y-113219301D01*
X87684626Y-113219300D01*
X87691322Y-113217124D01*
X87806823Y-113148271D01*
X87871341Y-113130500D01*
X91137864Y-113130500D01*
X91154307Y-113131578D01*
X91186000Y-113135750D01*
X91194189Y-113134672D01*
X91225874Y-113130501D01*
X91225884Y-113130500D01*
X91225885Y-113130500D01*
X91325457Y-113117391D01*
X91336664Y-113115916D01*
X91336666Y-113115915D01*
X91344851Y-113114838D01*
X91492876Y-113053524D01*
X91506306Y-113043219D01*
X91571587Y-113017702D01*
X91575376Y-113017357D01*
X91593483Y-113015709D01*
X91600180Y-113013533D01*
X91748623Y-112965301D01*
X91748626Y-112965300D01*
X91755322Y-112963124D01*
X91901490Y-112875990D01*
X91906584Y-112871139D01*
X91906588Y-112871136D01*
X91983882Y-112797529D01*
X92024721Y-112758639D01*
X92038939Y-112737240D01*
X92098803Y-112647137D01*
X92118891Y-112616902D01*
X92179319Y-112457825D01*
X92203001Y-112289313D01*
X92203299Y-112268000D01*
X92184331Y-112098892D01*
X92166633Y-112048069D01*
X92130686Y-111944846D01*
X92128368Y-111938189D01*
X92112941Y-111913500D01*
X92076857Y-111855755D01*
X92038192Y-111793879D01*
X92022458Y-111778034D01*
X91923248Y-111678129D01*
X91918286Y-111673132D01*
X91902039Y-111662821D01*
X91802410Y-111599595D01*
X91774608Y-111581951D01*
X91614300Y-111524868D01*
X91445329Y-111504720D01*
X91438326Y-111505456D01*
X91438325Y-111505456D01*
X91283101Y-111521770D01*
X91283097Y-111521771D01*
X91276093Y-111522507D01*
X91269422Y-111524778D01*
X91121673Y-111575075D01*
X91121670Y-111575076D01*
X91115003Y-111577346D01*
X91109005Y-111581036D01*
X91109003Y-111581037D01*
X90976065Y-111662821D01*
X90976063Y-111662823D01*
X90970066Y-111666512D01*
X90965033Y-111671441D01*
X90856185Y-111778034D01*
X90848486Y-111785573D01*
X90844674Y-111791488D01*
X90844670Y-111791493D01*
X90803256Y-111855755D01*
X90749542Y-111902180D01*
X90697345Y-111913500D01*
X87869411Y-111913500D01*
X87801897Y-111893885D01*
X87716562Y-111839729D01*
X87716558Y-111839727D01*
X87710608Y-111835951D01*
X87550300Y-111778868D01*
X87381329Y-111758720D01*
X87374326Y-111759456D01*
X87374325Y-111759456D01*
X87219101Y-111775770D01*
X87219097Y-111775771D01*
X87212093Y-111776507D01*
X87205422Y-111778778D01*
X87057673Y-111829075D01*
X87057670Y-111829076D01*
X87051003Y-111831346D01*
X87045005Y-111835036D01*
X87045003Y-111835037D01*
X86912065Y-111916821D01*
X86912063Y-111916823D01*
X86906066Y-111920512D01*
X86784486Y-112039573D01*
X86780675Y-112045487D01*
X86780673Y-112045489D01*
X86709305Y-112156230D01*
X86692304Y-112182610D01*
X86634103Y-112342516D01*
X86612775Y-112511343D01*
X75428052Y-112511343D01*
X75460435Y-112466277D01*
X75463453Y-112462077D01*
X75507910Y-112372126D01*
X75560136Y-112266453D01*
X75560137Y-112266451D01*
X75562430Y-112261811D01*
X75627370Y-112048069D01*
X75656529Y-111826590D01*
X75657387Y-111791493D01*
X75658074Y-111763365D01*
X75658074Y-111763361D01*
X75658156Y-111760000D01*
X75639852Y-111537361D01*
X75585431Y-111320702D01*
X75496354Y-111115840D01*
X75375014Y-110928277D01*
X75224670Y-110763051D01*
X75220619Y-110759852D01*
X75220615Y-110759848D01*
X75053414Y-110627800D01*
X75053410Y-110627798D01*
X75049359Y-110624598D01*
X74853789Y-110516638D01*
X74848920Y-110514914D01*
X74848916Y-110514912D01*
X74648087Y-110443795D01*
X74648083Y-110443794D01*
X74643212Y-110442069D01*
X74638119Y-110441162D01*
X74638116Y-110441161D01*
X74428373Y-110403800D01*
X74428367Y-110403799D01*
X74423284Y-110402894D01*
X74349452Y-110401992D01*
X74205081Y-110400228D01*
X74205079Y-110400228D01*
X74199911Y-110400165D01*
X73979091Y-110433955D01*
X73766756Y-110503357D01*
X73568607Y-110606507D01*
X73564474Y-110609610D01*
X73564471Y-110609612D01*
X73394100Y-110737530D01*
X73389965Y-110740635D01*
X73350525Y-110781907D01*
X73296280Y-110838671D01*
X73235629Y-110902138D01*
X73232715Y-110906410D01*
X73232714Y-110906411D01*
X73128088Y-111059787D01*
X73073177Y-111104790D01*
X73002652Y-111112961D01*
X72938905Y-111081707D01*
X72902175Y-111020950D01*
X72898000Y-110988783D01*
X72898000Y-108193343D01*
X87501775Y-108193343D01*
X87518381Y-108362699D01*
X87572094Y-108524167D01*
X87575741Y-108530189D01*
X87575742Y-108530191D01*
X87647776Y-108649132D01*
X87660246Y-108669723D01*
X87778455Y-108792132D01*
X87920846Y-108885310D01*
X87927450Y-108887766D01*
X87927452Y-108887767D01*
X88073731Y-108942168D01*
X88073733Y-108942169D01*
X88080341Y-108944626D01*
X88087326Y-108945558D01*
X88087330Y-108945559D01*
X88107710Y-108948278D01*
X88112770Y-108948953D01*
X88177648Y-108977788D01*
X88185202Y-108984751D01*
X88840685Y-109640234D01*
X88851552Y-109652625D01*
X88871013Y-109677987D01*
X88902925Y-109702474D01*
X88902928Y-109702477D01*
X88998124Y-109775524D01*
X89146149Y-109836838D01*
X89154336Y-109837916D01*
X89154337Y-109837916D01*
X89165542Y-109839391D01*
X89196738Y-109843498D01*
X89265115Y-109852500D01*
X89265118Y-109852500D01*
X89265126Y-109852501D01*
X89296811Y-109856672D01*
X89305000Y-109857750D01*
X89336693Y-109853578D01*
X89353136Y-109852500D01*
X89907019Y-109852500D01*
X89976012Y-109873068D01*
X90043812Y-109917435D01*
X90055846Y-109925310D01*
X90062450Y-109927766D01*
X90062452Y-109927767D01*
X90098844Y-109941301D01*
X90215341Y-109984626D01*
X90384015Y-110007132D01*
X90391026Y-110006494D01*
X90391030Y-110006494D01*
X90546462Y-109992348D01*
X90553483Y-109991709D01*
X90560185Y-109989531D01*
X90560187Y-109989531D01*
X90708623Y-109941301D01*
X90708626Y-109941300D01*
X90715322Y-109939124D01*
X90861490Y-109851990D01*
X90866584Y-109847139D01*
X90866588Y-109847136D01*
X90947067Y-109770496D01*
X90984721Y-109734639D01*
X91006090Y-109702477D01*
X91074990Y-109598773D01*
X91078891Y-109592902D01*
X91139319Y-109433825D01*
X91163001Y-109265313D01*
X91163299Y-109244000D01*
X91144331Y-109074892D01*
X91088368Y-108914189D01*
X91071858Y-108887767D01*
X91060420Y-108869464D01*
X90998192Y-108769879D01*
X90878286Y-108649132D01*
X90856806Y-108635500D01*
X90817289Y-108610422D01*
X90734608Y-108557951D01*
X90574300Y-108500868D01*
X90405329Y-108480720D01*
X90398326Y-108481456D01*
X90398325Y-108481456D01*
X90243101Y-108497770D01*
X90243097Y-108497771D01*
X90236093Y-108498507D01*
X90229422Y-108500778D01*
X90081673Y-108551075D01*
X90081670Y-108551076D01*
X90075003Y-108553346D01*
X90069005Y-108557036D01*
X90069003Y-108557037D01*
X89971831Y-108616818D01*
X89905809Y-108635500D01*
X89609239Y-108635500D01*
X89541118Y-108615498D01*
X89520144Y-108598595D01*
X89047215Y-108125666D01*
X89013189Y-108063354D01*
X89011095Y-108050618D01*
X89010116Y-108041890D01*
X89009331Y-108034892D01*
X89006468Y-108026669D01*
X88955686Y-107880846D01*
X88953368Y-107874189D01*
X88947383Y-107864610D01*
X88902839Y-107793327D01*
X88863192Y-107729879D01*
X88743286Y-107609132D01*
X88727039Y-107598821D01*
X88688406Y-107574304D01*
X88599608Y-107517951D01*
X88439300Y-107460868D01*
X88270329Y-107440720D01*
X88263326Y-107441456D01*
X88263325Y-107441456D01*
X88108101Y-107457770D01*
X88108097Y-107457771D01*
X88101093Y-107458507D01*
X88094422Y-107460778D01*
X87946673Y-107511075D01*
X87946670Y-107511076D01*
X87940003Y-107513346D01*
X87934005Y-107517036D01*
X87934003Y-107517037D01*
X87801065Y-107598821D01*
X87801063Y-107598823D01*
X87795066Y-107602512D01*
X87673486Y-107721573D01*
X87581304Y-107864610D01*
X87523103Y-108024516D01*
X87501775Y-108193343D01*
X72898000Y-108193343D01*
X72898000Y-103867885D01*
X93892000Y-103867885D01*
X93896475Y-103883124D01*
X93897865Y-103884329D01*
X93905548Y-103886000D01*
X94977885Y-103886000D01*
X94993124Y-103881525D01*
X94994329Y-103880135D01*
X94996000Y-103872452D01*
X94996000Y-103867885D01*
X95504000Y-103867885D01*
X95508475Y-103883124D01*
X95509865Y-103884329D01*
X95517548Y-103886000D01*
X96589884Y-103886000D01*
X96605123Y-103881525D01*
X96606328Y-103880135D01*
X96607999Y-103872452D01*
X96607999Y-103245331D01*
X96607629Y-103238510D01*
X96602105Y-103187648D01*
X96598479Y-103172396D01*
X96553324Y-103051946D01*
X96544786Y-103036351D01*
X96468285Y-102934276D01*
X96455724Y-102921715D01*
X96353649Y-102845214D01*
X96338054Y-102836676D01*
X96217606Y-102791522D01*
X96202351Y-102787895D01*
X96151486Y-102782369D01*
X96144672Y-102782000D01*
X95522115Y-102782000D01*
X95506876Y-102786475D01*
X95505671Y-102787865D01*
X95504000Y-102795548D01*
X95504000Y-103867885D01*
X94996000Y-103867885D01*
X94996000Y-102800116D01*
X94991525Y-102784877D01*
X94990135Y-102783672D01*
X94982452Y-102782001D01*
X94355331Y-102782001D01*
X94348510Y-102782371D01*
X94297648Y-102787895D01*
X94282396Y-102791521D01*
X94161946Y-102836676D01*
X94146351Y-102845214D01*
X94044276Y-102921715D01*
X94031715Y-102934276D01*
X93955214Y-103036351D01*
X93946676Y-103051946D01*
X93901522Y-103172394D01*
X93897895Y-103187649D01*
X93892369Y-103238514D01*
X93892000Y-103245328D01*
X93892000Y-103867885D01*
X72898000Y-103867885D01*
X72898000Y-100241219D01*
X89988611Y-100241219D01*
X89993892Y-100248273D01*
X90178328Y-100356048D01*
X90187615Y-100360498D01*
X90398417Y-100440995D01*
X90408315Y-100443871D01*
X90629435Y-100488858D01*
X90639663Y-100490077D01*
X90865160Y-100498347D01*
X90875446Y-100497880D01*
X91099266Y-100469207D01*
X91109351Y-100467064D01*
X91325486Y-100402220D01*
X91335063Y-100398467D01*
X91537713Y-100299190D01*
X91546558Y-100293917D01*
X91609526Y-100249002D01*
X91617927Y-100238302D01*
X91610939Y-100225149D01*
X90817812Y-99432022D01*
X90803868Y-99424408D01*
X90802035Y-99424539D01*
X90795420Y-99428790D01*
X89995371Y-100228839D01*
X89988611Y-100241219D01*
X72898000Y-100241219D01*
X72898000Y-99029973D01*
X89365709Y-99029973D01*
X89378698Y-99255244D01*
X89380134Y-99265464D01*
X89429741Y-99485581D01*
X89432821Y-99495410D01*
X89517713Y-99704478D01*
X89522366Y-99713688D01*
X89615390Y-99865487D01*
X89625848Y-99874948D01*
X89634625Y-99871165D01*
X90432978Y-99072812D01*
X90439356Y-99061132D01*
X91169408Y-99061132D01*
X91169539Y-99062965D01*
X91173790Y-99069580D01*
X91970721Y-99866511D01*
X91982731Y-99873070D01*
X91994470Y-99864102D01*
X92036318Y-99805864D01*
X92041629Y-99797025D01*
X92141601Y-99594748D01*
X92145399Y-99585155D01*
X92210993Y-99369258D01*
X92213171Y-99359185D01*
X92242862Y-99133663D01*
X92243381Y-99126995D01*
X92244936Y-99063365D01*
X92244742Y-99056646D01*
X92226106Y-98829969D01*
X92224421Y-98819789D01*
X92169451Y-98600944D01*
X92166131Y-98591193D01*
X92076153Y-98384255D01*
X92071286Y-98375180D01*
X91993823Y-98255440D01*
X91983137Y-98246236D01*
X91973570Y-98250640D01*
X91177022Y-99047188D01*
X91169408Y-99061132D01*
X90439356Y-99061132D01*
X90440592Y-99058868D01*
X90440461Y-99057035D01*
X90436210Y-99050420D01*
X89639364Y-98253574D01*
X89627828Y-98247274D01*
X89615546Y-98256897D01*
X89555822Y-98344450D01*
X89550736Y-98353402D01*
X89455728Y-98558078D01*
X89452174Y-98567738D01*
X89391868Y-98785195D01*
X89389941Y-98795300D01*
X89365961Y-99019684D01*
X89365709Y-99029973D01*
X72898000Y-99029973D01*
X72898000Y-96484805D01*
X89364910Y-96484805D01*
X89378499Y-96720482D01*
X89379636Y-96725528D01*
X89379637Y-96725534D01*
X89400767Y-96819292D01*
X89430398Y-96950774D01*
X89519212Y-97169498D01*
X89642558Y-97370779D01*
X89797121Y-97549212D01*
X89977925Y-97699318D01*
X90017559Y-97758219D01*
X90019057Y-97829200D01*
X89998415Y-97871626D01*
X89991152Y-97881357D01*
X89997896Y-97893686D01*
X90792188Y-98687978D01*
X90806132Y-98695592D01*
X90807965Y-98695461D01*
X90814580Y-98691210D01*
X91613285Y-97892505D01*
X91620306Y-97879648D01*
X91610048Y-97865569D01*
X91586101Y-97798733D01*
X91602090Y-97729560D01*
X91638717Y-97688795D01*
X91730583Y-97623268D01*
X91730588Y-97623264D01*
X91734795Y-97620263D01*
X91902011Y-97453630D01*
X91961546Y-97370779D01*
X92036749Y-97266124D01*
X92036753Y-97266118D01*
X92039767Y-97261923D01*
X92144362Y-97050291D01*
X92212987Y-96824418D01*
X92213662Y-96819292D01*
X92243363Y-96593691D01*
X92243364Y-96593685D01*
X92243800Y-96590369D01*
X92245520Y-96520000D01*
X92226177Y-96284726D01*
X92168667Y-96055770D01*
X92074535Y-95839281D01*
X91946309Y-95641074D01*
X91787432Y-95466470D01*
X91783381Y-95463271D01*
X91783377Y-95463267D01*
X91606227Y-95323362D01*
X91606223Y-95323360D01*
X91602172Y-95320160D01*
X91573165Y-95304147D01*
X91400029Y-95208572D01*
X91395502Y-95206073D01*
X91390633Y-95204349D01*
X91390629Y-95204347D01*
X91177850Y-95128998D01*
X91177846Y-95128997D01*
X91172975Y-95127272D01*
X91167882Y-95126365D01*
X91167879Y-95126364D01*
X90945653Y-95086779D01*
X90945649Y-95086779D01*
X90940565Y-95085873D01*
X90854647Y-95084823D01*
X90709684Y-95083052D01*
X90709682Y-95083052D01*
X90704514Y-95082989D01*
X90471163Y-95118697D01*
X90246776Y-95192038D01*
X90242188Y-95194426D01*
X90242184Y-95194428D01*
X90215014Y-95208572D01*
X90037381Y-95301042D01*
X90033248Y-95304145D01*
X90033245Y-95304147D01*
X89852736Y-95439677D01*
X89848601Y-95442782D01*
X89685506Y-95613451D01*
X89682592Y-95617723D01*
X89682591Y-95617724D01*
X89591702Y-95750962D01*
X89552475Y-95808467D01*
X89550299Y-95813156D01*
X89550295Y-95813162D01*
X89455261Y-96017896D01*
X89453082Y-96022591D01*
X89389996Y-96250073D01*
X89364910Y-96484805D01*
X72898000Y-96484805D01*
X72898000Y-94223343D01*
X88517775Y-94223343D01*
X88534381Y-94392699D01*
X88588094Y-94554167D01*
X88591741Y-94560189D01*
X88591742Y-94560191D01*
X88605497Y-94582902D01*
X88676246Y-94699723D01*
X88794455Y-94822132D01*
X88936846Y-94915310D01*
X88943450Y-94917766D01*
X88943452Y-94917767D01*
X88979844Y-94931301D01*
X89096341Y-94974626D01*
X89265015Y-94997132D01*
X89272026Y-94996494D01*
X89272030Y-94996494D01*
X89427462Y-94982348D01*
X89434483Y-94981709D01*
X89441185Y-94979531D01*
X89441187Y-94979531D01*
X89589623Y-94931301D01*
X89589626Y-94931300D01*
X89596322Y-94929124D01*
X89742490Y-94841990D01*
X89747584Y-94837139D01*
X89747588Y-94837136D01*
X89814833Y-94773099D01*
X89865721Y-94724639D01*
X89959891Y-94582902D01*
X90020319Y-94423825D01*
X90044001Y-94255313D01*
X90044299Y-94234000D01*
X90025331Y-94064892D01*
X89969368Y-93904189D01*
X89908645Y-93807013D01*
X89889500Y-93740245D01*
X89889500Y-91703134D01*
X91351500Y-91703134D01*
X91358255Y-91765316D01*
X91409385Y-91901705D01*
X91496739Y-92018261D01*
X91613295Y-92105615D01*
X91749684Y-92156745D01*
X91811866Y-92163500D01*
X93608134Y-92163500D01*
X93670316Y-92156745D01*
X93806705Y-92105615D01*
X93923261Y-92018261D01*
X94010615Y-91901705D01*
X94061745Y-91765316D01*
X94068500Y-91703134D01*
X94068500Y-89906866D01*
X94061745Y-89844684D01*
X94010615Y-89708295D01*
X93923261Y-89591739D01*
X93806705Y-89504385D01*
X93687687Y-89459767D01*
X93630923Y-89417125D01*
X93606223Y-89350564D01*
X93621430Y-89281215D01*
X93642977Y-89252535D01*
X93744052Y-89151812D01*
X93750730Y-89143965D01*
X93875003Y-88971020D01*
X93880313Y-88962183D01*
X93974670Y-88771267D01*
X93978469Y-88761672D01*
X94040377Y-88557910D01*
X94042555Y-88547837D01*
X94043986Y-88536962D01*
X94041775Y-88522778D01*
X94028617Y-88519000D01*
X91393225Y-88519000D01*
X91379694Y-88522973D01*
X91378257Y-88532966D01*
X91408565Y-88667446D01*
X91411645Y-88677275D01*
X91491770Y-88874603D01*
X91496413Y-88883794D01*
X91607694Y-89065388D01*
X91613777Y-89073699D01*
X91753213Y-89234667D01*
X91760577Y-89241879D01*
X91765522Y-89245985D01*
X91805156Y-89304889D01*
X91806653Y-89375870D01*
X91769537Y-89436392D01*
X91729264Y-89460910D01*
X91621705Y-89501232D01*
X91621704Y-89501233D01*
X91613295Y-89504385D01*
X91496739Y-89591739D01*
X91409385Y-89708295D01*
X91358255Y-89844684D01*
X91351500Y-89906866D01*
X91351500Y-91703134D01*
X89889500Y-91703134D01*
X89889500Y-91297890D01*
X89910552Y-91228163D01*
X89955990Y-91159773D01*
X89959891Y-91153902D01*
X90020319Y-90994825D01*
X90044001Y-90826313D01*
X90044299Y-90805000D01*
X90025331Y-90635892D01*
X89969368Y-90475189D01*
X89963383Y-90465610D01*
X89941420Y-90430464D01*
X89879192Y-90330879D01*
X89759286Y-90210132D01*
X89743039Y-90199821D01*
X89704406Y-90175304D01*
X89615608Y-90118951D01*
X89455300Y-90061868D01*
X89286329Y-90041720D01*
X89279326Y-90042456D01*
X89279325Y-90042456D01*
X89124101Y-90058770D01*
X89124097Y-90058771D01*
X89117093Y-90059507D01*
X89110422Y-90061778D01*
X88962673Y-90112075D01*
X88962670Y-90112076D01*
X88956003Y-90114346D01*
X88950005Y-90118036D01*
X88950003Y-90118037D01*
X88817065Y-90199821D01*
X88817063Y-90199823D01*
X88811066Y-90203512D01*
X88689486Y-90322573D01*
X88597304Y-90465610D01*
X88539103Y-90625516D01*
X88517775Y-90794343D01*
X88534381Y-90963699D01*
X88588094Y-91125167D01*
X88591741Y-91131189D01*
X88591742Y-91131191D01*
X88654276Y-91234447D01*
X88672500Y-91299718D01*
X88672500Y-93740846D01*
X88652411Y-93809101D01*
X88597304Y-93894610D01*
X88539103Y-94054516D01*
X88517775Y-94223343D01*
X72898000Y-94223343D01*
X72898000Y-87999183D01*
X91374389Y-87999183D01*
X91375912Y-88007607D01*
X91388292Y-88011000D01*
X92437885Y-88011000D01*
X92453124Y-88006525D01*
X92454329Y-88005135D01*
X92456000Y-87997452D01*
X92456000Y-87992885D01*
X92964000Y-87992885D01*
X92968475Y-88008124D01*
X92969865Y-88009329D01*
X92977548Y-88011000D01*
X94028344Y-88011000D01*
X94041875Y-88007027D01*
X94043180Y-87997947D01*
X94001214Y-87830875D01*
X93997894Y-87821124D01*
X93912972Y-87625814D01*
X93908105Y-87616739D01*
X93792426Y-87437926D01*
X93786136Y-87429757D01*
X93642806Y-87272240D01*
X93635273Y-87265215D01*
X93468139Y-87133222D01*
X93459552Y-87127517D01*
X93273117Y-87024599D01*
X93263705Y-87020369D01*
X93062959Y-86949280D01*
X93052988Y-86946646D01*
X92981837Y-86933972D01*
X92968540Y-86935432D01*
X92964000Y-86949989D01*
X92964000Y-87992885D01*
X92456000Y-87992885D01*
X92456000Y-86948102D01*
X92452082Y-86934758D01*
X92437806Y-86932771D01*
X92399324Y-86938660D01*
X92389288Y-86941051D01*
X92186868Y-87007212D01*
X92177359Y-87011209D01*
X91988463Y-87109542D01*
X91979738Y-87115036D01*
X91809433Y-87242905D01*
X91801726Y-87249748D01*
X91654590Y-87403717D01*
X91648104Y-87411727D01*
X91528098Y-87587649D01*
X91523000Y-87596623D01*
X91433338Y-87789783D01*
X91429775Y-87799470D01*
X91374389Y-87999183D01*
X72898000Y-87999183D01*
X72898000Y-82514805D01*
X89364910Y-82514805D01*
X89378499Y-82750482D01*
X89379636Y-82755528D01*
X89379637Y-82755534D01*
X89400767Y-82849292D01*
X89430398Y-82980774D01*
X89519212Y-83199498D01*
X89642558Y-83400779D01*
X89797121Y-83579212D01*
X89978752Y-83730005D01*
X89983204Y-83732607D01*
X89983209Y-83732610D01*
X90071740Y-83784343D01*
X90182572Y-83849108D01*
X90403108Y-83933322D01*
X90408176Y-83934353D01*
X90408179Y-83934354D01*
X90522216Y-83957555D01*
X90634437Y-83980387D01*
X90639610Y-83980577D01*
X90639613Y-83980577D01*
X90865182Y-83988848D01*
X90865186Y-83988848D01*
X90870346Y-83989037D01*
X90875466Y-83988381D01*
X90875468Y-83988381D01*
X90948676Y-83979003D01*
X91104501Y-83959041D01*
X91109450Y-83957556D01*
X91109456Y-83957555D01*
X91325662Y-83892690D01*
X91325661Y-83892690D01*
X91330612Y-83891205D01*
X91429975Y-83842527D01*
X91537957Y-83789628D01*
X91537962Y-83789625D01*
X91542608Y-83787349D01*
X91546818Y-83784346D01*
X91546823Y-83784343D01*
X91730583Y-83653268D01*
X91730588Y-83653264D01*
X91734795Y-83650263D01*
X91902011Y-83483630D01*
X91961546Y-83400779D01*
X92036749Y-83296124D01*
X92036753Y-83296118D01*
X92039767Y-83291923D01*
X92144362Y-83080291D01*
X92212987Y-82854418D01*
X92213662Y-82849292D01*
X92243363Y-82623691D01*
X92243364Y-82623685D01*
X92243800Y-82620369D01*
X92245520Y-82550000D01*
X92226177Y-82314726D01*
X92168667Y-82085770D01*
X92074535Y-81869281D01*
X91946309Y-81671074D01*
X91787432Y-81496470D01*
X91632055Y-81373760D01*
X91590992Y-81315843D01*
X91587760Y-81244920D01*
X91611043Y-81197067D01*
X91617926Y-81188301D01*
X91610939Y-81175149D01*
X90817812Y-80382022D01*
X90803868Y-80374408D01*
X90802035Y-80374539D01*
X90795420Y-80378790D01*
X89995371Y-81178839D01*
X89988611Y-81191219D01*
X89997766Y-81203449D01*
X90022577Y-81269970D01*
X90007485Y-81339344D01*
X89972552Y-81379717D01*
X89848601Y-81472782D01*
X89685506Y-81643451D01*
X89682592Y-81647723D01*
X89682591Y-81647724D01*
X89591702Y-81780962D01*
X89552475Y-81838467D01*
X89550299Y-81843156D01*
X89550295Y-81843162D01*
X89455261Y-82047896D01*
X89453082Y-82052591D01*
X89389996Y-82280073D01*
X89364910Y-82514805D01*
X72898000Y-82514805D01*
X72898000Y-79979973D01*
X89365709Y-79979973D01*
X89378698Y-80205244D01*
X89380134Y-80215464D01*
X89429741Y-80435581D01*
X89432821Y-80445410D01*
X89517713Y-80654478D01*
X89522366Y-80663688D01*
X89615390Y-80815487D01*
X89625848Y-80824948D01*
X89634625Y-80821165D01*
X90432978Y-80022812D01*
X90439356Y-80011132D01*
X91169408Y-80011132D01*
X91169539Y-80012965D01*
X91173790Y-80019580D01*
X91970721Y-80816511D01*
X91982731Y-80823070D01*
X91994470Y-80814102D01*
X92036318Y-80755864D01*
X92041629Y-80747025D01*
X92141601Y-80544748D01*
X92145399Y-80535155D01*
X92210993Y-80319258D01*
X92213171Y-80309185D01*
X92242862Y-80083663D01*
X92243381Y-80076995D01*
X92244936Y-80013365D01*
X92244742Y-80006646D01*
X92226106Y-79779969D01*
X92224421Y-79769789D01*
X92169451Y-79550944D01*
X92166131Y-79541193D01*
X92076153Y-79334255D01*
X92071286Y-79325180D01*
X91993823Y-79205440D01*
X91983137Y-79196236D01*
X91973570Y-79200640D01*
X91177022Y-79997188D01*
X91169408Y-80011132D01*
X90439356Y-80011132D01*
X90440592Y-80008868D01*
X90440461Y-80007035D01*
X90436210Y-80000420D01*
X89639364Y-79203574D01*
X89627828Y-79197274D01*
X89615546Y-79206897D01*
X89555822Y-79294450D01*
X89550736Y-79303402D01*
X89455728Y-79508078D01*
X89452174Y-79517738D01*
X89391868Y-79735195D01*
X89389941Y-79745300D01*
X89365961Y-79969684D01*
X89365709Y-79979973D01*
X72898000Y-79979973D01*
X72898000Y-78651218D01*
X89988611Y-78651218D01*
X90000767Y-78667456D01*
X90025578Y-78733977D01*
X90010487Y-78803351D01*
X90000874Y-78818332D01*
X89991152Y-78831357D01*
X89997896Y-78843686D01*
X90792188Y-79637978D01*
X90806132Y-79645592D01*
X90807965Y-79645461D01*
X90814580Y-79641210D01*
X91613285Y-78842505D01*
X91620306Y-78829648D01*
X91606757Y-78811052D01*
X91582810Y-78744216D01*
X91598799Y-78675043D01*
X91609490Y-78659047D01*
X91617926Y-78648302D01*
X91610939Y-78635149D01*
X90817812Y-77842022D01*
X90803868Y-77834408D01*
X90802035Y-77834539D01*
X90795420Y-77838790D01*
X89995371Y-78638839D01*
X89988611Y-78651218D01*
X72898000Y-78651218D01*
X72898000Y-77439973D01*
X89365709Y-77439973D01*
X89378698Y-77665244D01*
X89380134Y-77675464D01*
X89429741Y-77895581D01*
X89432821Y-77905410D01*
X89517713Y-78114478D01*
X89522366Y-78123688D01*
X89615390Y-78275487D01*
X89625848Y-78284948D01*
X89634625Y-78281165D01*
X90432978Y-77482812D01*
X90439356Y-77471132D01*
X91169408Y-77471132D01*
X91169539Y-77472965D01*
X91173790Y-77479580D01*
X91970721Y-78276511D01*
X91982731Y-78283070D01*
X91994470Y-78274102D01*
X92036318Y-78215864D01*
X92041629Y-78207025D01*
X92141601Y-78004748D01*
X92145399Y-77995155D01*
X92210993Y-77779258D01*
X92213171Y-77769185D01*
X92242862Y-77543663D01*
X92243381Y-77536995D01*
X92244936Y-77473365D01*
X92244742Y-77466646D01*
X92226106Y-77239969D01*
X92224421Y-77229789D01*
X92169451Y-77010944D01*
X92166131Y-77001193D01*
X92076153Y-76794255D01*
X92071286Y-76785180D01*
X91993823Y-76665440D01*
X91983137Y-76656236D01*
X91973570Y-76660640D01*
X91177022Y-77457188D01*
X91169408Y-77471132D01*
X90439356Y-77471132D01*
X90440592Y-77468868D01*
X90440461Y-77467035D01*
X90436210Y-77460420D01*
X89639364Y-76663574D01*
X89627828Y-76657274D01*
X89615546Y-76666897D01*
X89555822Y-76754450D01*
X89550736Y-76763402D01*
X89455728Y-76968078D01*
X89452174Y-76977738D01*
X89391868Y-77195195D01*
X89389941Y-77205300D01*
X89365961Y-77429684D01*
X89365709Y-77439973D01*
X72898000Y-77439973D01*
X72898000Y-73024000D01*
X72918002Y-72955879D01*
X72971658Y-72909386D01*
X73024000Y-72898000D01*
X79507238Y-72898000D01*
X79575359Y-72918002D01*
G37*
G04 #@! TD.AperFunction*
G04 #@! TA.AperFunction,Conductor*
G36*
X102931324Y-112976826D02*
G01*
X102981554Y-113027000D01*
X102997000Y-113087447D01*
X102997000Y-113532447D01*
X102976998Y-113600568D01*
X102923342Y-113647061D01*
X102853068Y-113657165D01*
X102788488Y-113627671D01*
X102765208Y-113600887D01*
X102682426Y-113472926D01*
X102676136Y-113464757D01*
X102532293Y-113306677D01*
X102501241Y-113242831D01*
X102509635Y-113172333D01*
X102554812Y-113117564D01*
X102581256Y-113103895D01*
X102688297Y-113063767D01*
X102696705Y-113060615D01*
X102791810Y-112989338D01*
X102795435Y-112986621D01*
X102861941Y-112961773D01*
X102931324Y-112976826D01*
G37*
G04 #@! TD.AperFunction*
G04 #@! TA.AperFunction,Conductor*
G36*
X100181268Y-112664592D02*
G01*
X100238030Y-112707238D01*
X100255012Y-112738341D01*
X100264443Y-112763498D01*
X100299385Y-112856705D01*
X100386739Y-112973261D01*
X100503295Y-113060615D01*
X100511704Y-113063767D01*
X100511705Y-113063768D01*
X100620960Y-113104726D01*
X100677725Y-113147367D01*
X100702425Y-113213929D01*
X100687218Y-113283278D01*
X100667825Y-113309759D01*
X100544590Y-113438717D01*
X100538109Y-113446722D01*
X100433498Y-113600074D01*
X100378587Y-113645076D01*
X100308062Y-113653247D01*
X100244315Y-113621993D01*
X100223618Y-113597509D01*
X100142822Y-113472617D01*
X100142820Y-113472614D01*
X100140014Y-113468277D01*
X99989670Y-113303051D01*
X99985619Y-113299852D01*
X99985615Y-113299848D01*
X99818414Y-113167800D01*
X99818410Y-113167798D01*
X99814359Y-113164598D01*
X99773053Y-113141796D01*
X99723084Y-113091364D01*
X99708312Y-113021921D01*
X99733428Y-112955516D01*
X99760780Y-112928909D01*
X99829917Y-112879594D01*
X99939860Y-112801173D01*
X100048091Y-112693319D01*
X100110462Y-112659404D01*
X100181268Y-112664592D01*
G37*
G04 #@! TD.AperFunction*
M02*
