G04 #@! TF.GenerationSoftware,KiCad,Pcbnew,6.0.2+dfsg-1*
G04 #@! TF.CreationDate,2023-04-26T20:37:38-05:00*
G04 #@! TF.ProjectId,dac-attack,6461632d-6174-4746-9163-6b2e6b696361,2023a*
G04 #@! TF.SameCoordinates,Original*
G04 #@! TF.FileFunction,Soldermask,Top*
G04 #@! TF.FilePolarity,Negative*
%FSLAX46Y46*%
G04 Gerber Fmt 4.6, Leading zero omitted, Abs format (unit mm)*
G04 Created by KiCad (PCBNEW 6.0.2+dfsg-1) date 2023-04-26 20:37:38*
%MOMM*%
%LPD*%
G01*
G04 APERTURE LIST*
G04 Aperture macros list*
%AMRoundRect*
0 Rectangle with rounded corners*
0 $1 Rounding radius*
0 $2 $3 $4 $5 $6 $7 $8 $9 X,Y pos of 4 corners*
0 Add a 4 corners polygon primitive as box body*
4,1,4,$2,$3,$4,$5,$6,$7,$8,$9,$2,$3,0*
0 Add four circle primitives for the rounded corners*
1,1,$1+$1,$2,$3*
1,1,$1+$1,$4,$5*
1,1,$1+$1,$6,$7*
1,1,$1+$1,$8,$9*
0 Add four rect primitives between the rounded corners*
20,1,$1+$1,$2,$3,$4,$5,0*
20,1,$1+$1,$4,$5,$6,$7,0*
20,1,$1+$1,$6,$7,$8,$9,0*
20,1,$1+$1,$8,$9,$2,$3,0*%
G04 Aperture macros list end*
%ADD10RoundRect,0.135000X0.185000X-0.135000X0.185000X0.135000X-0.185000X0.135000X-0.185000X-0.135000X0*%
%ADD11RoundRect,0.140000X0.140000X0.170000X-0.140000X0.170000X-0.140000X-0.170000X0.140000X-0.170000X0*%
%ADD12RoundRect,0.200000X0.200000X0.275000X-0.200000X0.275000X-0.200000X-0.275000X0.200000X-0.275000X0*%
%ADD13RoundRect,0.135000X-0.135000X-0.185000X0.135000X-0.185000X0.135000X0.185000X-0.135000X0.185000X0*%
%ADD14RoundRect,0.225000X0.225000X0.250000X-0.225000X0.250000X-0.225000X-0.250000X0.225000X-0.250000X0*%
%ADD15RoundRect,0.225000X-0.225000X-0.250000X0.225000X-0.250000X0.225000X0.250000X-0.225000X0.250000X0*%
%ADD16RoundRect,0.140000X-0.140000X-0.170000X0.140000X-0.170000X0.140000X0.170000X-0.140000X0.170000X0*%
%ADD17RoundRect,0.225000X-0.250000X0.225000X-0.250000X-0.225000X0.250000X-0.225000X0.250000X0.225000X0*%
%ADD18RoundRect,0.150000X-0.150000X-0.625000X0.150000X-0.625000X0.150000X0.625000X-0.150000X0.625000X0*%
%ADD19RoundRect,0.250000X-0.350000X-0.650000X0.350000X-0.650000X0.350000X0.650000X-0.350000X0.650000X0*%
%ADD20RoundRect,0.100000X-0.100000X0.637500X-0.100000X-0.637500X0.100000X-0.637500X0.100000X0.637500X0*%
%ADD21RoundRect,0.225000X0.250000X-0.225000X0.250000X0.225000X-0.250000X0.225000X-0.250000X-0.225000X0*%
%ADD22RoundRect,0.140000X0.170000X-0.140000X0.170000X0.140000X-0.170000X0.140000X-0.170000X-0.140000X0*%
%ADD23RoundRect,0.150000X-0.587500X-0.150000X0.587500X-0.150000X0.587500X0.150000X-0.587500X0.150000X0*%
%ADD24R,1.700000X1.700000*%
%ADD25O,1.700000X1.700000*%
%ADD26RoundRect,0.135000X-0.185000X0.135000X-0.185000X-0.135000X0.185000X-0.135000X0.185000X0.135000X0*%
%ADD27RoundRect,0.200000X0.275000X-0.200000X0.275000X0.200000X-0.275000X0.200000X-0.275000X-0.200000X0*%
%ADD28RoundRect,0.218750X0.218750X0.381250X-0.218750X0.381250X-0.218750X-0.381250X0.218750X-0.381250X0*%
%ADD29RoundRect,0.150000X0.150000X-0.512500X0.150000X0.512500X-0.150000X0.512500X-0.150000X-0.512500X0*%
%ADD30RoundRect,0.250000X-0.475000X0.250000X-0.475000X-0.250000X0.475000X-0.250000X0.475000X0.250000X0*%
%ADD31RoundRect,0.135000X0.135000X0.185000X-0.135000X0.185000X-0.135000X-0.185000X0.135000X-0.185000X0*%
%ADD32RoundRect,0.100000X0.100000X-0.637500X0.100000X0.637500X-0.100000X0.637500X-0.100000X-0.637500X0*%
%ADD33RoundRect,0.250000X0.475000X-0.250000X0.475000X0.250000X-0.475000X0.250000X-0.475000X-0.250000X0*%
%ADD34C,1.854200*%
G04 APERTURE END LIST*
D10*
X86995000Y-97665000D03*
X86995000Y-96645000D03*
D11*
X81760000Y-97790000D03*
X80800000Y-97790000D03*
D12*
X101155000Y-108585000D03*
X99505000Y-108585000D03*
D13*
X87120000Y-101600000D03*
X88140000Y-101600000D03*
D14*
X100470000Y-95250000D03*
X98920000Y-95250000D03*
X100470000Y-88265000D03*
X98920000Y-88265000D03*
D11*
X81760000Y-110490000D03*
X80800000Y-110490000D03*
D15*
X79870000Y-90297000D03*
X81420000Y-90297000D03*
D10*
X74930000Y-97665000D03*
X74930000Y-96645000D03*
X84455000Y-97665000D03*
X84455000Y-96645000D03*
X78105000Y-77980000D03*
X78105000Y-76960000D03*
D16*
X80165000Y-88900000D03*
X81125000Y-88900000D03*
D17*
X84455000Y-82410000D03*
X84455000Y-83960000D03*
D10*
X86995000Y-107190000D03*
X86995000Y-106170000D03*
D15*
X100190000Y-100330000D03*
X101740000Y-100330000D03*
D18*
X87400000Y-110903000D03*
X88400000Y-110903000D03*
X89400000Y-110903000D03*
X90400000Y-110903000D03*
D19*
X91700000Y-114778000D03*
X86100000Y-114778000D03*
D16*
X80165000Y-96520000D03*
X81125000Y-96520000D03*
D20*
X82300000Y-80957500D03*
X81650000Y-80957500D03*
X81000000Y-80957500D03*
X80350000Y-80957500D03*
X79700000Y-80957500D03*
X79050000Y-80957500D03*
X78400000Y-80957500D03*
X77750000Y-80957500D03*
X77100000Y-80957500D03*
X76450000Y-80957500D03*
X76450000Y-86682500D03*
X77100000Y-86682500D03*
X77750000Y-86682500D03*
X78400000Y-86682500D03*
X79050000Y-86682500D03*
X79700000Y-86682500D03*
X80350000Y-86682500D03*
X81000000Y-86682500D03*
X81650000Y-86682500D03*
X82300000Y-86682500D03*
D15*
X78600000Y-112395000D03*
X80150000Y-112395000D03*
D21*
X96520000Y-93485000D03*
X96520000Y-91935000D03*
D22*
X82550000Y-78445000D03*
X82550000Y-77485000D03*
D23*
X98757500Y-84775000D03*
X98757500Y-86675000D03*
X100632500Y-85725000D03*
D24*
X95250000Y-104140000D03*
D25*
X95250000Y-106680000D03*
X95250000Y-109220000D03*
X95250000Y-111760000D03*
X95250000Y-114300000D03*
D26*
X78740000Y-96645000D03*
X78740000Y-97665000D03*
D24*
X101600000Y-111760000D03*
D25*
X99060000Y-111760000D03*
X101600000Y-114300000D03*
X99060000Y-114300000D03*
D14*
X76340000Y-77343000D03*
X74790000Y-77343000D03*
D27*
X83185000Y-110680000D03*
X83185000Y-109030000D03*
D21*
X84074000Y-78740000D03*
X84074000Y-77190000D03*
D28*
X80437500Y-114300000D03*
X78312500Y-114300000D03*
D26*
X85725000Y-96645000D03*
X85725000Y-97665000D03*
D22*
X88265000Y-107160000D03*
X88265000Y-106200000D03*
D21*
X96520000Y-86500000D03*
X96520000Y-84950000D03*
D29*
X99380000Y-104642500D03*
X100330000Y-104642500D03*
X101280000Y-104642500D03*
X101280000Y-102367500D03*
X100330000Y-102367500D03*
X99380000Y-102367500D03*
D16*
X76736000Y-109220000D03*
X77696000Y-109220000D03*
D30*
X88265000Y-74615000D03*
X88265000Y-76515000D03*
D11*
X76680000Y-78740000D03*
X75720000Y-78740000D03*
D14*
X101105000Y-98425000D03*
X99555000Y-98425000D03*
D10*
X77470000Y-97665000D03*
X77470000Y-96645000D03*
D21*
X81026000Y-78245000D03*
X81026000Y-76695000D03*
D31*
X88140000Y-100330000D03*
X87120000Y-100330000D03*
D13*
X87120000Y-102870000D03*
X88140000Y-102870000D03*
D26*
X74295000Y-108202000D03*
X74295000Y-109222000D03*
D10*
X83185000Y-97665000D03*
X83185000Y-96645000D03*
D32*
X76420000Y-106367500D03*
X77070000Y-106367500D03*
X77720000Y-106367500D03*
X78370000Y-106367500D03*
X79020000Y-106367500D03*
X79670000Y-106367500D03*
X80320000Y-106367500D03*
X80970000Y-106367500D03*
X81620000Y-106367500D03*
X82270000Y-106367500D03*
X82920000Y-106367500D03*
X83570000Y-106367500D03*
X84220000Y-106367500D03*
X84870000Y-106367500D03*
X84870000Y-100642500D03*
X84220000Y-100642500D03*
X83570000Y-100642500D03*
X82920000Y-100642500D03*
X82270000Y-100642500D03*
X81620000Y-100642500D03*
X80970000Y-100642500D03*
X80320000Y-100642500D03*
X79670000Y-100642500D03*
X79020000Y-100642500D03*
X78370000Y-100642500D03*
X77720000Y-100642500D03*
X77070000Y-100642500D03*
X76420000Y-100642500D03*
D14*
X83325000Y-92075000D03*
X81775000Y-92075000D03*
D10*
X79375000Y-77980000D03*
X79375000Y-76960000D03*
D15*
X99555000Y-106680000D03*
X101105000Y-106680000D03*
D23*
X98757500Y-91760000D03*
X98757500Y-93660000D03*
X100632500Y-92710000D03*
D11*
X81760000Y-109220000D03*
X80800000Y-109220000D03*
D16*
X82705000Y-88900000D03*
X83665000Y-88900000D03*
X78768000Y-109220000D03*
X79728000Y-109220000D03*
D10*
X76200000Y-97665000D03*
X76200000Y-96645000D03*
D33*
X88265000Y-82230000D03*
X88265000Y-80330000D03*
D34*
X90805000Y-99060000D03*
X90805000Y-96520000D03*
X90805000Y-82550000D03*
X90805000Y-80010000D03*
X90805000Y-77470000D03*
X90805000Y-74930000D03*
D24*
X92710000Y-90805000D03*
D25*
X92710000Y-88265000D03*
D24*
X74295000Y-114300000D03*
D25*
X74295000Y-111760000D03*
M02*
