G04 #@! TF.GenerationSoftware,KiCad,Pcbnew,6.0.2+dfsg-1*
G04 #@! TF.CreationDate,2023-05-14T16:37:12-05:00*
G04 #@! TF.ProjectId,dac-attack,6461632d-6174-4746-9163-6b2e6b696361,2023a*
G04 #@! TF.SameCoordinates,Original*
G04 #@! TF.FileFunction,Copper,L2,Bot*
G04 #@! TF.FilePolarity,Positive*
%FSLAX46Y46*%
G04 Gerber Fmt 4.6, Leading zero omitted, Abs format (unit mm)*
G04 Created by KiCad (PCBNEW 6.0.2+dfsg-1) date 2023-05-14 16:37:12*
%MOMM*%
%LPD*%
G01*
G04 APERTURE LIST*
G04 #@! TA.AperFunction,ComponentPad*
%ADD10C,2.000000*%
G04 #@! TD*
G04 #@! TA.AperFunction,ComponentPad*
%ADD11C,1.854200*%
G04 #@! TD*
G04 #@! TA.AperFunction,ComponentPad*
%ADD12R,1.700000X1.700000*%
G04 #@! TD*
G04 #@! TA.AperFunction,ComponentPad*
%ADD13O,1.700000X1.700000*%
G04 #@! TD*
G04 #@! TA.AperFunction,ViaPad*
%ADD14C,0.500000*%
G04 #@! TD*
G04 #@! TA.AperFunction,Conductor*
%ADD15C,0.400000*%
G04 #@! TD*
G04 #@! TA.AperFunction,Conductor*
%ADD16C,0.200000*%
G04 #@! TD*
G04 APERTURE END LIST*
D10*
X104775000Y-67310000D03*
X171450000Y-67310000D03*
D11*
X136525000Y-77808550D03*
X139065000Y-77808550D03*
X105410000Y-77808550D03*
X107950000Y-77808550D03*
X110490000Y-77808550D03*
X113030000Y-77808550D03*
D12*
X148595000Y-88265000D03*
D13*
X146055000Y-88265000D03*
D12*
X171450000Y-88265000D03*
D13*
X168910000Y-88265000D03*
X166370000Y-88265000D03*
X163830000Y-88265000D03*
D12*
X122560000Y-88265000D03*
D13*
X120020000Y-88265000D03*
D14*
X130683000Y-78740000D03*
X119126000Y-75565000D03*
X121285000Y-83185000D03*
X156845000Y-76962000D03*
X145542000Y-78486000D03*
X131445000Y-76200000D03*
X165735000Y-76200000D03*
X163327500Y-81280000D03*
X155575000Y-81026000D03*
X125095000Y-81280000D03*
X133985000Y-72390000D03*
X148590000Y-78486000D03*
X121920000Y-76581000D03*
X125730000Y-82550000D03*
X135255000Y-67310000D03*
X133350000Y-71755000D03*
X167640000Y-76835000D03*
X132842000Y-75692000D03*
X136525000Y-71120000D03*
X127325000Y-78415000D03*
X149860000Y-72390000D03*
X123444000Y-82550000D03*
X154178000Y-85217000D03*
X165100000Y-76835000D03*
X108585000Y-81280000D03*
X161290000Y-68961000D03*
X121285000Y-69850000D03*
X118110000Y-77089000D03*
X130683000Y-76327000D03*
X169677500Y-76962000D03*
X121285000Y-67310000D03*
X120015000Y-67310000D03*
X141859000Y-78105000D03*
X134620000Y-71755000D03*
X132334000Y-71374000D03*
X154488000Y-76525000D03*
X141986000Y-72390000D03*
X118745000Y-69215000D03*
X130810000Y-81026000D03*
X120650000Y-66675000D03*
X125730000Y-80010000D03*
X141986000Y-75692000D03*
X145542000Y-76454000D03*
X148590000Y-76581000D03*
X151130000Y-69850000D03*
X131445000Y-73533000D03*
X161417000Y-72390000D03*
X131445000Y-89535000D03*
X158750000Y-75565000D03*
X161290000Y-89535000D03*
X149860000Y-73660000D03*
X135255000Y-69850000D03*
X166502500Y-76835000D03*
X132715000Y-72390000D03*
X152400000Y-89535000D03*
X109855000Y-81280000D03*
X144907000Y-69850000D03*
X167005000Y-76200000D03*
X149225000Y-69850000D03*
X125095000Y-89535000D03*
X122174000Y-81407000D03*
X125730000Y-78740000D03*
X119888000Y-84455000D03*
X130810000Y-81915000D03*
X154178000Y-72644000D03*
X134620000Y-76835000D03*
X155321000Y-83820000D03*
X118618000Y-74041000D03*
X118745000Y-67945000D03*
X149860000Y-71120000D03*
X117983000Y-80010000D03*
X115570000Y-80010000D03*
X115570000Y-78740000D03*
X117983000Y-78740000D03*
X153924000Y-86995000D03*
X152400000Y-87884000D03*
X157353000Y-86995000D03*
X159385000Y-86995000D03*
X148590000Y-85090000D03*
X155194000Y-72517000D03*
X157607000Y-70104000D03*
X128905000Y-86995000D03*
X127000000Y-86995000D03*
X139065000Y-82550000D03*
D15*
X149225000Y-69850000D02*
X151130000Y-69850000D01*
X125730000Y-80010000D02*
X125730000Y-78740000D01*
X117983000Y-80010000D02*
X115570000Y-80010000D01*
X116078000Y-78740000D02*
X117983000Y-78740000D01*
X116078000Y-78740000D02*
X115570000Y-78740000D01*
D16*
X153289000Y-86995000D02*
X152400000Y-87884000D01*
X157353000Y-86995000D02*
X159385000Y-86995000D01*
X153924000Y-86995000D02*
X153289000Y-86995000D01*
X148590000Y-85090000D02*
X148590000Y-88260000D01*
X155194000Y-72517000D02*
X157607000Y-70104000D01*
X127000000Y-86995000D02*
X128905000Y-86995000D01*
X139065000Y-82550000D02*
X139065000Y-77808550D01*
G04 #@! TA.AperFunction,Conductor*
G36*
X173424121Y-65298002D02*
G01*
X173470614Y-65351658D01*
X173482000Y-65404000D01*
X173482000Y-90171000D01*
X173461998Y-90239121D01*
X173408342Y-90285614D01*
X173356000Y-90297000D01*
X102869000Y-90297000D01*
X102800879Y-90276998D01*
X102754386Y-90223342D01*
X102743000Y-90171000D01*
X102743000Y-88231695D01*
X118657251Y-88231695D01*
X118670110Y-88454715D01*
X118671247Y-88459761D01*
X118671248Y-88459767D01*
X118685493Y-88522973D01*
X118719222Y-88672639D01*
X118803266Y-88879616D01*
X118840685Y-88940678D01*
X118917291Y-89065688D01*
X118919987Y-89070088D01*
X119066250Y-89238938D01*
X119238126Y-89381632D01*
X119431000Y-89494338D01*
X119639692Y-89574030D01*
X119644760Y-89575061D01*
X119644763Y-89575062D01*
X119739862Y-89594410D01*
X119858597Y-89618567D01*
X119863772Y-89618757D01*
X119863774Y-89618757D01*
X120076673Y-89626564D01*
X120076677Y-89626564D01*
X120081837Y-89626753D01*
X120086957Y-89626097D01*
X120086959Y-89626097D01*
X120298288Y-89599025D01*
X120298289Y-89599025D01*
X120303416Y-89598368D01*
X120308366Y-89596883D01*
X120512429Y-89535661D01*
X120512434Y-89535659D01*
X120517384Y-89534174D01*
X120717994Y-89435896D01*
X120899860Y-89306173D01*
X121008091Y-89198319D01*
X121070462Y-89164404D01*
X121141268Y-89169592D01*
X121198030Y-89212238D01*
X121215012Y-89243341D01*
X121259385Y-89361705D01*
X121346739Y-89478261D01*
X121463295Y-89565615D01*
X121599684Y-89616745D01*
X121661866Y-89623500D01*
X123458134Y-89623500D01*
X123520316Y-89616745D01*
X123656705Y-89565615D01*
X123773261Y-89478261D01*
X123860615Y-89361705D01*
X123911745Y-89225316D01*
X123918500Y-89163134D01*
X123918500Y-88532966D01*
X144723257Y-88532966D01*
X144753565Y-88667446D01*
X144756645Y-88677275D01*
X144836770Y-88874603D01*
X144841413Y-88883794D01*
X144952694Y-89065388D01*
X144958777Y-89073699D01*
X145098213Y-89234667D01*
X145105580Y-89241883D01*
X145269434Y-89377916D01*
X145277881Y-89383831D01*
X145461756Y-89491279D01*
X145471042Y-89495729D01*
X145670001Y-89571703D01*
X145679899Y-89574579D01*
X145783250Y-89595606D01*
X145797299Y-89594410D01*
X145801000Y-89584065D01*
X145801000Y-89583517D01*
X146309000Y-89583517D01*
X146313064Y-89597359D01*
X146326478Y-89599393D01*
X146333184Y-89598534D01*
X146343262Y-89596392D01*
X146547255Y-89535191D01*
X146556842Y-89531433D01*
X146748095Y-89437739D01*
X146756945Y-89432464D01*
X146930328Y-89308792D01*
X146938193Y-89302145D01*
X147042897Y-89197805D01*
X147105268Y-89163889D01*
X147176075Y-89169077D01*
X147232837Y-89211723D01*
X147249819Y-89242826D01*
X147294385Y-89361705D01*
X147381739Y-89478261D01*
X147498295Y-89565615D01*
X147634684Y-89616745D01*
X147696866Y-89623500D01*
X149493134Y-89623500D01*
X149555316Y-89616745D01*
X149691705Y-89565615D01*
X149808261Y-89478261D01*
X149895615Y-89361705D01*
X149946745Y-89225316D01*
X149953500Y-89163134D01*
X149953500Y-87873343D01*
X151636775Y-87873343D01*
X151653381Y-88042699D01*
X151707094Y-88204167D01*
X151710741Y-88210189D01*
X151710742Y-88210191D01*
X151724497Y-88232902D01*
X151795246Y-88349723D01*
X151913455Y-88472132D01*
X151919351Y-88475990D01*
X152037140Y-88553069D01*
X152055846Y-88565310D01*
X152062450Y-88567766D01*
X152062452Y-88567767D01*
X152098844Y-88581301D01*
X152215341Y-88624626D01*
X152384015Y-88647132D01*
X152391026Y-88646494D01*
X152391030Y-88646494D01*
X152546462Y-88632348D01*
X152553483Y-88631709D01*
X152560185Y-88629531D01*
X152560187Y-88629531D01*
X152708623Y-88581301D01*
X152708626Y-88581300D01*
X152715322Y-88579124D01*
X152861490Y-88491990D01*
X152866584Y-88487139D01*
X152866588Y-88487136D01*
X152933833Y-88423099D01*
X152984721Y-88374639D01*
X153078891Y-88232902D01*
X153079349Y-88231695D01*
X162467251Y-88231695D01*
X162480110Y-88454715D01*
X162481247Y-88459761D01*
X162481248Y-88459767D01*
X162495493Y-88522973D01*
X162529222Y-88672639D01*
X162613266Y-88879616D01*
X162650685Y-88940678D01*
X162727291Y-89065688D01*
X162729987Y-89070088D01*
X162876250Y-89238938D01*
X163048126Y-89381632D01*
X163241000Y-89494338D01*
X163449692Y-89574030D01*
X163454760Y-89575061D01*
X163454763Y-89575062D01*
X163549862Y-89594410D01*
X163668597Y-89618567D01*
X163673772Y-89618757D01*
X163673774Y-89618757D01*
X163886673Y-89626564D01*
X163886677Y-89626564D01*
X163891837Y-89626753D01*
X163896957Y-89626097D01*
X163896959Y-89626097D01*
X164108288Y-89599025D01*
X164108289Y-89599025D01*
X164113416Y-89598368D01*
X164118366Y-89596883D01*
X164322429Y-89535661D01*
X164322434Y-89535659D01*
X164327384Y-89534174D01*
X164527994Y-89435896D01*
X164709860Y-89306173D01*
X164868096Y-89148489D01*
X164927594Y-89065689D01*
X164998453Y-88967077D01*
X164999776Y-88968028D01*
X165046645Y-88924857D01*
X165116580Y-88912625D01*
X165182026Y-88940144D01*
X165209875Y-88971994D01*
X165269987Y-89070088D01*
X165416250Y-89238938D01*
X165588126Y-89381632D01*
X165781000Y-89494338D01*
X165989692Y-89574030D01*
X165994760Y-89575061D01*
X165994763Y-89575062D01*
X166089862Y-89594410D01*
X166208597Y-89618567D01*
X166213772Y-89618757D01*
X166213774Y-89618757D01*
X166426673Y-89626564D01*
X166426677Y-89626564D01*
X166431837Y-89626753D01*
X166436957Y-89626097D01*
X166436959Y-89626097D01*
X166648288Y-89599025D01*
X166648289Y-89599025D01*
X166653416Y-89598368D01*
X166658366Y-89596883D01*
X166862429Y-89535661D01*
X166862434Y-89535659D01*
X166867384Y-89534174D01*
X167067994Y-89435896D01*
X167249860Y-89306173D01*
X167408096Y-89148489D01*
X167467594Y-89065689D01*
X167538453Y-88967077D01*
X167539776Y-88968028D01*
X167586645Y-88924857D01*
X167656580Y-88912625D01*
X167722026Y-88940144D01*
X167749875Y-88971994D01*
X167809987Y-89070088D01*
X167956250Y-89238938D01*
X168128126Y-89381632D01*
X168321000Y-89494338D01*
X168529692Y-89574030D01*
X168534760Y-89575061D01*
X168534763Y-89575062D01*
X168629862Y-89594410D01*
X168748597Y-89618567D01*
X168753772Y-89618757D01*
X168753774Y-89618757D01*
X168966673Y-89626564D01*
X168966677Y-89626564D01*
X168971837Y-89626753D01*
X168976957Y-89626097D01*
X168976959Y-89626097D01*
X169188288Y-89599025D01*
X169188289Y-89599025D01*
X169193416Y-89598368D01*
X169198366Y-89596883D01*
X169402429Y-89535661D01*
X169402434Y-89535659D01*
X169407384Y-89534174D01*
X169607994Y-89435896D01*
X169789860Y-89306173D01*
X169857331Y-89238938D01*
X169898479Y-89197933D01*
X169960851Y-89164017D01*
X170031658Y-89169205D01*
X170088419Y-89211851D01*
X170105401Y-89242954D01*
X170146676Y-89353054D01*
X170155214Y-89368649D01*
X170231715Y-89470724D01*
X170244276Y-89483285D01*
X170346351Y-89559786D01*
X170361946Y-89568324D01*
X170482394Y-89613478D01*
X170497649Y-89617105D01*
X170548514Y-89622631D01*
X170555328Y-89623000D01*
X171177885Y-89623000D01*
X171193124Y-89618525D01*
X171194329Y-89617135D01*
X171196000Y-89609452D01*
X171196000Y-89604884D01*
X171704000Y-89604884D01*
X171708475Y-89620123D01*
X171709865Y-89621328D01*
X171717548Y-89622999D01*
X172344669Y-89622999D01*
X172351490Y-89622629D01*
X172402352Y-89617105D01*
X172417604Y-89613479D01*
X172538054Y-89568324D01*
X172553649Y-89559786D01*
X172655724Y-89483285D01*
X172668285Y-89470724D01*
X172744786Y-89368649D01*
X172753324Y-89353054D01*
X172798478Y-89232606D01*
X172802105Y-89217351D01*
X172807631Y-89166486D01*
X172808000Y-89159672D01*
X172808000Y-88537115D01*
X172803525Y-88521876D01*
X172802135Y-88520671D01*
X172794452Y-88519000D01*
X171722115Y-88519000D01*
X171706876Y-88523475D01*
X171705671Y-88524865D01*
X171704000Y-88532548D01*
X171704000Y-89604884D01*
X171196000Y-89604884D01*
X171196000Y-87992885D01*
X171704000Y-87992885D01*
X171708475Y-88008124D01*
X171709865Y-88009329D01*
X171717548Y-88011000D01*
X172789884Y-88011000D01*
X172805123Y-88006525D01*
X172806328Y-88005135D01*
X172807999Y-87997452D01*
X172807999Y-87370331D01*
X172807629Y-87363510D01*
X172802105Y-87312648D01*
X172798479Y-87297396D01*
X172753324Y-87176946D01*
X172744786Y-87161351D01*
X172668285Y-87059276D01*
X172655724Y-87046715D01*
X172553649Y-86970214D01*
X172538054Y-86961676D01*
X172417606Y-86916522D01*
X172402351Y-86912895D01*
X172351486Y-86907369D01*
X172344672Y-86907000D01*
X171722115Y-86907000D01*
X171706876Y-86911475D01*
X171705671Y-86912865D01*
X171704000Y-86920548D01*
X171704000Y-87992885D01*
X171196000Y-87992885D01*
X171196000Y-86925116D01*
X171191525Y-86909877D01*
X171190135Y-86908672D01*
X171182452Y-86907001D01*
X170555331Y-86907001D01*
X170548510Y-86907371D01*
X170497648Y-86912895D01*
X170482396Y-86916521D01*
X170361946Y-86961676D01*
X170346351Y-86970214D01*
X170244276Y-87046715D01*
X170231715Y-87059276D01*
X170155214Y-87161351D01*
X170146676Y-87176946D01*
X170105297Y-87287322D01*
X170062655Y-87344087D01*
X169996093Y-87368786D01*
X169926744Y-87353578D01*
X169894121Y-87327891D01*
X169843151Y-87271876D01*
X169843145Y-87271870D01*
X169839670Y-87268051D01*
X169835619Y-87264852D01*
X169835615Y-87264848D01*
X169668414Y-87132800D01*
X169668410Y-87132798D01*
X169664359Y-87129598D01*
X169628028Y-87109542D01*
X169536970Y-87059276D01*
X169468789Y-87021638D01*
X169463920Y-87019914D01*
X169463916Y-87019912D01*
X169263087Y-86948795D01*
X169263083Y-86948794D01*
X169258212Y-86947069D01*
X169253119Y-86946162D01*
X169253116Y-86946161D01*
X169043373Y-86908800D01*
X169043367Y-86908799D01*
X169038284Y-86907894D01*
X168964452Y-86906992D01*
X168820081Y-86905228D01*
X168820079Y-86905228D01*
X168814911Y-86905165D01*
X168594091Y-86938955D01*
X168381756Y-87008357D01*
X168183607Y-87111507D01*
X168179474Y-87114610D01*
X168179471Y-87114612D01*
X168009100Y-87242530D01*
X168004965Y-87245635D01*
X167965525Y-87286907D01*
X167911280Y-87343671D01*
X167850629Y-87407138D01*
X167743201Y-87564621D01*
X167688293Y-87609621D01*
X167617768Y-87617792D01*
X167554021Y-87586538D01*
X167533324Y-87562054D01*
X167452822Y-87437617D01*
X167452820Y-87437614D01*
X167450014Y-87433277D01*
X167299670Y-87268051D01*
X167295619Y-87264852D01*
X167295615Y-87264848D01*
X167128414Y-87132800D01*
X167128410Y-87132798D01*
X167124359Y-87129598D01*
X167088028Y-87109542D01*
X166996970Y-87059276D01*
X166928789Y-87021638D01*
X166923920Y-87019914D01*
X166923916Y-87019912D01*
X166723087Y-86948795D01*
X166723083Y-86948794D01*
X166718212Y-86947069D01*
X166713119Y-86946162D01*
X166713116Y-86946161D01*
X166503373Y-86908800D01*
X166503367Y-86908799D01*
X166498284Y-86907894D01*
X166424452Y-86906992D01*
X166280081Y-86905228D01*
X166280079Y-86905228D01*
X166274911Y-86905165D01*
X166054091Y-86938955D01*
X165841756Y-87008357D01*
X165643607Y-87111507D01*
X165639474Y-87114610D01*
X165639471Y-87114612D01*
X165469100Y-87242530D01*
X165464965Y-87245635D01*
X165425525Y-87286907D01*
X165371280Y-87343671D01*
X165310629Y-87407138D01*
X165203201Y-87564621D01*
X165148293Y-87609621D01*
X165077768Y-87617792D01*
X165014021Y-87586538D01*
X164993324Y-87562054D01*
X164912822Y-87437617D01*
X164912820Y-87437614D01*
X164910014Y-87433277D01*
X164759670Y-87268051D01*
X164755619Y-87264852D01*
X164755615Y-87264848D01*
X164588414Y-87132800D01*
X164588410Y-87132798D01*
X164584359Y-87129598D01*
X164548028Y-87109542D01*
X164456970Y-87059276D01*
X164388789Y-87021638D01*
X164383920Y-87019914D01*
X164383916Y-87019912D01*
X164183087Y-86948795D01*
X164183083Y-86948794D01*
X164178212Y-86947069D01*
X164173119Y-86946162D01*
X164173116Y-86946161D01*
X163963373Y-86908800D01*
X163963367Y-86908799D01*
X163958284Y-86907894D01*
X163884452Y-86906992D01*
X163740081Y-86905228D01*
X163740079Y-86905228D01*
X163734911Y-86905165D01*
X163514091Y-86938955D01*
X163301756Y-87008357D01*
X163103607Y-87111507D01*
X163099474Y-87114610D01*
X163099471Y-87114612D01*
X162929100Y-87242530D01*
X162924965Y-87245635D01*
X162885525Y-87286907D01*
X162831280Y-87343671D01*
X162770629Y-87407138D01*
X162767720Y-87411403D01*
X162767714Y-87411411D01*
X162755404Y-87429457D01*
X162644743Y-87591680D01*
X162550688Y-87794305D01*
X162490989Y-88009570D01*
X162467251Y-88231695D01*
X153079349Y-88231695D01*
X153139319Y-88073825D01*
X153144668Y-88035762D01*
X153173955Y-87971088D01*
X153180347Y-87964202D01*
X153441786Y-87702763D01*
X153504098Y-87668737D01*
X153574913Y-87673802D01*
X153578233Y-87675254D01*
X153579846Y-87676310D01*
X153739341Y-87735626D01*
X153908015Y-87758132D01*
X153915026Y-87757494D01*
X153915030Y-87757494D01*
X154070462Y-87743348D01*
X154077483Y-87742709D01*
X154084185Y-87740531D01*
X154084187Y-87740531D01*
X154232623Y-87692301D01*
X154232626Y-87692300D01*
X154239322Y-87690124D01*
X154385490Y-87602990D01*
X154390584Y-87598139D01*
X154390588Y-87598136D01*
X154457833Y-87534099D01*
X154508721Y-87485639D01*
X154602891Y-87343902D01*
X154663319Y-87184825D01*
X154687001Y-87016313D01*
X154687299Y-86995000D01*
X154686104Y-86984343D01*
X156589775Y-86984343D01*
X156606381Y-87153699D01*
X156660094Y-87315167D01*
X156663741Y-87321189D01*
X156663742Y-87321191D01*
X156729311Y-87429457D01*
X156748246Y-87460723D01*
X156866455Y-87583132D01*
X157008846Y-87676310D01*
X157015450Y-87678766D01*
X157015452Y-87678767D01*
X157084689Y-87704516D01*
X157168341Y-87735626D01*
X157337015Y-87758132D01*
X157344026Y-87757494D01*
X157344030Y-87757494D01*
X157499462Y-87743348D01*
X157506483Y-87742709D01*
X157513185Y-87740531D01*
X157513187Y-87740531D01*
X157661623Y-87692301D01*
X157661626Y-87692300D01*
X157668322Y-87690124D01*
X157783823Y-87621271D01*
X157848341Y-87603500D01*
X158892019Y-87603500D01*
X158961012Y-87624068D01*
X159040846Y-87676310D01*
X159047450Y-87678766D01*
X159047452Y-87678767D01*
X159116689Y-87704516D01*
X159200341Y-87735626D01*
X159369015Y-87758132D01*
X159376026Y-87757494D01*
X159376030Y-87757494D01*
X159531462Y-87743348D01*
X159538483Y-87742709D01*
X159545185Y-87740531D01*
X159545187Y-87740531D01*
X159693623Y-87692301D01*
X159693626Y-87692300D01*
X159700322Y-87690124D01*
X159846490Y-87602990D01*
X159851584Y-87598139D01*
X159851588Y-87598136D01*
X159918833Y-87534099D01*
X159969721Y-87485639D01*
X160063891Y-87343902D01*
X160124319Y-87184825D01*
X160148001Y-87016313D01*
X160148299Y-86995000D01*
X160129331Y-86825892D01*
X160073368Y-86665189D01*
X160067383Y-86655610D01*
X160031864Y-86598770D01*
X159983192Y-86520879D01*
X159863286Y-86400132D01*
X159847039Y-86389821D01*
X159808406Y-86365304D01*
X159719608Y-86308951D01*
X159559300Y-86251868D01*
X159390329Y-86231720D01*
X159383326Y-86232456D01*
X159383325Y-86232456D01*
X159228101Y-86248770D01*
X159228097Y-86248771D01*
X159221093Y-86249507D01*
X159214422Y-86251778D01*
X159066673Y-86302075D01*
X159066670Y-86302076D01*
X159060003Y-86304346D01*
X159054005Y-86308036D01*
X159054003Y-86308037D01*
X158956831Y-86367818D01*
X158890809Y-86386500D01*
X157846411Y-86386500D01*
X157778897Y-86366885D01*
X157693562Y-86312729D01*
X157693558Y-86312727D01*
X157687608Y-86308951D01*
X157527300Y-86251868D01*
X157358329Y-86231720D01*
X157351326Y-86232456D01*
X157351325Y-86232456D01*
X157196101Y-86248770D01*
X157196097Y-86248771D01*
X157189093Y-86249507D01*
X157182422Y-86251778D01*
X157034673Y-86302075D01*
X157034670Y-86302076D01*
X157028003Y-86304346D01*
X157022005Y-86308036D01*
X157022003Y-86308037D01*
X156889065Y-86389821D01*
X156889063Y-86389823D01*
X156883066Y-86393512D01*
X156761486Y-86512573D01*
X156757675Y-86518487D01*
X156757673Y-86518489D01*
X156713921Y-86586379D01*
X156669304Y-86655610D01*
X156611103Y-86815516D01*
X156589775Y-86984343D01*
X154686104Y-86984343D01*
X154668331Y-86825892D01*
X154612368Y-86665189D01*
X154606383Y-86655610D01*
X154570864Y-86598770D01*
X154522192Y-86520879D01*
X154402286Y-86400132D01*
X154386039Y-86389821D01*
X154347406Y-86365304D01*
X154258608Y-86308951D01*
X154098300Y-86251868D01*
X153929329Y-86231720D01*
X153922326Y-86232456D01*
X153922325Y-86232456D01*
X153767101Y-86248770D01*
X153767097Y-86248771D01*
X153760093Y-86249507D01*
X153753422Y-86251778D01*
X153605673Y-86302075D01*
X153605670Y-86302076D01*
X153599003Y-86304346D01*
X153593005Y-86308036D01*
X153593003Y-86308037D01*
X153495831Y-86367818D01*
X153429809Y-86386500D01*
X153337136Y-86386500D01*
X153320693Y-86385422D01*
X153289000Y-86381250D01*
X153280811Y-86382328D01*
X153249126Y-86386499D01*
X153249117Y-86386500D01*
X153249115Y-86386500D01*
X153249109Y-86386501D01*
X153249107Y-86386501D01*
X153149543Y-86399609D01*
X153138336Y-86401084D01*
X153138334Y-86401085D01*
X153130149Y-86402162D01*
X152982124Y-86463476D01*
X152936305Y-86498634D01*
X152886937Y-86536515D01*
X152886921Y-86536529D01*
X152861566Y-86555984D01*
X152861563Y-86555987D01*
X152855013Y-86561013D01*
X152849983Y-86567568D01*
X152835548Y-86586379D01*
X152824681Y-86598770D01*
X152322233Y-87101218D01*
X152259921Y-87135244D01*
X152246313Y-87137432D01*
X152243107Y-87137769D01*
X152243100Y-87137771D01*
X152236093Y-87138507D01*
X152229422Y-87140778D01*
X152081673Y-87191075D01*
X152081670Y-87191076D01*
X152075003Y-87193346D01*
X152069005Y-87197036D01*
X152069003Y-87197037D01*
X151936065Y-87278821D01*
X151936063Y-87278823D01*
X151930066Y-87282512D01*
X151808486Y-87401573D01*
X151804675Y-87407487D01*
X151804673Y-87407489D01*
X151751177Y-87490498D01*
X151716304Y-87544610D01*
X151658103Y-87704516D01*
X151636775Y-87873343D01*
X149953500Y-87873343D01*
X149953500Y-87366866D01*
X149946745Y-87304684D01*
X149895615Y-87168295D01*
X149808261Y-87051739D01*
X149691705Y-86964385D01*
X149555316Y-86913255D01*
X149493134Y-86906500D01*
X149324500Y-86906500D01*
X149256379Y-86886498D01*
X149209886Y-86832842D01*
X149198500Y-86780500D01*
X149198500Y-85582890D01*
X149219552Y-85513163D01*
X149264990Y-85444773D01*
X149268891Y-85438902D01*
X149329319Y-85279825D01*
X149353001Y-85111313D01*
X149353299Y-85090000D01*
X149334331Y-84920892D01*
X149278368Y-84760189D01*
X149272383Y-84750610D01*
X149250420Y-84715464D01*
X149188192Y-84615879D01*
X149068286Y-84495132D01*
X149052039Y-84484821D01*
X149013406Y-84460304D01*
X148924608Y-84403951D01*
X148764300Y-84346868D01*
X148595329Y-84326720D01*
X148588326Y-84327456D01*
X148588325Y-84327456D01*
X148433101Y-84343770D01*
X148433097Y-84343771D01*
X148426093Y-84344507D01*
X148419422Y-84346778D01*
X148271673Y-84397075D01*
X148271670Y-84397076D01*
X148265003Y-84399346D01*
X148259005Y-84403036D01*
X148259003Y-84403037D01*
X148126065Y-84484821D01*
X148126063Y-84484823D01*
X148120066Y-84488512D01*
X147998486Y-84607573D01*
X147906304Y-84750610D01*
X147848103Y-84910516D01*
X147826775Y-85079343D01*
X147843381Y-85248699D01*
X147897094Y-85410167D01*
X147900741Y-85416189D01*
X147900742Y-85416191D01*
X147963276Y-85519447D01*
X147981500Y-85584718D01*
X147981500Y-86780500D01*
X147961498Y-86848621D01*
X147907842Y-86895114D01*
X147855500Y-86906500D01*
X147696866Y-86906500D01*
X147634684Y-86913255D01*
X147498295Y-86964385D01*
X147381739Y-87051739D01*
X147294385Y-87168295D01*
X147291233Y-87176703D01*
X147291232Y-87176705D01*
X147249722Y-87287433D01*
X147207081Y-87344198D01*
X147140519Y-87368898D01*
X147071170Y-87353691D01*
X147038546Y-87328004D01*
X146987799Y-87272234D01*
X146980273Y-87265215D01*
X146813139Y-87133222D01*
X146804552Y-87127517D01*
X146618117Y-87024599D01*
X146608705Y-87020369D01*
X146407959Y-86949280D01*
X146397988Y-86946646D01*
X146326837Y-86933972D01*
X146313540Y-86935432D01*
X146309000Y-86949989D01*
X146309000Y-89583517D01*
X145801000Y-89583517D01*
X145801000Y-88537115D01*
X145796525Y-88521876D01*
X145795135Y-88520671D01*
X145787452Y-88519000D01*
X144738225Y-88519000D01*
X144724694Y-88522973D01*
X144723257Y-88532966D01*
X123918500Y-88532966D01*
X123918500Y-87999183D01*
X144719389Y-87999183D01*
X144720912Y-88007607D01*
X144733292Y-88011000D01*
X145782885Y-88011000D01*
X145798124Y-88006525D01*
X145799329Y-88005135D01*
X145801000Y-87997452D01*
X145801000Y-86948102D01*
X145797082Y-86934758D01*
X145782806Y-86932771D01*
X145744324Y-86938660D01*
X145734288Y-86941051D01*
X145531868Y-87007212D01*
X145522359Y-87011209D01*
X145333463Y-87109542D01*
X145324738Y-87115036D01*
X145154433Y-87242905D01*
X145146726Y-87249748D01*
X144999590Y-87403717D01*
X144993104Y-87411727D01*
X144873098Y-87587649D01*
X144868000Y-87596623D01*
X144778338Y-87789783D01*
X144774775Y-87799470D01*
X144719389Y-87999183D01*
X123918500Y-87999183D01*
X123918500Y-87366866D01*
X123911745Y-87304684D01*
X123860615Y-87168295D01*
X123773261Y-87051739D01*
X123683335Y-86984343D01*
X126236775Y-86984343D01*
X126253381Y-87153699D01*
X126307094Y-87315167D01*
X126310741Y-87321189D01*
X126310742Y-87321191D01*
X126376311Y-87429457D01*
X126395246Y-87460723D01*
X126513455Y-87583132D01*
X126655846Y-87676310D01*
X126662450Y-87678766D01*
X126662452Y-87678767D01*
X126731689Y-87704516D01*
X126815341Y-87735626D01*
X126984015Y-87758132D01*
X126991026Y-87757494D01*
X126991030Y-87757494D01*
X127146462Y-87743348D01*
X127153483Y-87742709D01*
X127160185Y-87740531D01*
X127160187Y-87740531D01*
X127308623Y-87692301D01*
X127308626Y-87692300D01*
X127315322Y-87690124D01*
X127430823Y-87621271D01*
X127495341Y-87603500D01*
X128412019Y-87603500D01*
X128481012Y-87624068D01*
X128560846Y-87676310D01*
X128567450Y-87678766D01*
X128567452Y-87678767D01*
X128636689Y-87704516D01*
X128720341Y-87735626D01*
X128889015Y-87758132D01*
X128896026Y-87757494D01*
X128896030Y-87757494D01*
X129051462Y-87743348D01*
X129058483Y-87742709D01*
X129065185Y-87740531D01*
X129065187Y-87740531D01*
X129213623Y-87692301D01*
X129213626Y-87692300D01*
X129220322Y-87690124D01*
X129366490Y-87602990D01*
X129371584Y-87598139D01*
X129371588Y-87598136D01*
X129438833Y-87534099D01*
X129489721Y-87485639D01*
X129583891Y-87343902D01*
X129644319Y-87184825D01*
X129668001Y-87016313D01*
X129668299Y-86995000D01*
X129649331Y-86825892D01*
X129593368Y-86665189D01*
X129587383Y-86655610D01*
X129551864Y-86598770D01*
X129503192Y-86520879D01*
X129383286Y-86400132D01*
X129367039Y-86389821D01*
X129328406Y-86365304D01*
X129239608Y-86308951D01*
X129079300Y-86251868D01*
X128910329Y-86231720D01*
X128903326Y-86232456D01*
X128903325Y-86232456D01*
X128748101Y-86248770D01*
X128748097Y-86248771D01*
X128741093Y-86249507D01*
X128734422Y-86251778D01*
X128586673Y-86302075D01*
X128586670Y-86302076D01*
X128580003Y-86304346D01*
X128574005Y-86308036D01*
X128574003Y-86308037D01*
X128476831Y-86367818D01*
X128410809Y-86386500D01*
X127493411Y-86386500D01*
X127425897Y-86366885D01*
X127340562Y-86312729D01*
X127340558Y-86312727D01*
X127334608Y-86308951D01*
X127174300Y-86251868D01*
X127005329Y-86231720D01*
X126998326Y-86232456D01*
X126998325Y-86232456D01*
X126843101Y-86248770D01*
X126843097Y-86248771D01*
X126836093Y-86249507D01*
X126829422Y-86251778D01*
X126681673Y-86302075D01*
X126681670Y-86302076D01*
X126675003Y-86304346D01*
X126669005Y-86308036D01*
X126669003Y-86308037D01*
X126536065Y-86389821D01*
X126536063Y-86389823D01*
X126530066Y-86393512D01*
X126408486Y-86512573D01*
X126404675Y-86518487D01*
X126404673Y-86518489D01*
X126360921Y-86586379D01*
X126316304Y-86655610D01*
X126258103Y-86815516D01*
X126236775Y-86984343D01*
X123683335Y-86984343D01*
X123656705Y-86964385D01*
X123520316Y-86913255D01*
X123458134Y-86906500D01*
X121661866Y-86906500D01*
X121599684Y-86913255D01*
X121463295Y-86964385D01*
X121346739Y-87051739D01*
X121259385Y-87168295D01*
X121256233Y-87176703D01*
X121214919Y-87286907D01*
X121172277Y-87343671D01*
X121105716Y-87368371D01*
X121036367Y-87353163D01*
X121003743Y-87327476D01*
X120953151Y-87271875D01*
X120953142Y-87271866D01*
X120949670Y-87268051D01*
X120945619Y-87264852D01*
X120945615Y-87264848D01*
X120778414Y-87132800D01*
X120778410Y-87132798D01*
X120774359Y-87129598D01*
X120738028Y-87109542D01*
X120646970Y-87059276D01*
X120578789Y-87021638D01*
X120573920Y-87019914D01*
X120573916Y-87019912D01*
X120373087Y-86948795D01*
X120373083Y-86948794D01*
X120368212Y-86947069D01*
X120363119Y-86946162D01*
X120363116Y-86946161D01*
X120153373Y-86908800D01*
X120153367Y-86908799D01*
X120148284Y-86907894D01*
X120074452Y-86906992D01*
X119930081Y-86905228D01*
X119930079Y-86905228D01*
X119924911Y-86905165D01*
X119704091Y-86938955D01*
X119491756Y-87008357D01*
X119293607Y-87111507D01*
X119289474Y-87114610D01*
X119289471Y-87114612D01*
X119119100Y-87242530D01*
X119114965Y-87245635D01*
X119075525Y-87286907D01*
X119021280Y-87343671D01*
X118960629Y-87407138D01*
X118957720Y-87411403D01*
X118957714Y-87411411D01*
X118945404Y-87429457D01*
X118834743Y-87591680D01*
X118740688Y-87794305D01*
X118680989Y-88009570D01*
X118657251Y-88231695D01*
X102743000Y-88231695D01*
X102743000Y-79999343D01*
X114806775Y-79999343D01*
X114823381Y-80168699D01*
X114877094Y-80330167D01*
X114880741Y-80336189D01*
X114880742Y-80336191D01*
X114894497Y-80358902D01*
X114965246Y-80475723D01*
X115083455Y-80598132D01*
X115225846Y-80691310D01*
X115232450Y-80693766D01*
X115232452Y-80693767D01*
X115268844Y-80707301D01*
X115385341Y-80750626D01*
X115554015Y-80773132D01*
X115561026Y-80772494D01*
X115561030Y-80772494D01*
X115716462Y-80758348D01*
X115723483Y-80757709D01*
X115730185Y-80755531D01*
X115730187Y-80755531D01*
X115825175Y-80724667D01*
X115864111Y-80718500D01*
X117689287Y-80718500D01*
X117733203Y-80726401D01*
X117798341Y-80750626D01*
X117967015Y-80773132D01*
X117974026Y-80772494D01*
X117974030Y-80772494D01*
X118129462Y-80758348D01*
X118136483Y-80757709D01*
X118143185Y-80755531D01*
X118143187Y-80755531D01*
X118291623Y-80707301D01*
X118291626Y-80707300D01*
X118298322Y-80705124D01*
X118444490Y-80617990D01*
X118449584Y-80613139D01*
X118449588Y-80613136D01*
X118516833Y-80549099D01*
X118567721Y-80500639D01*
X118661891Y-80358902D01*
X118722319Y-80199825D01*
X118746001Y-80031313D01*
X118746299Y-80010000D01*
X118727331Y-79840892D01*
X118671368Y-79680189D01*
X118665383Y-79670610D01*
X118643420Y-79635464D01*
X118581192Y-79535879D01*
X118509516Y-79463700D01*
X118475710Y-79401271D01*
X118481022Y-79330474D01*
X118512031Y-79283672D01*
X118529273Y-79267253D01*
X118567721Y-79230639D01*
X118577378Y-79216105D01*
X118641490Y-79119608D01*
X118661891Y-79088902D01*
X118699548Y-78989769D01*
X135708611Y-78989769D01*
X135713892Y-78996823D01*
X135898328Y-79104598D01*
X135907615Y-79109048D01*
X136118417Y-79189545D01*
X136128315Y-79192421D01*
X136349435Y-79237408D01*
X136359663Y-79238627D01*
X136585160Y-79246897D01*
X136595446Y-79246430D01*
X136819266Y-79217757D01*
X136829351Y-79215614D01*
X137045486Y-79150770D01*
X137055063Y-79147017D01*
X137257713Y-79047740D01*
X137266558Y-79042467D01*
X137329526Y-78997552D01*
X137337927Y-78986852D01*
X137330939Y-78973699D01*
X136537812Y-78180572D01*
X136523868Y-78172958D01*
X136522035Y-78173089D01*
X136515420Y-78177340D01*
X135715371Y-78977389D01*
X135708611Y-78989769D01*
X118699548Y-78989769D01*
X118722319Y-78929825D01*
X118746001Y-78761313D01*
X118746299Y-78740000D01*
X118727331Y-78570892D01*
X118671368Y-78410189D01*
X118665383Y-78400610D01*
X118626784Y-78338841D01*
X118581192Y-78265879D01*
X118461286Y-78145132D01*
X118445039Y-78134821D01*
X118402526Y-78107842D01*
X118317608Y-78053951D01*
X118157300Y-77996868D01*
X117988329Y-77976720D01*
X117981326Y-77977456D01*
X117981325Y-77977456D01*
X117826101Y-77993770D01*
X117826097Y-77993771D01*
X117819093Y-77994507D01*
X117791813Y-78003794D01*
X117730172Y-78024778D01*
X117689567Y-78031500D01*
X115863321Y-78031500D01*
X115821054Y-78024199D01*
X115792648Y-78014084D01*
X115744300Y-77996868D01*
X115575329Y-77976720D01*
X115568326Y-77977456D01*
X115568325Y-77977456D01*
X115413101Y-77993770D01*
X115413097Y-77993771D01*
X115406093Y-77994507D01*
X115399422Y-77996778D01*
X115251673Y-78047075D01*
X115251670Y-78047076D01*
X115245003Y-78049346D01*
X115239005Y-78053036D01*
X115239003Y-78053037D01*
X115106065Y-78134821D01*
X115106063Y-78134823D01*
X115100066Y-78138512D01*
X114978486Y-78257573D01*
X114974675Y-78263487D01*
X114974673Y-78263489D01*
X114926112Y-78338841D01*
X114886304Y-78400610D01*
X114828103Y-78560516D01*
X114806775Y-78729343D01*
X114823381Y-78898699D01*
X114877094Y-79060167D01*
X114880741Y-79066189D01*
X114880742Y-79066191D01*
X114957483Y-79192904D01*
X114965246Y-79205723D01*
X115044506Y-79287799D01*
X115077438Y-79350696D01*
X115071138Y-79421412D01*
X115042030Y-79465346D01*
X114978486Y-79527573D01*
X114886304Y-79670610D01*
X114828103Y-79830516D01*
X114806775Y-79999343D01*
X102743000Y-79999343D01*
X102743000Y-77773355D01*
X103969910Y-77773355D01*
X103970207Y-77778507D01*
X103970207Y-77778511D01*
X103972678Y-77821362D01*
X103983499Y-78009032D01*
X103984636Y-78014078D01*
X103984637Y-78014084D01*
X104005767Y-78107842D01*
X104035398Y-78239324D01*
X104124212Y-78458048D01*
X104247558Y-78659329D01*
X104402121Y-78837762D01*
X104583752Y-78988555D01*
X104588204Y-78991157D01*
X104588209Y-78991160D01*
X104744201Y-79082314D01*
X104787572Y-79107658D01*
X105008108Y-79191872D01*
X105013176Y-79192903D01*
X105013179Y-79192904D01*
X105101077Y-79210787D01*
X105239437Y-79238937D01*
X105244610Y-79239127D01*
X105244613Y-79239127D01*
X105470182Y-79247398D01*
X105470186Y-79247398D01*
X105475346Y-79247587D01*
X105480466Y-79246931D01*
X105480468Y-79246931D01*
X105569715Y-79235498D01*
X105709501Y-79217591D01*
X105714450Y-79216106D01*
X105714456Y-79216105D01*
X105930662Y-79151240D01*
X105930661Y-79151240D01*
X105935612Y-79149755D01*
X106079396Y-79079316D01*
X106142957Y-79048178D01*
X106142962Y-79048175D01*
X106147608Y-79045899D01*
X106151818Y-79042896D01*
X106151823Y-79042893D01*
X106226300Y-78989769D01*
X107133611Y-78989769D01*
X107138892Y-78996823D01*
X107323328Y-79104598D01*
X107332615Y-79109048D01*
X107543417Y-79189545D01*
X107553315Y-79192421D01*
X107774435Y-79237408D01*
X107784663Y-79238627D01*
X108010160Y-79246897D01*
X108020446Y-79246430D01*
X108244266Y-79217757D01*
X108254351Y-79215614D01*
X108470486Y-79150770D01*
X108480063Y-79147017D01*
X108682713Y-79047740D01*
X108691558Y-79042467D01*
X108754526Y-78997552D01*
X108760637Y-78989769D01*
X109673611Y-78989769D01*
X109678892Y-78996823D01*
X109863328Y-79104598D01*
X109872615Y-79109048D01*
X110083417Y-79189545D01*
X110093315Y-79192421D01*
X110314435Y-79237408D01*
X110324663Y-79238627D01*
X110550160Y-79246897D01*
X110560446Y-79246430D01*
X110784266Y-79217757D01*
X110794351Y-79215614D01*
X111010486Y-79150770D01*
X111020063Y-79147017D01*
X111222713Y-79047740D01*
X111231558Y-79042467D01*
X111294526Y-78997552D01*
X111302927Y-78986852D01*
X111295939Y-78973699D01*
X110502812Y-78180572D01*
X110488868Y-78172958D01*
X110487035Y-78173089D01*
X110480420Y-78177340D01*
X109680371Y-78977389D01*
X109673611Y-78989769D01*
X108760637Y-78989769D01*
X108762927Y-78986852D01*
X108755939Y-78973699D01*
X107962812Y-78180572D01*
X107948868Y-78172958D01*
X107947035Y-78173089D01*
X107940420Y-78177340D01*
X107140371Y-78977389D01*
X107133611Y-78989769D01*
X106226300Y-78989769D01*
X106335583Y-78911818D01*
X106335588Y-78911814D01*
X106339795Y-78908813D01*
X106507011Y-78742180D01*
X106580353Y-78640114D01*
X106636347Y-78596466D01*
X106707051Y-78590020D01*
X106767209Y-78620206D01*
X106770848Y-78623498D01*
X106779625Y-78619715D01*
X107577978Y-77821362D01*
X107584356Y-77809682D01*
X108314408Y-77809682D01*
X108314539Y-77811515D01*
X108318790Y-77818130D01*
X109115721Y-78615061D01*
X109127732Y-78621620D01*
X109142595Y-78610265D01*
X109208870Y-78584807D01*
X109278388Y-78599221D01*
X109303617Y-78616956D01*
X109310849Y-78623499D01*
X109319624Y-78619716D01*
X110117978Y-77821362D01*
X110124356Y-77809682D01*
X110854408Y-77809682D01*
X110854539Y-77811515D01*
X110858790Y-77818130D01*
X111655721Y-78615061D01*
X111667732Y-78621620D01*
X111677138Y-78614434D01*
X111743413Y-78588976D01*
X111812931Y-78603390D01*
X111861058Y-78648723D01*
X111864857Y-78654921D01*
X111867558Y-78659329D01*
X112022121Y-78837762D01*
X112203752Y-78988555D01*
X112208204Y-78991157D01*
X112208209Y-78991160D01*
X112364201Y-79082314D01*
X112407572Y-79107658D01*
X112628108Y-79191872D01*
X112633176Y-79192903D01*
X112633179Y-79192904D01*
X112721077Y-79210787D01*
X112859437Y-79238937D01*
X112864610Y-79239127D01*
X112864613Y-79239127D01*
X113090182Y-79247398D01*
X113090186Y-79247398D01*
X113095346Y-79247587D01*
X113100466Y-79246931D01*
X113100468Y-79246931D01*
X113189715Y-79235498D01*
X113329501Y-79217591D01*
X113334450Y-79216106D01*
X113334456Y-79216105D01*
X113550662Y-79151240D01*
X113550661Y-79151240D01*
X113555612Y-79149755D01*
X113699396Y-79079316D01*
X113762957Y-79048178D01*
X113762962Y-79048175D01*
X113767608Y-79045899D01*
X113771818Y-79042896D01*
X113771823Y-79042893D01*
X113955583Y-78911818D01*
X113955588Y-78911814D01*
X113959795Y-78908813D01*
X114127011Y-78742180D01*
X114186546Y-78659329D01*
X114261749Y-78554674D01*
X114261753Y-78554668D01*
X114264767Y-78550473D01*
X114369362Y-78338841D01*
X114437987Y-78112968D01*
X114446662Y-78047075D01*
X114468363Y-77882241D01*
X114468364Y-77882235D01*
X114468800Y-77878919D01*
X114470520Y-77808550D01*
X114468051Y-77778523D01*
X135085709Y-77778523D01*
X135098698Y-78003794D01*
X135100134Y-78014014D01*
X135149741Y-78234131D01*
X135152821Y-78243960D01*
X135237713Y-78453028D01*
X135242366Y-78462238D01*
X135335390Y-78614037D01*
X135345848Y-78623498D01*
X135354625Y-78619715D01*
X136152978Y-77821362D01*
X136159356Y-77809682D01*
X136889408Y-77809682D01*
X136889539Y-77811515D01*
X136893790Y-77818130D01*
X137690721Y-78615061D01*
X137702732Y-78621620D01*
X137712138Y-78614434D01*
X137778413Y-78588976D01*
X137847931Y-78603390D01*
X137896058Y-78648723D01*
X137899857Y-78654921D01*
X137902558Y-78659329D01*
X138057121Y-78837762D01*
X138238752Y-78988555D01*
X138243209Y-78991159D01*
X138243214Y-78991163D01*
X138394070Y-79079316D01*
X138442794Y-79130955D01*
X138456500Y-79188104D01*
X138456500Y-82056846D01*
X138436411Y-82125101D01*
X138381304Y-82210610D01*
X138323103Y-82370516D01*
X138301775Y-82539343D01*
X138318381Y-82708699D01*
X138372094Y-82870167D01*
X138375741Y-82876189D01*
X138375742Y-82876191D01*
X138389497Y-82898902D01*
X138460246Y-83015723D01*
X138578455Y-83138132D01*
X138720846Y-83231310D01*
X138727450Y-83233766D01*
X138727452Y-83233767D01*
X138763844Y-83247301D01*
X138880341Y-83290626D01*
X139049015Y-83313132D01*
X139056026Y-83312494D01*
X139056030Y-83312494D01*
X139211462Y-83298348D01*
X139218483Y-83297709D01*
X139225185Y-83295531D01*
X139225187Y-83295531D01*
X139373623Y-83247301D01*
X139373626Y-83247300D01*
X139380322Y-83245124D01*
X139526490Y-83157990D01*
X139531584Y-83153139D01*
X139531588Y-83153136D01*
X139598833Y-83089099D01*
X139649721Y-83040639D01*
X139743891Y-82898902D01*
X139804319Y-82739825D01*
X139828001Y-82571313D01*
X139828299Y-82550000D01*
X139809331Y-82380892D01*
X139753368Y-82220189D01*
X139692645Y-82123013D01*
X139673500Y-82056245D01*
X139673500Y-79187729D01*
X139693502Y-79119608D01*
X139744067Y-79074578D01*
X139802608Y-79045899D01*
X139887628Y-78985255D01*
X139990583Y-78911818D01*
X139990588Y-78911814D01*
X139994795Y-78908813D01*
X140162011Y-78742180D01*
X140221546Y-78659329D01*
X140296749Y-78554674D01*
X140296753Y-78554668D01*
X140299767Y-78550473D01*
X140404362Y-78338841D01*
X140472987Y-78112968D01*
X140481662Y-78047075D01*
X140503363Y-77882241D01*
X140503364Y-77882235D01*
X140503800Y-77878919D01*
X140505520Y-77808550D01*
X140486177Y-77573276D01*
X140428667Y-77344320D01*
X140334535Y-77127831D01*
X140206309Y-76929624D01*
X140047432Y-76755020D01*
X140043381Y-76751821D01*
X140043377Y-76751817D01*
X139866227Y-76611912D01*
X139866223Y-76611910D01*
X139862172Y-76608710D01*
X139833165Y-76592697D01*
X139660029Y-76497122D01*
X139655502Y-76494623D01*
X139650633Y-76492899D01*
X139650629Y-76492897D01*
X139437850Y-76417548D01*
X139437846Y-76417547D01*
X139432975Y-76415822D01*
X139427882Y-76414915D01*
X139427879Y-76414914D01*
X139205653Y-76375329D01*
X139205649Y-76375329D01*
X139200565Y-76374423D01*
X139114647Y-76373373D01*
X138969684Y-76371602D01*
X138969682Y-76371602D01*
X138964514Y-76371539D01*
X138731163Y-76407247D01*
X138506776Y-76480588D01*
X138502188Y-76482976D01*
X138502184Y-76482978D01*
X138301970Y-76587203D01*
X138297381Y-76589592D01*
X138293248Y-76592695D01*
X138293245Y-76592697D01*
X138112736Y-76728227D01*
X138108601Y-76731332D01*
X137945506Y-76902001D01*
X137942592Y-76906273D01*
X137942591Y-76906274D01*
X137895405Y-76975446D01*
X137840494Y-77020449D01*
X137769969Y-77028620D01*
X137709093Y-76999915D01*
X137703137Y-76994786D01*
X137693570Y-76999190D01*
X136897022Y-77795738D01*
X136889408Y-77809682D01*
X136159356Y-77809682D01*
X136160592Y-77807418D01*
X136160461Y-77805585D01*
X136156210Y-77798970D01*
X135359364Y-77002124D01*
X135347828Y-76995824D01*
X135335546Y-77005447D01*
X135275822Y-77093000D01*
X135270736Y-77101952D01*
X135175728Y-77306628D01*
X135172174Y-77316288D01*
X135111868Y-77533745D01*
X135109941Y-77543850D01*
X135085961Y-77768234D01*
X135085709Y-77778523D01*
X114468051Y-77778523D01*
X114451177Y-77573276D01*
X114393667Y-77344320D01*
X114299535Y-77127831D01*
X114171309Y-76929624D01*
X114012432Y-76755020D01*
X114008381Y-76751821D01*
X114008377Y-76751817D01*
X113854013Y-76629907D01*
X135711152Y-76629907D01*
X135717896Y-76642236D01*
X136512188Y-77436528D01*
X136526132Y-77444142D01*
X136527965Y-77444011D01*
X136534580Y-77439760D01*
X137333285Y-76641055D01*
X137340306Y-76628198D01*
X137332534Y-76617531D01*
X137325949Y-76612330D01*
X137317368Y-76606630D01*
X137119823Y-76497580D01*
X137110424Y-76493355D01*
X136897721Y-76418033D01*
X136887750Y-76415399D01*
X136665607Y-76375829D01*
X136655354Y-76374860D01*
X136429719Y-76372103D01*
X136419435Y-76372823D01*
X136196391Y-76406953D01*
X136186364Y-76409342D01*
X135971890Y-76479442D01*
X135962381Y-76483439D01*
X135762239Y-76587628D01*
X135753511Y-76593124D01*
X135719606Y-76618580D01*
X135711152Y-76629907D01*
X113854013Y-76629907D01*
X113831227Y-76611912D01*
X113831223Y-76611910D01*
X113827172Y-76608710D01*
X113798165Y-76592697D01*
X113625029Y-76497122D01*
X113620502Y-76494623D01*
X113615633Y-76492899D01*
X113615629Y-76492897D01*
X113402850Y-76417548D01*
X113402846Y-76417547D01*
X113397975Y-76415822D01*
X113392882Y-76414915D01*
X113392879Y-76414914D01*
X113170653Y-76375329D01*
X113170649Y-76375329D01*
X113165565Y-76374423D01*
X113079647Y-76373373D01*
X112934684Y-76371602D01*
X112934682Y-76371602D01*
X112929514Y-76371539D01*
X112696163Y-76407247D01*
X112471776Y-76480588D01*
X112467188Y-76482976D01*
X112467184Y-76482978D01*
X112266970Y-76587203D01*
X112262381Y-76589592D01*
X112258248Y-76592695D01*
X112258245Y-76592697D01*
X112077736Y-76728227D01*
X112073601Y-76731332D01*
X111910506Y-76902001D01*
X111907592Y-76906273D01*
X111907591Y-76906274D01*
X111860405Y-76975446D01*
X111805494Y-77020449D01*
X111734969Y-77028620D01*
X111674093Y-76999915D01*
X111668137Y-76994786D01*
X111658570Y-76999190D01*
X110862022Y-77795738D01*
X110854408Y-77809682D01*
X110124356Y-77809682D01*
X110125592Y-77807418D01*
X110125461Y-77805585D01*
X110121210Y-77798970D01*
X109324364Y-77002124D01*
X109312827Y-76995824D01*
X109298237Y-77007255D01*
X109232279Y-77033522D01*
X109162590Y-77019959D01*
X109138305Y-77003544D01*
X109128136Y-76994786D01*
X109118570Y-76999190D01*
X108322022Y-77795738D01*
X108314408Y-77809682D01*
X107584356Y-77809682D01*
X107585592Y-77807418D01*
X107585461Y-77805585D01*
X107581210Y-77798970D01*
X106784364Y-77002124D01*
X106772827Y-76995824D01*
X106762817Y-77003666D01*
X106696858Y-77029932D01*
X106627169Y-77016368D01*
X106579319Y-76972921D01*
X106554119Y-76933968D01*
X106551309Y-76929624D01*
X106392432Y-76755020D01*
X106388381Y-76751821D01*
X106388377Y-76751817D01*
X106234013Y-76629907D01*
X107136152Y-76629907D01*
X107142896Y-76642236D01*
X107937188Y-77436528D01*
X107951132Y-77444142D01*
X107952965Y-77444011D01*
X107959580Y-77439760D01*
X108758285Y-76641055D01*
X108764373Y-76629907D01*
X109676152Y-76629907D01*
X109682896Y-76642236D01*
X110477188Y-77436528D01*
X110491132Y-77444142D01*
X110492965Y-77444011D01*
X110499580Y-77439760D01*
X111298285Y-76641055D01*
X111305306Y-76628198D01*
X111297534Y-76617531D01*
X111290949Y-76612330D01*
X111282368Y-76606630D01*
X111084823Y-76497580D01*
X111075424Y-76493355D01*
X110862721Y-76418033D01*
X110852750Y-76415399D01*
X110630607Y-76375829D01*
X110620354Y-76374860D01*
X110394719Y-76372103D01*
X110384435Y-76372823D01*
X110161391Y-76406953D01*
X110151364Y-76409342D01*
X109936890Y-76479442D01*
X109927381Y-76483439D01*
X109727239Y-76587628D01*
X109718511Y-76593124D01*
X109684606Y-76618580D01*
X109676152Y-76629907D01*
X108764373Y-76629907D01*
X108765306Y-76628198D01*
X108757534Y-76617531D01*
X108750949Y-76612330D01*
X108742368Y-76606630D01*
X108544823Y-76497580D01*
X108535424Y-76493355D01*
X108322721Y-76418033D01*
X108312750Y-76415399D01*
X108090607Y-76375829D01*
X108080354Y-76374860D01*
X107854719Y-76372103D01*
X107844435Y-76372823D01*
X107621391Y-76406953D01*
X107611364Y-76409342D01*
X107396890Y-76479442D01*
X107387381Y-76483439D01*
X107187239Y-76587628D01*
X107178511Y-76593124D01*
X107144606Y-76618580D01*
X107136152Y-76629907D01*
X106234013Y-76629907D01*
X106211227Y-76611912D01*
X106211223Y-76611910D01*
X106207172Y-76608710D01*
X106178165Y-76592697D01*
X106005029Y-76497122D01*
X106000502Y-76494623D01*
X105995633Y-76492899D01*
X105995629Y-76492897D01*
X105782850Y-76417548D01*
X105782846Y-76417547D01*
X105777975Y-76415822D01*
X105772882Y-76414915D01*
X105772879Y-76414914D01*
X105550653Y-76375329D01*
X105550649Y-76375329D01*
X105545565Y-76374423D01*
X105459647Y-76373373D01*
X105314684Y-76371602D01*
X105314682Y-76371602D01*
X105309514Y-76371539D01*
X105076163Y-76407247D01*
X104851776Y-76480588D01*
X104847188Y-76482976D01*
X104847184Y-76482978D01*
X104646970Y-76587203D01*
X104642381Y-76589592D01*
X104638248Y-76592695D01*
X104638245Y-76592697D01*
X104457736Y-76728227D01*
X104453601Y-76731332D01*
X104290506Y-76902001D01*
X104287592Y-76906273D01*
X104287591Y-76906274D01*
X104212490Y-77016368D01*
X104157475Y-77097017D01*
X104155299Y-77101706D01*
X104155295Y-77101712D01*
X104060261Y-77306446D01*
X104058082Y-77311141D01*
X103994996Y-77538623D01*
X103969910Y-77773355D01*
X102743000Y-77773355D01*
X102743000Y-72390000D01*
X103677515Y-72390000D01*
X103697442Y-72770221D01*
X103697955Y-72773461D01*
X103697956Y-72773469D01*
X103708045Y-72837167D01*
X103757003Y-73146276D01*
X103855546Y-73514045D01*
X103991992Y-73869498D01*
X104164846Y-74208742D01*
X104166642Y-74211508D01*
X104166644Y-74211511D01*
X104302961Y-74421422D01*
X104372213Y-74528060D01*
X104611822Y-74823953D01*
X104881047Y-75093178D01*
X105176940Y-75332787D01*
X105496258Y-75540154D01*
X105499192Y-75541649D01*
X105499199Y-75541653D01*
X105832562Y-75711510D01*
X105835502Y-75713008D01*
X106190955Y-75849454D01*
X106558724Y-75947997D01*
X106758608Y-75979655D01*
X106931531Y-76007044D01*
X106931539Y-76007045D01*
X106934779Y-76007558D01*
X107219883Y-76022500D01*
X107410117Y-76022500D01*
X107695221Y-76007558D01*
X107698461Y-76007045D01*
X107698469Y-76007044D01*
X107871392Y-75979655D01*
X108071276Y-75947997D01*
X108439045Y-75849454D01*
X108794498Y-75713008D01*
X108797438Y-75711510D01*
X109130801Y-75541653D01*
X109130808Y-75541649D01*
X109133742Y-75540154D01*
X109453060Y-75332787D01*
X109748953Y-75093178D01*
X110018178Y-74823953D01*
X110067344Y-74763237D01*
X110255705Y-74530632D01*
X110255712Y-74530623D01*
X110257787Y-74528060D01*
X110465154Y-74208743D01*
X110638008Y-73869498D01*
X110774454Y-73514045D01*
X110872997Y-73146276D01*
X110921955Y-72837167D01*
X110932044Y-72773469D01*
X110932045Y-72773461D01*
X110932558Y-72770221D01*
X110946388Y-72506343D01*
X154430775Y-72506343D01*
X154447381Y-72675699D01*
X154501094Y-72837167D01*
X154504741Y-72843189D01*
X154504742Y-72843191D01*
X154518497Y-72865902D01*
X154589246Y-72982723D01*
X154707455Y-73105132D01*
X154849846Y-73198310D01*
X154856450Y-73200766D01*
X154856452Y-73200767D01*
X154892844Y-73214301D01*
X155009341Y-73257626D01*
X155178015Y-73280132D01*
X155185026Y-73279494D01*
X155185030Y-73279494D01*
X155340462Y-73265348D01*
X155347483Y-73264709D01*
X155354185Y-73262531D01*
X155354187Y-73262531D01*
X155502623Y-73214301D01*
X155502626Y-73214300D01*
X155509322Y-73212124D01*
X155655490Y-73124990D01*
X155660584Y-73120139D01*
X155660588Y-73120136D01*
X155727833Y-73056099D01*
X155778721Y-73007639D01*
X155872891Y-72865902D01*
X155933319Y-72706825D01*
X155938668Y-72668762D01*
X155967955Y-72604088D01*
X155974347Y-72597202D01*
X156181549Y-72390000D01*
X165397515Y-72390000D01*
X165417442Y-72770221D01*
X165417955Y-72773461D01*
X165417956Y-72773469D01*
X165428045Y-72837167D01*
X165477003Y-73146276D01*
X165575546Y-73514045D01*
X165711992Y-73869498D01*
X165884846Y-74208742D01*
X165886642Y-74211508D01*
X165886644Y-74211511D01*
X166022961Y-74421422D01*
X166092213Y-74528060D01*
X166331822Y-74823953D01*
X166601047Y-75093178D01*
X166896940Y-75332787D01*
X167216258Y-75540154D01*
X167219192Y-75541649D01*
X167219199Y-75541653D01*
X167552562Y-75711510D01*
X167555502Y-75713008D01*
X167910955Y-75849454D01*
X168278724Y-75947997D01*
X168478608Y-75979655D01*
X168651531Y-76007044D01*
X168651539Y-76007045D01*
X168654779Y-76007558D01*
X168939883Y-76022500D01*
X169130117Y-76022500D01*
X169415221Y-76007558D01*
X169418461Y-76007045D01*
X169418469Y-76007044D01*
X169591392Y-75979655D01*
X169791276Y-75947997D01*
X170159045Y-75849454D01*
X170514498Y-75713008D01*
X170517438Y-75711510D01*
X170850801Y-75541653D01*
X170850808Y-75541649D01*
X170853742Y-75540154D01*
X171173060Y-75332787D01*
X171468953Y-75093178D01*
X171738178Y-74823953D01*
X171787344Y-74763237D01*
X171975705Y-74530632D01*
X171975712Y-74530623D01*
X171977787Y-74528060D01*
X172185154Y-74208743D01*
X172358008Y-73869498D01*
X172494454Y-73514045D01*
X172592997Y-73146276D01*
X172641955Y-72837167D01*
X172652044Y-72773469D01*
X172652045Y-72773461D01*
X172652558Y-72770221D01*
X172672485Y-72390000D01*
X172652558Y-72009779D01*
X172638409Y-71920441D01*
X172623505Y-71826346D01*
X172592997Y-71633724D01*
X172494454Y-71265955D01*
X172358008Y-70910502D01*
X172199543Y-70599498D01*
X172186653Y-70574199D01*
X172186649Y-70574192D01*
X172185154Y-70571258D01*
X172183355Y-70568487D01*
X172004987Y-70293825D01*
X171977787Y-70251940D01*
X171738178Y-69956047D01*
X171468953Y-69686822D01*
X171173060Y-69447213D01*
X170853742Y-69239846D01*
X170850808Y-69238351D01*
X170850801Y-69238347D01*
X170517438Y-69068490D01*
X170514498Y-69066992D01*
X170159045Y-68930546D01*
X169791276Y-68832003D01*
X169591392Y-68800345D01*
X169418469Y-68772956D01*
X169418461Y-68772955D01*
X169415221Y-68772442D01*
X169130117Y-68757500D01*
X168939883Y-68757500D01*
X168654779Y-68772442D01*
X168651539Y-68772955D01*
X168651531Y-68772956D01*
X168478608Y-68800345D01*
X168278724Y-68832003D01*
X167910955Y-68930546D01*
X167555502Y-69066992D01*
X167552562Y-69068490D01*
X167219199Y-69238347D01*
X167219192Y-69238351D01*
X167216258Y-69239846D01*
X166896940Y-69447213D01*
X166601047Y-69686822D01*
X166331822Y-69956047D01*
X166329737Y-69958622D01*
X166094295Y-70249368D01*
X166094288Y-70249377D01*
X166092213Y-70251940D01*
X165884846Y-70571257D01*
X165711992Y-70910502D01*
X165575546Y-71265955D01*
X165477003Y-71633724D01*
X165446495Y-71826346D01*
X165431592Y-71920441D01*
X165417442Y-72009779D01*
X165397515Y-72390000D01*
X156181549Y-72390000D01*
X157683621Y-70887928D01*
X157747382Y-70853596D01*
X157753463Y-70852348D01*
X157760483Y-70851709D01*
X157785747Y-70843500D01*
X157915623Y-70801301D01*
X157915626Y-70801300D01*
X157922322Y-70799124D01*
X158068490Y-70711990D01*
X158073584Y-70707139D01*
X158073588Y-70707136D01*
X158140833Y-70643099D01*
X158191721Y-70594639D01*
X158205302Y-70574199D01*
X158281990Y-70458773D01*
X158285891Y-70452902D01*
X158346319Y-70293825D01*
X158370001Y-70125313D01*
X158370299Y-70104000D01*
X158351331Y-69934892D01*
X158295368Y-69774189D01*
X158289383Y-69764610D01*
X158240774Y-69686822D01*
X158205192Y-69629879D01*
X158085286Y-69509132D01*
X158069039Y-69498821D01*
X157984878Y-69445411D01*
X157941608Y-69417951D01*
X157781300Y-69360868D01*
X157612329Y-69340720D01*
X157605326Y-69341456D01*
X157605325Y-69341456D01*
X157450101Y-69357770D01*
X157450097Y-69357771D01*
X157443093Y-69358507D01*
X157436422Y-69360778D01*
X157288673Y-69411075D01*
X157288670Y-69411076D01*
X157282003Y-69413346D01*
X157276005Y-69417036D01*
X157276003Y-69417037D01*
X157143065Y-69498821D01*
X157143063Y-69498823D01*
X157137066Y-69502512D01*
X157015486Y-69621573D01*
X156923304Y-69764610D01*
X156865103Y-69924516D01*
X156861713Y-69951348D01*
X156833333Y-70016421D01*
X156825803Y-70024648D01*
X155116233Y-71734218D01*
X155053921Y-71768244D01*
X155040313Y-71770432D01*
X155037107Y-71770769D01*
X155037100Y-71770771D01*
X155030093Y-71771507D01*
X155023422Y-71773778D01*
X154875673Y-71824075D01*
X154875670Y-71824076D01*
X154869003Y-71826346D01*
X154863005Y-71830036D01*
X154863003Y-71830037D01*
X154730065Y-71911821D01*
X154730063Y-71911823D01*
X154724066Y-71915512D01*
X154719033Y-71920441D01*
X154627805Y-72009779D01*
X154602486Y-72034573D01*
X154510304Y-72177610D01*
X154452103Y-72337516D01*
X154430775Y-72506343D01*
X110946388Y-72506343D01*
X110952485Y-72390000D01*
X110932558Y-72009779D01*
X110918409Y-71920441D01*
X110903505Y-71826346D01*
X110872997Y-71633724D01*
X110774454Y-71265955D01*
X110638008Y-70910502D01*
X110479543Y-70599498D01*
X110466653Y-70574199D01*
X110466649Y-70574192D01*
X110465154Y-70571258D01*
X110463355Y-70568487D01*
X110284987Y-70293825D01*
X110257787Y-70251940D01*
X110018178Y-69956047D01*
X109748953Y-69686822D01*
X109453060Y-69447213D01*
X109133742Y-69239846D01*
X109130808Y-69238351D01*
X109130801Y-69238347D01*
X108797438Y-69068490D01*
X108794498Y-69066992D01*
X108439045Y-68930546D01*
X108071276Y-68832003D01*
X107871392Y-68800345D01*
X107698469Y-68772956D01*
X107698461Y-68772955D01*
X107695221Y-68772442D01*
X107410117Y-68757500D01*
X107219883Y-68757500D01*
X106934779Y-68772442D01*
X106931539Y-68772955D01*
X106931531Y-68772956D01*
X106758608Y-68800345D01*
X106558724Y-68832003D01*
X106190955Y-68930546D01*
X105835502Y-69066992D01*
X105832562Y-69068490D01*
X105499199Y-69238347D01*
X105499192Y-69238351D01*
X105496258Y-69239846D01*
X105176940Y-69447213D01*
X104881047Y-69686822D01*
X104611822Y-69956047D01*
X104609737Y-69958622D01*
X104374295Y-70249368D01*
X104374288Y-70249377D01*
X104372213Y-70251940D01*
X104164846Y-70571257D01*
X103991992Y-70910502D01*
X103855546Y-71265955D01*
X103757003Y-71633724D01*
X103726495Y-71826346D01*
X103711592Y-71920441D01*
X103697442Y-72009779D01*
X103677515Y-72390000D01*
X102743000Y-72390000D01*
X102743000Y-68542670D01*
X103907160Y-68542670D01*
X103912887Y-68550320D01*
X104084042Y-68655205D01*
X104092837Y-68659687D01*
X104302988Y-68746734D01*
X104312373Y-68749783D01*
X104533554Y-68802885D01*
X104543301Y-68804428D01*
X104770070Y-68822275D01*
X104779930Y-68822275D01*
X105006699Y-68804428D01*
X105016446Y-68802885D01*
X105237627Y-68749783D01*
X105247012Y-68746734D01*
X105457163Y-68659687D01*
X105465958Y-68655205D01*
X105633445Y-68552568D01*
X105642400Y-68542670D01*
X170582160Y-68542670D01*
X170587887Y-68550320D01*
X170759042Y-68655205D01*
X170767837Y-68659687D01*
X170977988Y-68746734D01*
X170987373Y-68749783D01*
X171208554Y-68802885D01*
X171218301Y-68804428D01*
X171445070Y-68822275D01*
X171454930Y-68822275D01*
X171681699Y-68804428D01*
X171691446Y-68802885D01*
X171912627Y-68749783D01*
X171922012Y-68746734D01*
X172132163Y-68659687D01*
X172140958Y-68655205D01*
X172308445Y-68552568D01*
X172317907Y-68542110D01*
X172314124Y-68533334D01*
X171462812Y-67682022D01*
X171448868Y-67674408D01*
X171447035Y-67674539D01*
X171440420Y-67678790D01*
X170588920Y-68530290D01*
X170582160Y-68542670D01*
X105642400Y-68542670D01*
X105642907Y-68542110D01*
X105639124Y-68533334D01*
X104787812Y-67682022D01*
X104773868Y-67674408D01*
X104772035Y-67674539D01*
X104765420Y-67678790D01*
X103913920Y-68530290D01*
X103907160Y-68542670D01*
X102743000Y-68542670D01*
X102743000Y-67314930D01*
X103262725Y-67314930D01*
X103280572Y-67541699D01*
X103282115Y-67551446D01*
X103335217Y-67772627D01*
X103338266Y-67782012D01*
X103425313Y-67992163D01*
X103429795Y-68000958D01*
X103532432Y-68168445D01*
X103542890Y-68177907D01*
X103551666Y-68174124D01*
X104402978Y-67322812D01*
X104409356Y-67311132D01*
X105139408Y-67311132D01*
X105139539Y-67312965D01*
X105143790Y-67319580D01*
X105995290Y-68171080D01*
X106007670Y-68177840D01*
X106015320Y-68172113D01*
X106120205Y-68000958D01*
X106124687Y-67992163D01*
X106211734Y-67782012D01*
X106214783Y-67772627D01*
X106267885Y-67551446D01*
X106269428Y-67541699D01*
X106287275Y-67314930D01*
X169937725Y-67314930D01*
X169955572Y-67541699D01*
X169957115Y-67551446D01*
X170010217Y-67772627D01*
X170013266Y-67782012D01*
X170100313Y-67992163D01*
X170104795Y-68000958D01*
X170207432Y-68168445D01*
X170217890Y-68177907D01*
X170226666Y-68174124D01*
X171077978Y-67322812D01*
X171084356Y-67311132D01*
X171814408Y-67311132D01*
X171814539Y-67312965D01*
X171818790Y-67319580D01*
X172670290Y-68171080D01*
X172682670Y-68177840D01*
X172690320Y-68172113D01*
X172795205Y-68000958D01*
X172799687Y-67992163D01*
X172886734Y-67782012D01*
X172889783Y-67772627D01*
X172942885Y-67551446D01*
X172944428Y-67541699D01*
X172962275Y-67314930D01*
X172962275Y-67305070D01*
X172944428Y-67078301D01*
X172942885Y-67068554D01*
X172889783Y-66847373D01*
X172886734Y-66837988D01*
X172799687Y-66627837D01*
X172795205Y-66619042D01*
X172692568Y-66451555D01*
X172682110Y-66442093D01*
X172673334Y-66445876D01*
X171822022Y-67297188D01*
X171814408Y-67311132D01*
X171084356Y-67311132D01*
X171085592Y-67308868D01*
X171085461Y-67307035D01*
X171081210Y-67300420D01*
X170229710Y-66448920D01*
X170217330Y-66442160D01*
X170209680Y-66447887D01*
X170104795Y-66619042D01*
X170100313Y-66627837D01*
X170013266Y-66837988D01*
X170010217Y-66847373D01*
X169957115Y-67068554D01*
X169955572Y-67078301D01*
X169937725Y-67305070D01*
X169937725Y-67314930D01*
X106287275Y-67314930D01*
X106287275Y-67305070D01*
X106269428Y-67078301D01*
X106267885Y-67068554D01*
X106214783Y-66847373D01*
X106211734Y-66837988D01*
X106124687Y-66627837D01*
X106120205Y-66619042D01*
X106017568Y-66451555D01*
X106007110Y-66442093D01*
X105998334Y-66445876D01*
X105147022Y-67297188D01*
X105139408Y-67311132D01*
X104409356Y-67311132D01*
X104410592Y-67308868D01*
X104410461Y-67307035D01*
X104406210Y-67300420D01*
X103554710Y-66448920D01*
X103542330Y-66442160D01*
X103534680Y-66447887D01*
X103429795Y-66619042D01*
X103425313Y-66627837D01*
X103338266Y-66837988D01*
X103335217Y-66847373D01*
X103282115Y-67068554D01*
X103280572Y-67078301D01*
X103262725Y-67305070D01*
X103262725Y-67314930D01*
X102743000Y-67314930D01*
X102743000Y-66077890D01*
X103907093Y-66077890D01*
X103910876Y-66086666D01*
X104762188Y-66937978D01*
X104776132Y-66945592D01*
X104777965Y-66945461D01*
X104784580Y-66941210D01*
X105636080Y-66089710D01*
X105642534Y-66077890D01*
X170582093Y-66077890D01*
X170585876Y-66086666D01*
X171437188Y-66937978D01*
X171451132Y-66945592D01*
X171452965Y-66945461D01*
X171459580Y-66941210D01*
X172311080Y-66089710D01*
X172317840Y-66077330D01*
X172312113Y-66069680D01*
X172140958Y-65964795D01*
X172132163Y-65960313D01*
X171922012Y-65873266D01*
X171912627Y-65870217D01*
X171691446Y-65817115D01*
X171681699Y-65815572D01*
X171454930Y-65797725D01*
X171445070Y-65797725D01*
X171218301Y-65815572D01*
X171208554Y-65817115D01*
X170987373Y-65870217D01*
X170977988Y-65873266D01*
X170767837Y-65960313D01*
X170759042Y-65964795D01*
X170591555Y-66067432D01*
X170582093Y-66077890D01*
X105642534Y-66077890D01*
X105642840Y-66077330D01*
X105637113Y-66069680D01*
X105465958Y-65964795D01*
X105457163Y-65960313D01*
X105247012Y-65873266D01*
X105237627Y-65870217D01*
X105016446Y-65817115D01*
X105006699Y-65815572D01*
X104779930Y-65797725D01*
X104770070Y-65797725D01*
X104543301Y-65815572D01*
X104533554Y-65817115D01*
X104312373Y-65870217D01*
X104302988Y-65873266D01*
X104092837Y-65960313D01*
X104084042Y-65964795D01*
X103916555Y-66067432D01*
X103907093Y-66077890D01*
X102743000Y-66077890D01*
X102743000Y-65404000D01*
X102763002Y-65335879D01*
X102816658Y-65289386D01*
X102869000Y-65278000D01*
X173356000Y-65278000D01*
X173424121Y-65298002D01*
G37*
G04 #@! TD.AperFunction*
M02*
