M48
; DRILL file {KiCad 6.0.2+dfsg-1} date Wed 26 Apr 2023 08:29:41 PM CDT
; FORMAT={-:-/ absolute / metric / decimal}
; #@! TF.CreationDate,2023-04-26T20:29:41-05:00
; #@! TF.GenerationSoftware,Kicad,Pcbnew,6.0.2+dfsg-1
; #@! TF.FileFunction,Plated,1,2,PTH
FMAT,2
METRIC
; #@! TA.AperFunction,Plated,PTH,ViaDrill
T1C0.300
; #@! TA.AperFunction,Plated,PTH,ComponentDrill
T2C1.000
; #@! TA.AperFunction,Plated,PTH,ComponentDrill
T3C1.092
%
G90
G05
T1
X73.66Y-77.343
X74.93Y-78.74
X75.565Y-80.899
X75.565Y-83.185
X75.819Y-109.22
X76.2Y-88.265
X76.708Y-79.629
X76.835Y-82.55
X77.089Y-88.265
X78.105Y-75.438
X78.105Y-83.185
X78.359Y-99.187
X78.359Y-102.235
X78.74Y-95.504
X79.375Y-75.438
X79.375Y-83.185
X79.375Y-88.138
X79.883Y-110.49
X80.264Y-102.235
X80.32Y-108.133
X80.391Y-99.187
X80.772Y-92.075
X81.026Y-75.565
X81.153Y-95.631
X81.28Y-112.395
X81.534Y-79.375
X81.788Y-88.138
X81.915Y-88.9
X82.423Y-90.297
X82.55Y-76.581
X84.074Y-76.073
X84.201Y-107.823
X84.455Y-95.631
X84.582Y-88.9
X85.09Y-73.66
X85.725Y-74.295
X86.233Y-110.49
X86.995Y-98.552
X86.995Y-108.077
X87.376Y-112.522
X88.265Y-77.724
X88.265Y-79.121
X88.265Y-108.204
X89.027Y-100.33
X89.281Y-90.805
X89.281Y-94.234
X90.4Y-109.244
X91.44Y-112.268
X95.123Y-89.535
X95.123Y-90.678
X95.25Y-84.963
X95.377Y-91.948
X95.885Y-82.55
X96.266Y-89.535
X96.266Y-90.678
X97.155Y-82.55
X97.155Y-83.82
X97.155Y-103.505
X97.155Y-104.775
X97.409Y-89.535
X97.409Y-90.678
X97.79Y-88.265
X97.79Y-95.25
X97.917Y-110.236
X98.425Y-82.55
X98.425Y-83.82
X98.425Y-89.535
X98.425Y-90.678
X98.425Y-103.505
X98.425Y-104.775
X98.552Y-85.725
X98.552Y-92.71
X99.695Y-82.55
X99.695Y-83.82
X100.457Y-84.455
X100.457Y-91.186
X100.965Y-82.55
X102.235Y-101.473
X102.235Y-103.505
X102.235Y-106.68
T2
X74.295Y-111.76
X74.295Y-114.3
X92.71Y-88.265
X92.71Y-90.805
X95.25Y-104.14
X95.25Y-106.68
X95.25Y-109.22
X95.25Y-111.76
X95.25Y-114.3
X99.06Y-111.76
X99.06Y-114.3
X101.6Y-111.76
X101.6Y-114.3
T3
X90.805Y-74.93
X90.805Y-77.47
X90.805Y-80.01
X90.805Y-82.55
X90.805Y-96.52
X90.805Y-99.06
T0
M30
