%FSLAX45Y45*%
G04 Gerber Fmt 4.5, Leading zero omitted, Abs format (unit mm)*
G04 Created by KiCad (PCBNEW 6.0.2+dfsg-1) date 2023-04-26 20:29:48*
%MOMM*%
%LPD*%
G01*
G04 APERTURE LIST*
%TA.AperFunction,Profile*%
%ADD10C,0.100000*%
%TD*%
%ADD11C,0.200000*%
%ADD12C,0.030000*%
%ADD13C,0.100000*%
%ADD14C,0.109220*%
G04 APERTURE END LIST*
D10*
X10350500Y-7239000D02*
X10350500Y-11620500D01*
X7239000Y-7239000D02*
X10350500Y-7239000D01*
X10350500Y-11620500D02*
X7239000Y-11620500D01*
X7239000Y-11620500D02*
X7239000Y-7239000D01*
D11*
D12*
X7351000Y-7719300D02*
X7381000Y-7749300D01*
X7381000Y-7719300D02*
X7351000Y-7749300D01*
X7478000Y-7859000D02*
X7508000Y-7889000D01*
X7508000Y-7859000D02*
X7478000Y-7889000D01*
X7541500Y-8074900D02*
X7571500Y-8104900D01*
X7571500Y-8074900D02*
X7541500Y-8104900D01*
X7541500Y-8303500D02*
X7571500Y-8333500D01*
X7571500Y-8303500D02*
X7541500Y-8333500D01*
X7566900Y-10907000D02*
X7596900Y-10937000D01*
X7596900Y-10907000D02*
X7566900Y-10937000D01*
X7605000Y-8811500D02*
X7635000Y-8841500D01*
X7635000Y-8811500D02*
X7605000Y-8841500D01*
X7655800Y-7947900D02*
X7685800Y-7977900D01*
X7685800Y-7947900D02*
X7655800Y-7977900D01*
X7668500Y-8240000D02*
X7698500Y-8270000D01*
X7698500Y-8240000D02*
X7668500Y-8270000D01*
X7693900Y-8811500D02*
X7723900Y-8841500D01*
X7723900Y-8811500D02*
X7693900Y-8841500D01*
X7795500Y-7528800D02*
X7825500Y-7558800D01*
X7825500Y-7528800D02*
X7795500Y-7558800D01*
X7795500Y-8303500D02*
X7825500Y-8333500D01*
X7825500Y-8303500D02*
X7795500Y-8333500D01*
X7820900Y-9903700D02*
X7850900Y-9933700D01*
X7850900Y-9903700D02*
X7820900Y-9933700D01*
X7820900Y-10208500D02*
X7850900Y-10238500D01*
X7850900Y-10208500D02*
X7820900Y-10238500D01*
X7859000Y-9535400D02*
X7889000Y-9565400D01*
X7889000Y-9535400D02*
X7859000Y-9565400D01*
X7922500Y-7528800D02*
X7952500Y-7558800D01*
X7952500Y-7528800D02*
X7922500Y-7558800D01*
X7922500Y-8303500D02*
X7952500Y-8333500D01*
X7952500Y-8303500D02*
X7922500Y-8333500D01*
X7922500Y-8798800D02*
X7952500Y-8828800D01*
X7952500Y-8798800D02*
X7922500Y-8828800D01*
X7973300Y-11034000D02*
X8003300Y-11064000D01*
X8003300Y-11034000D02*
X7973300Y-11064000D01*
X8011400Y-10208500D02*
X8041400Y-10238500D01*
X8041400Y-10208500D02*
X8011400Y-10238500D01*
X8017000Y-10798300D02*
X8047000Y-10828300D01*
X8047000Y-10798300D02*
X8017000Y-10828300D01*
X8024100Y-9903700D02*
X8054100Y-9933700D01*
X8054100Y-9903700D02*
X8024100Y-9933700D01*
X8062200Y-9192500D02*
X8092200Y-9222500D01*
X8092200Y-9192500D02*
X8062200Y-9222500D01*
X8087600Y-7541500D02*
X8117600Y-7571500D01*
X8117600Y-7541500D02*
X8087600Y-7571500D01*
X8100300Y-9548100D02*
X8130300Y-9578100D01*
X8130300Y-9548100D02*
X8100300Y-9578100D01*
X8113000Y-11224500D02*
X8143000Y-11254500D01*
X8143000Y-11224500D02*
X8113000Y-11254500D01*
X8138400Y-7922500D02*
X8168400Y-7952500D01*
X8168400Y-7922500D02*
X8138400Y-7952500D01*
X8163800Y-8798800D02*
X8193800Y-8828800D01*
X8193800Y-8798800D02*
X8163800Y-8828800D01*
X8176500Y-8875000D02*
X8206500Y-8905000D01*
X8206500Y-8875000D02*
X8176500Y-8905000D01*
X8227300Y-9014700D02*
X8257300Y-9044700D01*
X8257300Y-9014700D02*
X8227300Y-9044700D01*
X8240000Y-7643100D02*
X8270000Y-7673100D01*
X8270000Y-7643100D02*
X8240000Y-7673100D01*
X8392400Y-7592300D02*
X8422400Y-7622300D01*
X8422400Y-7592300D02*
X8392400Y-7622300D01*
X8405100Y-10767300D02*
X8435100Y-10797300D01*
X8435100Y-10767300D02*
X8405100Y-10797300D01*
X8430500Y-9548100D02*
X8460500Y-9578100D01*
X8460500Y-9548100D02*
X8430500Y-9578100D01*
X8443200Y-8875000D02*
X8473200Y-8905000D01*
X8473200Y-8875000D02*
X8443200Y-8905000D01*
X8494000Y-7351000D02*
X8524000Y-7381000D01*
X8524000Y-7351000D02*
X8494000Y-7381000D01*
X8557500Y-7414500D02*
X8587500Y-7444500D01*
X8587500Y-7414500D02*
X8557500Y-7444500D01*
X8608300Y-11034000D02*
X8638300Y-11064000D01*
X8638300Y-11034000D02*
X8608300Y-11064000D01*
X8684500Y-9840200D02*
X8714500Y-9870200D01*
X8714500Y-9840200D02*
X8684500Y-9870200D01*
X8684500Y-10792700D02*
X8714500Y-10822700D01*
X8714500Y-10792700D02*
X8684500Y-10822700D01*
X8722600Y-11237200D02*
X8752600Y-11267200D01*
X8752600Y-11237200D02*
X8722600Y-11267200D01*
X8811500Y-7757400D02*
X8841500Y-7787400D01*
X8841500Y-7757400D02*
X8811500Y-7787400D01*
X8811500Y-7897100D02*
X8841500Y-7927100D01*
X8841500Y-7897100D02*
X8811500Y-7927100D01*
X8811500Y-10805400D02*
X8841500Y-10835400D01*
X8841500Y-10805400D02*
X8811500Y-10835400D01*
X8887700Y-10018000D02*
X8917700Y-10048000D01*
X8917700Y-10018000D02*
X8887700Y-10048000D01*
X8913100Y-9065500D02*
X8943100Y-9095500D01*
X8943100Y-9065500D02*
X8913100Y-9095500D01*
X8913100Y-9408400D02*
X8943100Y-9438400D01*
X8943100Y-9408400D02*
X8913100Y-9438400D01*
X9025000Y-10909400D02*
X9055000Y-10939400D01*
X9055000Y-10909400D02*
X9025000Y-10939400D01*
X9129000Y-11211800D02*
X9159000Y-11241800D01*
X9159000Y-11211800D02*
X9129000Y-11241800D01*
X9497300Y-8938500D02*
X9527300Y-8968500D01*
X9527300Y-8938500D02*
X9497300Y-8968500D01*
X9497300Y-9052800D02*
X9527300Y-9082800D01*
X9527300Y-9052800D02*
X9497300Y-9082800D01*
X9510000Y-8481300D02*
X9540000Y-8511300D01*
X9540000Y-8481300D02*
X9510000Y-8511300D01*
X9522700Y-9179800D02*
X9552700Y-9209800D01*
X9552700Y-9179800D02*
X9522700Y-9209800D01*
X9573500Y-8240000D02*
X9603500Y-8270000D01*
X9603500Y-8240000D02*
X9573500Y-8270000D01*
X9611600Y-8938500D02*
X9641600Y-8968500D01*
X9641600Y-8938500D02*
X9611600Y-8968500D01*
X9611600Y-9052800D02*
X9641600Y-9082800D01*
X9641600Y-9052800D02*
X9611600Y-9082800D01*
X9700500Y-8240000D02*
X9730500Y-8270000D01*
X9730500Y-8240000D02*
X9700500Y-8270000D01*
X9700500Y-8367000D02*
X9730500Y-8397000D01*
X9730500Y-8367000D02*
X9700500Y-8397000D01*
X9700500Y-10335500D02*
X9730500Y-10365500D01*
X9730500Y-10335500D02*
X9700500Y-10365500D01*
X9700500Y-10462500D02*
X9730500Y-10492500D01*
X9730500Y-10462500D02*
X9700500Y-10492500D01*
X9725900Y-8938500D02*
X9755900Y-8968500D01*
X9755900Y-8938500D02*
X9725900Y-8968500D01*
X9725900Y-9052800D02*
X9755900Y-9082800D01*
X9755900Y-9052800D02*
X9725900Y-9082800D01*
X9764000Y-8811500D02*
X9794000Y-8841500D01*
X9794000Y-8811500D02*
X9764000Y-8841500D01*
X9764000Y-9510000D02*
X9794000Y-9540000D01*
X9794000Y-9510000D02*
X9764000Y-9540000D01*
X9776700Y-11008600D02*
X9806700Y-11038600D01*
X9806700Y-11008600D02*
X9776700Y-11038600D01*
X9827500Y-8240000D02*
X9857500Y-8270000D01*
X9857500Y-8240000D02*
X9827500Y-8270000D01*
X9827500Y-8367000D02*
X9857500Y-8397000D01*
X9857500Y-8367000D02*
X9827500Y-8397000D01*
X9827500Y-8938500D02*
X9857500Y-8968500D01*
X9857500Y-8938500D02*
X9827500Y-8968500D01*
X9827500Y-9052800D02*
X9857500Y-9082800D01*
X9857500Y-9052800D02*
X9827500Y-9082800D01*
X9827500Y-10335500D02*
X9857500Y-10365500D01*
X9857500Y-10335500D02*
X9827500Y-10365500D01*
X9827500Y-10462500D02*
X9857500Y-10492500D01*
X9857500Y-10462500D02*
X9827500Y-10492500D01*
X9840200Y-8557500D02*
X9870200Y-8587500D01*
X9870200Y-8557500D02*
X9840200Y-8587500D01*
X9840200Y-9256000D02*
X9870200Y-9286000D01*
X9870200Y-9256000D02*
X9840200Y-9286000D01*
X9954500Y-8240000D02*
X9984500Y-8270000D01*
X9984500Y-8240000D02*
X9954500Y-8270000D01*
X9954500Y-8367000D02*
X9984500Y-8397000D01*
X9984500Y-8367000D02*
X9954500Y-8397000D01*
X10030700Y-8430500D02*
X10060700Y-8460500D01*
X10060700Y-8430500D02*
X10030700Y-8460500D01*
X10030700Y-9103600D02*
X10060700Y-9133600D01*
X10060700Y-9103600D02*
X10030700Y-9133600D01*
X10081500Y-8240000D02*
X10111500Y-8270000D01*
X10111500Y-8240000D02*
X10081500Y-8270000D01*
X10208500Y-10132300D02*
X10238500Y-10162300D01*
X10238500Y-10132300D02*
X10208500Y-10162300D01*
X10208500Y-10335500D02*
X10238500Y-10365500D01*
X10238500Y-10335500D02*
X10208500Y-10365500D01*
X10208500Y-10653000D02*
X10238500Y-10683000D01*
X10238500Y-10653000D02*
X10208500Y-10683000D01*
D13*
X7479500Y-11176000D02*
G75*
G03*
X7479500Y-11176000I-50000J0D01*
G01*
X7479500Y-11430000D02*
G75*
G03*
X7479500Y-11430000I-50000J0D01*
G01*
X9321000Y-8826500D02*
G75*
G03*
X9321000Y-8826500I-50000J0D01*
G01*
X9321000Y-9080500D02*
G75*
G03*
X9321000Y-9080500I-50000J0D01*
G01*
X9575000Y-10414000D02*
G75*
G03*
X9575000Y-10414000I-50000J0D01*
G01*
X9575000Y-10668000D02*
G75*
G03*
X9575000Y-10668000I-50000J0D01*
G01*
X9575000Y-10922000D02*
G75*
G03*
X9575000Y-10922000I-50000J0D01*
G01*
X9575000Y-11176000D02*
G75*
G03*
X9575000Y-11176000I-50000J0D01*
G01*
X9575000Y-11430000D02*
G75*
G03*
X9575000Y-11430000I-50000J0D01*
G01*
X9956000Y-11176000D02*
G75*
G03*
X9956000Y-11176000I-50000J0D01*
G01*
X9956000Y-11430000D02*
G75*
G03*
X9956000Y-11430000I-50000J0D01*
G01*
X10210000Y-11176000D02*
G75*
G03*
X10210000Y-11176000I-50000J0D01*
G01*
X10210000Y-11430000D02*
G75*
G03*
X10210000Y-11430000I-50000J0D01*
G01*
D14*
X9080500Y-7438390D02*
X9080500Y-7547610D01*
X9025890Y-7493000D02*
X9135110Y-7493000D01*
X9080500Y-7692390D02*
X9080500Y-7801610D01*
X9025890Y-7747000D02*
X9135110Y-7747000D01*
X9080500Y-7946390D02*
X9080500Y-8055610D01*
X9025890Y-8001000D02*
X9135110Y-8001000D01*
X9080500Y-8200390D02*
X9080500Y-8309610D01*
X9025890Y-8255000D02*
X9135110Y-8255000D01*
X9080500Y-9597390D02*
X9080500Y-9706610D01*
X9025890Y-9652000D02*
X9135110Y-9652000D01*
X9080500Y-9851390D02*
X9080500Y-9960610D01*
X9025890Y-9906000D02*
X9135110Y-9906000D01*
D11*
X7491619Y-11935976D02*
X7491619Y-11735976D01*
X7539238Y-11735976D01*
X7567809Y-11745500D01*
X7586857Y-11764548D01*
X7596381Y-11783595D01*
X7605905Y-11821690D01*
X7605905Y-11850262D01*
X7596381Y-11888357D01*
X7586857Y-11907405D01*
X7567809Y-11926452D01*
X7539238Y-11935976D01*
X7491619Y-11935976D01*
X7691619Y-11935976D02*
X7691619Y-11802643D01*
X7691619Y-11840738D02*
X7701143Y-11821690D01*
X7710667Y-11812167D01*
X7729714Y-11802643D01*
X7748762Y-11802643D01*
X7815428Y-11935976D02*
X7815428Y-11802643D01*
X7815428Y-11735976D02*
X7805905Y-11745500D01*
X7815428Y-11755024D01*
X7824952Y-11745500D01*
X7815428Y-11735976D01*
X7815428Y-11755024D01*
X7939238Y-11935976D02*
X7920190Y-11926452D01*
X7910667Y-11907405D01*
X7910667Y-11735976D01*
X8044000Y-11935976D02*
X8024952Y-11926452D01*
X8015428Y-11907405D01*
X8015428Y-11735976D01*
X8272571Y-11935976D02*
X8272571Y-11735976D01*
X8339238Y-11878833D01*
X8405905Y-11735976D01*
X8405905Y-11935976D01*
X8586857Y-11935976D02*
X8586857Y-11831214D01*
X8577333Y-11812167D01*
X8558286Y-11802643D01*
X8520190Y-11802643D01*
X8501143Y-11812167D01*
X8586857Y-11926452D02*
X8567810Y-11935976D01*
X8520190Y-11935976D01*
X8501143Y-11926452D01*
X8491619Y-11907405D01*
X8491619Y-11888357D01*
X8501143Y-11869309D01*
X8520190Y-11859786D01*
X8567810Y-11859786D01*
X8586857Y-11850262D01*
X8682095Y-11802643D02*
X8682095Y-12002643D01*
X8682095Y-11812167D02*
X8701143Y-11802643D01*
X8739238Y-11802643D01*
X8758286Y-11812167D01*
X8767810Y-11821690D01*
X8777333Y-11840738D01*
X8777333Y-11897881D01*
X8767810Y-11916928D01*
X8758286Y-11926452D01*
X8739238Y-11935976D01*
X8701143Y-11935976D01*
X8682095Y-11926452D01*
X8863048Y-11916928D02*
X8872571Y-11926452D01*
X8863048Y-11935976D01*
X8853524Y-11926452D01*
X8863048Y-11916928D01*
X8863048Y-11935976D01*
X8863048Y-11812167D02*
X8872571Y-11821690D01*
X8863048Y-11831214D01*
X8853524Y-11821690D01*
X8863048Y-11812167D01*
X8863048Y-11831214D01*
D12*
X7204000Y-12250500D02*
X7234000Y-12280500D01*
X7234000Y-12250500D02*
X7204000Y-12280500D01*
D11*
X7529714Y-12155976D02*
X7548762Y-12155976D01*
X7567809Y-12165500D01*
X7577333Y-12175024D01*
X7586857Y-12194071D01*
X7596381Y-12232167D01*
X7596381Y-12279786D01*
X7586857Y-12317881D01*
X7577333Y-12336928D01*
X7567809Y-12346452D01*
X7548762Y-12355976D01*
X7529714Y-12355976D01*
X7510667Y-12346452D01*
X7501143Y-12336928D01*
X7491619Y-12317881D01*
X7482095Y-12279786D01*
X7482095Y-12232167D01*
X7491619Y-12194071D01*
X7501143Y-12175024D01*
X7510667Y-12165500D01*
X7529714Y-12155976D01*
X7682095Y-12336928D02*
X7691619Y-12346452D01*
X7682095Y-12355976D01*
X7672571Y-12346452D01*
X7682095Y-12336928D01*
X7682095Y-12355976D01*
X7758286Y-12155976D02*
X7882095Y-12155976D01*
X7815428Y-12232167D01*
X7844000Y-12232167D01*
X7863048Y-12241690D01*
X7872571Y-12251214D01*
X7882095Y-12270262D01*
X7882095Y-12317881D01*
X7872571Y-12336928D01*
X7863048Y-12346452D01*
X7844000Y-12355976D01*
X7786857Y-12355976D01*
X7767809Y-12346452D01*
X7758286Y-12336928D01*
X8005905Y-12155976D02*
X8024952Y-12155976D01*
X8044000Y-12165500D01*
X8053524Y-12175024D01*
X8063048Y-12194071D01*
X8072571Y-12232167D01*
X8072571Y-12279786D01*
X8063048Y-12317881D01*
X8053524Y-12336928D01*
X8044000Y-12346452D01*
X8024952Y-12355976D01*
X8005905Y-12355976D01*
X7986857Y-12346452D01*
X7977333Y-12336928D01*
X7967809Y-12317881D01*
X7958286Y-12279786D01*
X7958286Y-12232167D01*
X7967809Y-12194071D01*
X7977333Y-12175024D01*
X7986857Y-12165500D01*
X8005905Y-12155976D01*
X8196381Y-12155976D02*
X8215428Y-12155976D01*
X8234476Y-12165500D01*
X8244000Y-12175024D01*
X8253524Y-12194071D01*
X8263048Y-12232167D01*
X8263048Y-12279786D01*
X8253524Y-12317881D01*
X8244000Y-12336928D01*
X8234476Y-12346452D01*
X8215428Y-12355976D01*
X8196381Y-12355976D01*
X8177333Y-12346452D01*
X8167809Y-12336928D01*
X8158286Y-12317881D01*
X8148762Y-12279786D01*
X8148762Y-12232167D01*
X8158286Y-12194071D01*
X8167809Y-12175024D01*
X8177333Y-12165500D01*
X8196381Y-12155976D01*
X8348762Y-12355976D02*
X8348762Y-12222643D01*
X8348762Y-12241690D02*
X8358286Y-12232167D01*
X8377333Y-12222643D01*
X8405905Y-12222643D01*
X8424952Y-12232167D01*
X8434476Y-12251214D01*
X8434476Y-12355976D01*
X8434476Y-12251214D02*
X8444000Y-12232167D01*
X8463048Y-12222643D01*
X8491619Y-12222643D01*
X8510667Y-12232167D01*
X8520190Y-12251214D01*
X8520190Y-12355976D01*
X8615429Y-12355976D02*
X8615429Y-12222643D01*
X8615429Y-12241690D02*
X8624952Y-12232167D01*
X8644000Y-12222643D01*
X8672571Y-12222643D01*
X8691619Y-12232167D01*
X8701143Y-12251214D01*
X8701143Y-12355976D01*
X8701143Y-12251214D02*
X8710667Y-12232167D01*
X8729714Y-12222643D01*
X8758286Y-12222643D01*
X8777333Y-12232167D01*
X8786857Y-12251214D01*
X8786857Y-12355976D01*
X9177333Y-12146452D02*
X9005905Y-12403595D01*
X9434476Y-12155976D02*
X9453524Y-12155976D01*
X9472571Y-12165500D01*
X9482095Y-12175024D01*
X9491619Y-12194071D01*
X9501143Y-12232167D01*
X9501143Y-12279786D01*
X9491619Y-12317881D01*
X9482095Y-12336928D01*
X9472571Y-12346452D01*
X9453524Y-12355976D01*
X9434476Y-12355976D01*
X9415429Y-12346452D01*
X9405905Y-12336928D01*
X9396381Y-12317881D01*
X9386857Y-12279786D01*
X9386857Y-12232167D01*
X9396381Y-12194071D01*
X9405905Y-12175024D01*
X9415429Y-12165500D01*
X9434476Y-12155976D01*
X9586857Y-12336928D02*
X9596381Y-12346452D01*
X9586857Y-12355976D01*
X9577333Y-12346452D01*
X9586857Y-12336928D01*
X9586857Y-12355976D01*
X9720190Y-12155976D02*
X9739238Y-12155976D01*
X9758286Y-12165500D01*
X9767810Y-12175024D01*
X9777333Y-12194071D01*
X9786857Y-12232167D01*
X9786857Y-12279786D01*
X9777333Y-12317881D01*
X9767810Y-12336928D01*
X9758286Y-12346452D01*
X9739238Y-12355976D01*
X9720190Y-12355976D01*
X9701143Y-12346452D01*
X9691619Y-12336928D01*
X9682095Y-12317881D01*
X9672571Y-12279786D01*
X9672571Y-12232167D01*
X9682095Y-12194071D01*
X9691619Y-12175024D01*
X9701143Y-12165500D01*
X9720190Y-12155976D01*
X9977333Y-12355976D02*
X9863048Y-12355976D01*
X9920190Y-12355976D02*
X9920190Y-12155976D01*
X9901143Y-12184548D01*
X9882095Y-12203595D01*
X9863048Y-12213119D01*
X10167810Y-12355976D02*
X10053524Y-12355976D01*
X10110667Y-12355976D02*
X10110667Y-12155976D01*
X10091619Y-12184548D01*
X10072571Y-12203595D01*
X10053524Y-12213119D01*
X10282095Y-12241690D02*
X10263048Y-12232167D01*
X10253524Y-12222643D01*
X10244000Y-12203595D01*
X10244000Y-12194071D01*
X10253524Y-12175024D01*
X10263048Y-12165500D01*
X10282095Y-12155976D01*
X10320190Y-12155976D01*
X10339238Y-12165500D01*
X10348762Y-12175024D01*
X10358286Y-12194071D01*
X10358286Y-12203595D01*
X10348762Y-12222643D01*
X10339238Y-12232167D01*
X10320190Y-12241690D01*
X10282095Y-12241690D01*
X10263048Y-12251214D01*
X10253524Y-12260738D01*
X10244000Y-12279786D01*
X10244000Y-12317881D01*
X10253524Y-12336928D01*
X10263048Y-12346452D01*
X10282095Y-12355976D01*
X10320190Y-12355976D01*
X10339238Y-12346452D01*
X10348762Y-12336928D01*
X10358286Y-12317881D01*
X10358286Y-12279786D01*
X10348762Y-12260738D01*
X10339238Y-12251214D01*
X10320190Y-12241690D01*
X10434476Y-12155976D02*
X10434476Y-12194071D01*
X10510667Y-12155976D02*
X10510667Y-12194071D01*
X10805905Y-12432167D02*
X10796381Y-12422643D01*
X10777333Y-12394071D01*
X10767810Y-12375024D01*
X10758286Y-12346452D01*
X10748762Y-12298833D01*
X10748762Y-12260738D01*
X10758286Y-12213119D01*
X10767810Y-12184548D01*
X10777333Y-12165500D01*
X10796381Y-12136928D01*
X10805905Y-12127405D01*
X10910667Y-12241690D02*
X10891619Y-12232167D01*
X10882095Y-12222643D01*
X10872571Y-12203595D01*
X10872571Y-12194071D01*
X10882095Y-12175024D01*
X10891619Y-12165500D01*
X10910667Y-12155976D01*
X10948762Y-12155976D01*
X10967810Y-12165500D01*
X10977333Y-12175024D01*
X10986857Y-12194071D01*
X10986857Y-12203595D01*
X10977333Y-12222643D01*
X10967810Y-12232167D01*
X10948762Y-12241690D01*
X10910667Y-12241690D01*
X10891619Y-12251214D01*
X10882095Y-12260738D01*
X10872571Y-12279786D01*
X10872571Y-12317881D01*
X10882095Y-12336928D01*
X10891619Y-12346452D01*
X10910667Y-12355976D01*
X10948762Y-12355976D01*
X10967810Y-12346452D01*
X10977333Y-12336928D01*
X10986857Y-12317881D01*
X10986857Y-12279786D01*
X10977333Y-12260738D01*
X10967810Y-12251214D01*
X10948762Y-12241690D01*
X11110667Y-12155976D02*
X11129714Y-12155976D01*
X11148762Y-12165500D01*
X11158286Y-12175024D01*
X11167810Y-12194071D01*
X11177333Y-12232167D01*
X11177333Y-12279786D01*
X11167810Y-12317881D01*
X11158286Y-12336928D01*
X11148762Y-12346452D01*
X11129714Y-12355976D01*
X11110667Y-12355976D01*
X11091619Y-12346452D01*
X11082095Y-12336928D01*
X11072571Y-12317881D01*
X11063048Y-12279786D01*
X11063048Y-12232167D01*
X11072571Y-12194071D01*
X11082095Y-12175024D01*
X11091619Y-12165500D01*
X11110667Y-12155976D01*
X11415428Y-12355976D02*
X11415428Y-12155976D01*
X11501143Y-12355976D02*
X11501143Y-12251214D01*
X11491619Y-12232167D01*
X11472571Y-12222643D01*
X11444000Y-12222643D01*
X11424952Y-12232167D01*
X11415428Y-12241690D01*
X11624952Y-12355976D02*
X11605905Y-12346452D01*
X11596381Y-12336928D01*
X11586857Y-12317881D01*
X11586857Y-12260738D01*
X11596381Y-12241690D01*
X11605905Y-12232167D01*
X11624952Y-12222643D01*
X11653524Y-12222643D01*
X11672571Y-12232167D01*
X11682095Y-12241690D01*
X11691619Y-12260738D01*
X11691619Y-12317881D01*
X11682095Y-12336928D01*
X11672571Y-12346452D01*
X11653524Y-12355976D01*
X11624952Y-12355976D01*
X11805905Y-12355976D02*
X11786857Y-12346452D01*
X11777333Y-12327405D01*
X11777333Y-12155976D01*
X11958286Y-12346452D02*
X11939238Y-12355976D01*
X11901143Y-12355976D01*
X11882095Y-12346452D01*
X11872571Y-12327405D01*
X11872571Y-12251214D01*
X11882095Y-12232167D01*
X11901143Y-12222643D01*
X11939238Y-12222643D01*
X11958286Y-12232167D01*
X11967809Y-12251214D01*
X11967809Y-12270262D01*
X11872571Y-12289309D01*
X12044000Y-12346452D02*
X12063048Y-12355976D01*
X12101143Y-12355976D01*
X12120190Y-12346452D01*
X12129714Y-12327405D01*
X12129714Y-12317881D01*
X12120190Y-12298833D01*
X12101143Y-12289309D01*
X12072571Y-12289309D01*
X12053524Y-12279786D01*
X12044000Y-12260738D01*
X12044000Y-12251214D01*
X12053524Y-12232167D01*
X12072571Y-12222643D01*
X12101143Y-12222643D01*
X12120190Y-12232167D01*
X12196381Y-12432167D02*
X12205905Y-12422643D01*
X12224952Y-12394071D01*
X12234476Y-12375024D01*
X12244000Y-12346452D01*
X12253524Y-12298833D01*
X12253524Y-12260738D01*
X12244000Y-12213119D01*
X12234476Y-12184548D01*
X12224952Y-12165500D01*
X12205905Y-12136928D01*
X12196381Y-12127405D01*
D13*
X7234000Y-12529500D02*
G75*
G03*
X7234000Y-12529500I-50000J0D01*
G01*
D11*
X7596381Y-12619976D02*
X7482095Y-12619976D01*
X7539238Y-12619976D02*
X7539238Y-12419976D01*
X7520190Y-12448548D01*
X7501143Y-12467595D01*
X7482095Y-12477119D01*
X7682095Y-12600928D02*
X7691619Y-12610452D01*
X7682095Y-12619976D01*
X7672571Y-12610452D01*
X7682095Y-12600928D01*
X7682095Y-12619976D01*
X7815428Y-12419976D02*
X7834476Y-12419976D01*
X7853524Y-12429500D01*
X7863048Y-12439024D01*
X7872571Y-12458071D01*
X7882095Y-12496167D01*
X7882095Y-12543786D01*
X7872571Y-12581881D01*
X7863048Y-12600928D01*
X7853524Y-12610452D01*
X7834476Y-12619976D01*
X7815428Y-12619976D01*
X7796381Y-12610452D01*
X7786857Y-12600928D01*
X7777333Y-12581881D01*
X7767809Y-12543786D01*
X7767809Y-12496167D01*
X7777333Y-12458071D01*
X7786857Y-12439024D01*
X7796381Y-12429500D01*
X7815428Y-12419976D01*
X8005905Y-12419976D02*
X8024952Y-12419976D01*
X8044000Y-12429500D01*
X8053524Y-12439024D01*
X8063048Y-12458071D01*
X8072571Y-12496167D01*
X8072571Y-12543786D01*
X8063048Y-12581881D01*
X8053524Y-12600928D01*
X8044000Y-12610452D01*
X8024952Y-12619976D01*
X8005905Y-12619976D01*
X7986857Y-12610452D01*
X7977333Y-12600928D01*
X7967809Y-12581881D01*
X7958286Y-12543786D01*
X7958286Y-12496167D01*
X7967809Y-12458071D01*
X7977333Y-12439024D01*
X7986857Y-12429500D01*
X8005905Y-12419976D01*
X8196381Y-12419976D02*
X8215428Y-12419976D01*
X8234476Y-12429500D01*
X8244000Y-12439024D01*
X8253524Y-12458071D01*
X8263048Y-12496167D01*
X8263048Y-12543786D01*
X8253524Y-12581881D01*
X8244000Y-12600928D01*
X8234476Y-12610452D01*
X8215428Y-12619976D01*
X8196381Y-12619976D01*
X8177333Y-12610452D01*
X8167809Y-12600928D01*
X8158286Y-12581881D01*
X8148762Y-12543786D01*
X8148762Y-12496167D01*
X8158286Y-12458071D01*
X8167809Y-12439024D01*
X8177333Y-12429500D01*
X8196381Y-12419976D01*
X8348762Y-12619976D02*
X8348762Y-12486643D01*
X8348762Y-12505690D02*
X8358286Y-12496167D01*
X8377333Y-12486643D01*
X8405905Y-12486643D01*
X8424952Y-12496167D01*
X8434476Y-12515214D01*
X8434476Y-12619976D01*
X8434476Y-12515214D02*
X8444000Y-12496167D01*
X8463048Y-12486643D01*
X8491619Y-12486643D01*
X8510667Y-12496167D01*
X8520190Y-12515214D01*
X8520190Y-12619976D01*
X8615429Y-12619976D02*
X8615429Y-12486643D01*
X8615429Y-12505690D02*
X8624952Y-12496167D01*
X8644000Y-12486643D01*
X8672571Y-12486643D01*
X8691619Y-12496167D01*
X8701143Y-12515214D01*
X8701143Y-12619976D01*
X8701143Y-12515214D02*
X8710667Y-12496167D01*
X8729714Y-12486643D01*
X8758286Y-12486643D01*
X8777333Y-12496167D01*
X8786857Y-12515214D01*
X8786857Y-12619976D01*
X9177333Y-12410452D02*
X9005905Y-12667595D01*
X9434476Y-12419976D02*
X9453524Y-12419976D01*
X9472571Y-12429500D01*
X9482095Y-12439024D01*
X9491619Y-12458071D01*
X9501143Y-12496167D01*
X9501143Y-12543786D01*
X9491619Y-12581881D01*
X9482095Y-12600928D01*
X9472571Y-12610452D01*
X9453524Y-12619976D01*
X9434476Y-12619976D01*
X9415429Y-12610452D01*
X9405905Y-12600928D01*
X9396381Y-12581881D01*
X9386857Y-12543786D01*
X9386857Y-12496167D01*
X9396381Y-12458071D01*
X9405905Y-12439024D01*
X9415429Y-12429500D01*
X9434476Y-12419976D01*
X9586857Y-12600928D02*
X9596381Y-12610452D01*
X9586857Y-12619976D01*
X9577333Y-12610452D01*
X9586857Y-12600928D01*
X9586857Y-12619976D01*
X9720190Y-12419976D02*
X9739238Y-12419976D01*
X9758286Y-12429500D01*
X9767810Y-12439024D01*
X9777333Y-12458071D01*
X9786857Y-12496167D01*
X9786857Y-12543786D01*
X9777333Y-12581881D01*
X9767810Y-12600928D01*
X9758286Y-12610452D01*
X9739238Y-12619976D01*
X9720190Y-12619976D01*
X9701143Y-12610452D01*
X9691619Y-12600928D01*
X9682095Y-12581881D01*
X9672571Y-12543786D01*
X9672571Y-12496167D01*
X9682095Y-12458071D01*
X9691619Y-12439024D01*
X9701143Y-12429500D01*
X9720190Y-12419976D01*
X9853524Y-12419976D02*
X9977333Y-12419976D01*
X9910667Y-12496167D01*
X9939238Y-12496167D01*
X9958286Y-12505690D01*
X9967810Y-12515214D01*
X9977333Y-12534262D01*
X9977333Y-12581881D01*
X9967810Y-12600928D01*
X9958286Y-12610452D01*
X9939238Y-12619976D01*
X9882095Y-12619976D01*
X9863048Y-12610452D01*
X9853524Y-12600928D01*
X10072571Y-12619976D02*
X10110667Y-12619976D01*
X10129714Y-12610452D01*
X10139238Y-12600928D01*
X10158286Y-12572357D01*
X10167810Y-12534262D01*
X10167810Y-12458071D01*
X10158286Y-12439024D01*
X10148762Y-12429500D01*
X10129714Y-12419976D01*
X10091619Y-12419976D01*
X10072571Y-12429500D01*
X10063048Y-12439024D01*
X10053524Y-12458071D01*
X10053524Y-12505690D01*
X10063048Y-12524738D01*
X10072571Y-12534262D01*
X10091619Y-12543786D01*
X10129714Y-12543786D01*
X10148762Y-12534262D01*
X10158286Y-12524738D01*
X10167810Y-12505690D01*
X10339238Y-12486643D02*
X10339238Y-12619976D01*
X10291619Y-12410452D02*
X10244000Y-12553309D01*
X10367810Y-12553309D01*
X10434476Y-12419976D02*
X10434476Y-12458071D01*
X10510667Y-12419976D02*
X10510667Y-12458071D01*
X10805905Y-12696167D02*
X10796381Y-12686643D01*
X10777333Y-12658071D01*
X10767810Y-12639024D01*
X10758286Y-12610452D01*
X10748762Y-12562833D01*
X10748762Y-12524738D01*
X10758286Y-12477119D01*
X10767810Y-12448548D01*
X10777333Y-12429500D01*
X10796381Y-12400928D01*
X10805905Y-12391405D01*
X10986857Y-12619976D02*
X10872571Y-12619976D01*
X10929714Y-12619976D02*
X10929714Y-12419976D01*
X10910667Y-12448548D01*
X10891619Y-12467595D01*
X10872571Y-12477119D01*
X11053524Y-12419976D02*
X11177333Y-12419976D01*
X11110667Y-12496167D01*
X11139238Y-12496167D01*
X11158286Y-12505690D01*
X11167810Y-12515214D01*
X11177333Y-12534262D01*
X11177333Y-12581881D01*
X11167810Y-12600928D01*
X11158286Y-12610452D01*
X11139238Y-12619976D01*
X11082095Y-12619976D01*
X11063048Y-12610452D01*
X11053524Y-12600928D01*
X11415428Y-12619976D02*
X11415428Y-12419976D01*
X11501143Y-12619976D02*
X11501143Y-12515214D01*
X11491619Y-12496167D01*
X11472571Y-12486643D01*
X11444000Y-12486643D01*
X11424952Y-12496167D01*
X11415428Y-12505690D01*
X11624952Y-12619976D02*
X11605905Y-12610452D01*
X11596381Y-12600928D01*
X11586857Y-12581881D01*
X11586857Y-12524738D01*
X11596381Y-12505690D01*
X11605905Y-12496167D01*
X11624952Y-12486643D01*
X11653524Y-12486643D01*
X11672571Y-12496167D01*
X11682095Y-12505690D01*
X11691619Y-12524738D01*
X11691619Y-12581881D01*
X11682095Y-12600928D01*
X11672571Y-12610452D01*
X11653524Y-12619976D01*
X11624952Y-12619976D01*
X11805905Y-12619976D02*
X11786857Y-12610452D01*
X11777333Y-12591405D01*
X11777333Y-12419976D01*
X11958286Y-12610452D02*
X11939238Y-12619976D01*
X11901143Y-12619976D01*
X11882095Y-12610452D01*
X11872571Y-12591405D01*
X11872571Y-12515214D01*
X11882095Y-12496167D01*
X11901143Y-12486643D01*
X11939238Y-12486643D01*
X11958286Y-12496167D01*
X11967809Y-12515214D01*
X11967809Y-12534262D01*
X11872571Y-12553309D01*
X12044000Y-12610452D02*
X12063048Y-12619976D01*
X12101143Y-12619976D01*
X12120190Y-12610452D01*
X12129714Y-12591405D01*
X12129714Y-12581881D01*
X12120190Y-12562833D01*
X12101143Y-12553309D01*
X12072571Y-12553309D01*
X12053524Y-12543786D01*
X12044000Y-12524738D01*
X12044000Y-12515214D01*
X12053524Y-12496167D01*
X12072571Y-12486643D01*
X12101143Y-12486643D01*
X12120190Y-12496167D01*
X12196381Y-12696167D02*
X12205905Y-12686643D01*
X12224952Y-12658071D01*
X12234476Y-12639024D01*
X12244000Y-12610452D01*
X12253524Y-12562833D01*
X12253524Y-12524738D01*
X12244000Y-12477119D01*
X12234476Y-12448548D01*
X12224952Y-12429500D01*
X12205905Y-12400928D01*
X12196381Y-12391405D01*
D14*
X7179390Y-12738890D02*
X7179390Y-12848110D01*
X7124780Y-12793500D02*
X7234000Y-12793500D01*
D11*
X7596381Y-12883976D02*
X7482095Y-12883976D01*
X7539238Y-12883976D02*
X7539238Y-12683976D01*
X7520190Y-12712548D01*
X7501143Y-12731595D01*
X7482095Y-12741119D01*
X7682095Y-12864928D02*
X7691619Y-12874452D01*
X7682095Y-12883976D01*
X7672571Y-12874452D01*
X7682095Y-12864928D01*
X7682095Y-12883976D01*
X7815428Y-12683976D02*
X7834476Y-12683976D01*
X7853524Y-12693500D01*
X7863048Y-12703024D01*
X7872571Y-12722071D01*
X7882095Y-12760167D01*
X7882095Y-12807786D01*
X7872571Y-12845881D01*
X7863048Y-12864928D01*
X7853524Y-12874452D01*
X7834476Y-12883976D01*
X7815428Y-12883976D01*
X7796381Y-12874452D01*
X7786857Y-12864928D01*
X7777333Y-12845881D01*
X7767809Y-12807786D01*
X7767809Y-12760167D01*
X7777333Y-12722071D01*
X7786857Y-12703024D01*
X7796381Y-12693500D01*
X7815428Y-12683976D01*
X7977333Y-12883976D02*
X8015428Y-12883976D01*
X8034476Y-12874452D01*
X8044000Y-12864928D01*
X8063048Y-12836357D01*
X8072571Y-12798262D01*
X8072571Y-12722071D01*
X8063048Y-12703024D01*
X8053524Y-12693500D01*
X8034476Y-12683976D01*
X7996381Y-12683976D01*
X7977333Y-12693500D01*
X7967809Y-12703024D01*
X7958286Y-12722071D01*
X7958286Y-12769690D01*
X7967809Y-12788738D01*
X7977333Y-12798262D01*
X7996381Y-12807786D01*
X8034476Y-12807786D01*
X8053524Y-12798262D01*
X8063048Y-12788738D01*
X8072571Y-12769690D01*
X8148762Y-12703024D02*
X8158286Y-12693500D01*
X8177333Y-12683976D01*
X8224952Y-12683976D01*
X8244000Y-12693500D01*
X8253524Y-12703024D01*
X8263048Y-12722071D01*
X8263048Y-12741119D01*
X8253524Y-12769690D01*
X8139238Y-12883976D01*
X8263048Y-12883976D01*
X8348762Y-12883976D02*
X8348762Y-12750643D01*
X8348762Y-12769690D02*
X8358286Y-12760167D01*
X8377333Y-12750643D01*
X8405905Y-12750643D01*
X8424952Y-12760167D01*
X8434476Y-12779214D01*
X8434476Y-12883976D01*
X8434476Y-12779214D02*
X8444000Y-12760167D01*
X8463048Y-12750643D01*
X8491619Y-12750643D01*
X8510667Y-12760167D01*
X8520190Y-12779214D01*
X8520190Y-12883976D01*
X8615429Y-12883976D02*
X8615429Y-12750643D01*
X8615429Y-12769690D02*
X8624952Y-12760167D01*
X8644000Y-12750643D01*
X8672571Y-12750643D01*
X8691619Y-12760167D01*
X8701143Y-12779214D01*
X8701143Y-12883976D01*
X8701143Y-12779214D02*
X8710667Y-12760167D01*
X8729714Y-12750643D01*
X8758286Y-12750643D01*
X8777333Y-12760167D01*
X8786857Y-12779214D01*
X8786857Y-12883976D01*
X9177333Y-12674452D02*
X9005905Y-12931595D01*
X9434476Y-12683976D02*
X9453524Y-12683976D01*
X9472571Y-12693500D01*
X9482095Y-12703024D01*
X9491619Y-12722071D01*
X9501143Y-12760167D01*
X9501143Y-12807786D01*
X9491619Y-12845881D01*
X9482095Y-12864928D01*
X9472571Y-12874452D01*
X9453524Y-12883976D01*
X9434476Y-12883976D01*
X9415429Y-12874452D01*
X9405905Y-12864928D01*
X9396381Y-12845881D01*
X9386857Y-12807786D01*
X9386857Y-12760167D01*
X9396381Y-12722071D01*
X9405905Y-12703024D01*
X9415429Y-12693500D01*
X9434476Y-12683976D01*
X9586857Y-12864928D02*
X9596381Y-12874452D01*
X9586857Y-12883976D01*
X9577333Y-12874452D01*
X9586857Y-12864928D01*
X9586857Y-12883976D01*
X9720190Y-12683976D02*
X9739238Y-12683976D01*
X9758286Y-12693500D01*
X9767810Y-12703024D01*
X9777333Y-12722071D01*
X9786857Y-12760167D01*
X9786857Y-12807786D01*
X9777333Y-12845881D01*
X9767810Y-12864928D01*
X9758286Y-12874452D01*
X9739238Y-12883976D01*
X9720190Y-12883976D01*
X9701143Y-12874452D01*
X9691619Y-12864928D01*
X9682095Y-12845881D01*
X9672571Y-12807786D01*
X9672571Y-12760167D01*
X9682095Y-12722071D01*
X9691619Y-12703024D01*
X9701143Y-12693500D01*
X9720190Y-12683976D01*
X9958286Y-12750643D02*
X9958286Y-12883976D01*
X9910667Y-12674452D02*
X9863048Y-12817309D01*
X9986857Y-12817309D01*
X10044000Y-12683976D02*
X10167810Y-12683976D01*
X10101143Y-12760167D01*
X10129714Y-12760167D01*
X10148762Y-12769690D01*
X10158286Y-12779214D01*
X10167810Y-12798262D01*
X10167810Y-12845881D01*
X10158286Y-12864928D01*
X10148762Y-12874452D01*
X10129714Y-12883976D01*
X10072571Y-12883976D01*
X10053524Y-12874452D01*
X10044000Y-12864928D01*
X10291619Y-12683976D02*
X10310667Y-12683976D01*
X10329714Y-12693500D01*
X10339238Y-12703024D01*
X10348762Y-12722071D01*
X10358286Y-12760167D01*
X10358286Y-12807786D01*
X10348762Y-12845881D01*
X10339238Y-12864928D01*
X10329714Y-12874452D01*
X10310667Y-12883976D01*
X10291619Y-12883976D01*
X10272571Y-12874452D01*
X10263048Y-12864928D01*
X10253524Y-12845881D01*
X10244000Y-12807786D01*
X10244000Y-12760167D01*
X10253524Y-12722071D01*
X10263048Y-12703024D01*
X10272571Y-12693500D01*
X10291619Y-12683976D01*
X10434476Y-12683976D02*
X10434476Y-12722071D01*
X10510667Y-12683976D02*
X10510667Y-12722071D01*
X10805905Y-12960167D02*
X10796381Y-12950643D01*
X10777333Y-12922071D01*
X10767810Y-12903024D01*
X10758286Y-12874452D01*
X10748762Y-12826833D01*
X10748762Y-12788738D01*
X10758286Y-12741119D01*
X10767810Y-12712548D01*
X10777333Y-12693500D01*
X10796381Y-12664928D01*
X10805905Y-12655405D01*
X10967810Y-12683976D02*
X10929714Y-12683976D01*
X10910667Y-12693500D01*
X10901143Y-12703024D01*
X10882095Y-12731595D01*
X10872571Y-12769690D01*
X10872571Y-12845881D01*
X10882095Y-12864928D01*
X10891619Y-12874452D01*
X10910667Y-12883976D01*
X10948762Y-12883976D01*
X10967810Y-12874452D01*
X10977333Y-12864928D01*
X10986857Y-12845881D01*
X10986857Y-12798262D01*
X10977333Y-12779214D01*
X10967810Y-12769690D01*
X10948762Y-12760167D01*
X10910667Y-12760167D01*
X10891619Y-12769690D01*
X10882095Y-12779214D01*
X10872571Y-12798262D01*
X11224952Y-12883976D02*
X11224952Y-12683976D01*
X11310667Y-12883976D02*
X11310667Y-12779214D01*
X11301143Y-12760167D01*
X11282095Y-12750643D01*
X11253524Y-12750643D01*
X11234476Y-12760167D01*
X11224952Y-12769690D01*
X11434476Y-12883976D02*
X11415428Y-12874452D01*
X11405905Y-12864928D01*
X11396381Y-12845881D01*
X11396381Y-12788738D01*
X11405905Y-12769690D01*
X11415428Y-12760167D01*
X11434476Y-12750643D01*
X11463048Y-12750643D01*
X11482095Y-12760167D01*
X11491619Y-12769690D01*
X11501143Y-12788738D01*
X11501143Y-12845881D01*
X11491619Y-12864928D01*
X11482095Y-12874452D01*
X11463048Y-12883976D01*
X11434476Y-12883976D01*
X11615428Y-12883976D02*
X11596381Y-12874452D01*
X11586857Y-12855405D01*
X11586857Y-12683976D01*
X11767809Y-12874452D02*
X11748762Y-12883976D01*
X11710667Y-12883976D01*
X11691619Y-12874452D01*
X11682095Y-12855405D01*
X11682095Y-12779214D01*
X11691619Y-12760167D01*
X11710667Y-12750643D01*
X11748762Y-12750643D01*
X11767809Y-12760167D01*
X11777333Y-12779214D01*
X11777333Y-12798262D01*
X11682095Y-12817309D01*
X11853524Y-12874452D02*
X11872571Y-12883976D01*
X11910667Y-12883976D01*
X11929714Y-12874452D01*
X11939238Y-12855405D01*
X11939238Y-12845881D01*
X11929714Y-12826833D01*
X11910667Y-12817309D01*
X11882095Y-12817309D01*
X11863048Y-12807786D01*
X11853524Y-12788738D01*
X11853524Y-12779214D01*
X11863048Y-12760167D01*
X11882095Y-12750643D01*
X11910667Y-12750643D01*
X11929714Y-12760167D01*
X12005905Y-12960167D02*
X12015428Y-12950643D01*
X12034476Y-12922071D01*
X12044000Y-12903024D01*
X12053524Y-12874452D01*
X12063048Y-12826833D01*
X12063048Y-12788738D01*
X12053524Y-12741119D01*
X12044000Y-12712548D01*
X12034476Y-12693500D01*
X12015428Y-12664928D01*
X12005905Y-12655405D01*
M02*
