M48
; DRILL file {KiCad 6.0.2+dfsg-1} date Tue 09 May 2023 01:47:34 PM CDT
; FORMAT={-:-/ absolute / metric / decimal}
; #@! TF.CreationDate,2023-05-09T13:47:34-05:00
; #@! TF.GenerationSoftware,Kicad,Pcbnew,6.0.2+dfsg-1
; #@! TF.FileFunction,Plated,1,2,PTH
FMAT,2
METRIC
; #@! TA.AperFunction,Plated,PTH,ViaDrill
T1C0.300
; #@! TA.AperFunction,Plated,PTH,ComponentDrill
T2C1.000
; #@! TA.AperFunction,Plated,PTH,ComponentDrill
T3C1.092
%
G90
G05
T1
X108.585Y-81.28
X109.855Y-81.28
X115.57Y-78.74
X115.57Y-80.01
X117.983Y-78.74
X117.983Y-80.01
X118.11Y-77.089
X118.618Y-74.041
X118.745Y-67.945
X118.745Y-69.215
X119.126Y-75.565
X119.888Y-84.455
X120.015Y-67.31
X120.65Y-66.675
X121.285Y-67.31
X121.285Y-69.85
X121.285Y-83.185
X121.92Y-76.581
X122.174Y-81.407
X123.444Y-82.55
X125.095Y-81.28
X125.095Y-89.535
X125.73Y-78.74
X125.73Y-80.01
X125.73Y-82.55
X127.0Y-86.995
X127.325Y-78.415
X128.905Y-86.995
X130.683Y-76.327
X130.683Y-78.74
X130.81Y-81.026
X130.81Y-81.915
X131.445Y-73.533
X131.445Y-76.2
X131.445Y-89.535
X132.334Y-71.374
X132.715Y-72.39
X132.842Y-75.692
X133.35Y-71.755
X133.985Y-72.39
X134.62Y-71.755
X134.62Y-76.835
X135.255Y-67.31
X135.255Y-69.85
X136.525Y-71.12
X139.065Y-82.55
X141.859Y-78.105
X141.986Y-72.39
X141.986Y-75.692
X144.907Y-69.85
X145.542Y-76.454
X145.542Y-78.486
X148.59Y-76.581
X148.59Y-78.486
X148.59Y-85.09
X149.225Y-69.85
X149.86Y-71.12
X149.86Y-72.39
X149.86Y-73.66
X151.13Y-69.85
X152.4Y-87.884
X152.4Y-89.535
X153.924Y-86.995
X154.178Y-72.644
X154.178Y-85.217
X154.488Y-76.525
X155.194Y-72.517
X155.321Y-83.82
X155.575Y-81.026
X156.845Y-76.962
X157.353Y-86.995
X157.607Y-70.104
X158.75Y-75.565
X159.385Y-86.995
X161.29Y-68.961
X161.29Y-89.535
X161.417Y-72.39
X163.327Y-81.28
X165.1Y-76.835
X165.735Y-76.2
X166.502Y-76.835
X167.005Y-76.2
X167.64Y-76.835
X169.677Y-76.962
T2
X104.775Y-67.31
X120.02Y-88.265
X122.56Y-88.265
X146.055Y-88.265
X148.595Y-88.265
X163.83Y-88.265
X166.37Y-88.265
X168.91Y-88.265
X171.45Y-67.31
X171.45Y-88.265
T3
X105.41Y-77.809
X107.95Y-77.809
X110.49Y-77.809
X113.03Y-77.809
X136.525Y-77.809
X139.065Y-77.809
T0
M30
