G04 #@! TF.GenerationSoftware,KiCad,Pcbnew,6.0.2+dfsg-1*
G04 #@! TF.CreationDate,2023-05-24T16:56:30-05:00*
G04 #@! TF.ProjectId,dac-attack,6461632d-6174-4746-9163-6b2e6b696361,2023a*
G04 #@! TF.SameCoordinates,Original*
G04 #@! TF.FileFunction,Legend,Top*
G04 #@! TF.FilePolarity,Positive*
%FSLAX46Y46*%
G04 Gerber Fmt 4.6, Leading zero omitted, Abs format (unit mm)*
G04 Created by KiCad (PCBNEW 6.0.2+dfsg-1) date 2023-05-24 16:56:30*
%MOMM*%
%LPD*%
G01*
G04 APERTURE LIST*
G04 Aperture macros list*
%AMRoundRect*
0 Rectangle with rounded corners*
0 $1 Rounding radius*
0 $2 $3 $4 $5 $6 $7 $8 $9 X,Y pos of 4 corners*
0 Add a 4 corners polygon primitive as box body*
4,1,4,$2,$3,$4,$5,$6,$7,$8,$9,$2,$3,0*
0 Add four circle primitives for the rounded corners*
1,1,$1+$1,$2,$3*
1,1,$1+$1,$4,$5*
1,1,$1+$1,$6,$7*
1,1,$1+$1,$8,$9*
0 Add four rect primitives between the rounded corners*
20,1,$1+$1,$2,$3,$4,$5,0*
20,1,$1+$1,$4,$5,$6,$7,0*
20,1,$1+$1,$6,$7,$8,$9,0*
20,1,$1+$1,$8,$9,$2,$3,0*%
G04 Aperture macros list end*
%ADD10C,0.300000*%
%ADD11C,0.150000*%
%ADD12C,0.120000*%
%ADD13RoundRect,0.150000X-0.150000X-0.625000X0.150000X-0.625000X0.150000X0.625000X-0.150000X0.625000X0*%
%ADD14RoundRect,0.250000X-0.350000X-0.650000X0.350000X-0.650000X0.350000X0.650000X-0.350000X0.650000X0*%
%ADD15RoundRect,0.135000X0.135000X0.185000X-0.135000X0.185000X-0.135000X-0.185000X0.135000X-0.185000X0*%
%ADD16RoundRect,0.140000X-0.170000X0.140000X-0.170000X-0.140000X0.170000X-0.140000X0.170000X0.140000X0*%
%ADD17C,1.000000*%
%ADD18RoundRect,0.135000X-0.135000X-0.185000X0.135000X-0.185000X0.135000X0.185000X-0.135000X0.185000X0*%
%ADD19RoundRect,0.135000X-0.185000X0.135000X-0.185000X-0.135000X0.185000X-0.135000X0.185000X0.135000X0*%
%ADD20RoundRect,0.225000X-0.225000X-0.250000X0.225000X-0.250000X0.225000X0.250000X-0.225000X0.250000X0*%
%ADD21RoundRect,0.150000X-0.512500X-0.150000X0.512500X-0.150000X0.512500X0.150000X-0.512500X0.150000X0*%
%ADD22RoundRect,0.225000X0.225000X0.250000X-0.225000X0.250000X-0.225000X-0.250000X0.225000X-0.250000X0*%
%ADD23RoundRect,0.225000X0.250000X-0.225000X0.250000X0.225000X-0.250000X0.225000X-0.250000X-0.225000X0*%
%ADD24RoundRect,0.140000X0.170000X-0.140000X0.170000X0.140000X-0.170000X0.140000X-0.170000X-0.140000X0*%
%ADD25RoundRect,0.225000X-0.250000X0.225000X-0.250000X-0.225000X0.250000X-0.225000X0.250000X0.225000X0*%
%ADD26C,3.200000*%
%ADD27C,2.000000*%
%ADD28RoundRect,0.100000X-0.637500X-0.100000X0.637500X-0.100000X0.637500X0.100000X-0.637500X0.100000X0*%
%ADD29RoundRect,0.140000X0.140000X0.170000X-0.140000X0.170000X-0.140000X-0.170000X0.140000X-0.170000X0*%
%ADD30RoundRect,0.150000X-0.587500X-0.150000X0.587500X-0.150000X0.587500X0.150000X-0.587500X0.150000X0*%
%ADD31RoundRect,0.200000X0.200000X0.275000X-0.200000X0.275000X-0.200000X-0.275000X0.200000X-0.275000X0*%
%ADD32RoundRect,0.218750X-0.381250X0.218750X-0.381250X-0.218750X0.381250X-0.218750X0.381250X0.218750X0*%
%ADD33RoundRect,0.150000X-0.150000X0.587500X-0.150000X-0.587500X0.150000X-0.587500X0.150000X0.587500X0*%
%ADD34RoundRect,0.140000X-0.140000X-0.170000X0.140000X-0.170000X0.140000X0.170000X-0.140000X0.170000X0*%
%ADD35RoundRect,0.250000X0.250000X0.475000X-0.250000X0.475000X-0.250000X-0.475000X0.250000X-0.475000X0*%
%ADD36RoundRect,0.100000X0.637500X0.100000X-0.637500X0.100000X-0.637500X-0.100000X0.637500X-0.100000X0*%
%ADD37RoundRect,0.135000X0.185000X-0.135000X0.185000X0.135000X-0.185000X0.135000X-0.185000X-0.135000X0*%
%ADD38RoundRect,0.150000X0.587500X0.150000X-0.587500X0.150000X-0.587500X-0.150000X0.587500X-0.150000X0*%
%ADD39RoundRect,0.250000X-0.250000X-0.475000X0.250000X-0.475000X0.250000X0.475000X-0.250000X0.475000X0*%
%ADD40C,1.854200*%
%ADD41R,1.700000X1.700000*%
%ADD42O,1.700000X1.700000*%
G04 APERTURE END LIST*
D10*
X113708571Y-88594285D02*
X112994285Y-89094285D01*
X113708571Y-89451428D02*
X112208571Y-89451428D01*
X112208571Y-88880000D01*
X112280000Y-88737142D01*
X112351428Y-88665714D01*
X112494285Y-88594285D01*
X112708571Y-88594285D01*
X112851428Y-88665714D01*
X112922857Y-88737142D01*
X112994285Y-88880000D01*
X112994285Y-89451428D01*
X113708571Y-87951428D02*
X112208571Y-87951428D01*
X112280000Y-86451428D02*
X112208571Y-86594285D01*
X112208571Y-86808571D01*
X112280000Y-87022857D01*
X112422857Y-87165714D01*
X112565714Y-87237142D01*
X112851428Y-87308571D01*
X113065714Y-87308571D01*
X113351428Y-87237142D01*
X113494285Y-87165714D01*
X113637142Y-87022857D01*
X113708571Y-86808571D01*
X113708571Y-86665714D01*
X113637142Y-86451428D01*
X113565714Y-86380000D01*
X113065714Y-86380000D01*
X113065714Y-86665714D01*
X113708571Y-85737142D02*
X112208571Y-85737142D01*
X112922857Y-85737142D02*
X112922857Y-84880000D01*
X113708571Y-84880000D02*
X112208571Y-84880000D01*
X112208571Y-84380000D02*
X112208571Y-83522857D01*
X113708571Y-83951428D02*
X112208571Y-83951428D01*
D11*
X170950000Y-85500595D02*
X170902380Y-85595833D01*
X170902380Y-85738690D01*
X170950000Y-85881547D01*
X171045238Y-85976785D01*
X171140476Y-86024404D01*
X171330952Y-86072023D01*
X171473809Y-86072023D01*
X171664285Y-86024404D01*
X171759523Y-85976785D01*
X171854761Y-85881547D01*
X171902380Y-85738690D01*
X171902380Y-85643452D01*
X171854761Y-85500595D01*
X171807142Y-85452976D01*
X171473809Y-85452976D01*
X171473809Y-85643452D01*
X171902380Y-85024404D02*
X170902380Y-85024404D01*
X171902380Y-84452976D01*
X170902380Y-84452976D01*
X171902380Y-83976785D02*
X170902380Y-83976785D01*
X170902380Y-83738690D01*
X170950000Y-83595833D01*
X171045238Y-83500595D01*
X171140476Y-83452976D01*
X171330952Y-83405357D01*
X171473809Y-83405357D01*
X171664285Y-83452976D01*
X171759523Y-83500595D01*
X171854761Y-83595833D01*
X171902380Y-83738690D01*
X171902380Y-83976785D01*
D10*
X109740000Y-83737142D02*
X109668571Y-83880000D01*
X109668571Y-84094285D01*
X109740000Y-84308571D01*
X109882857Y-84451428D01*
X110025714Y-84522857D01*
X110311428Y-84594285D01*
X110525714Y-84594285D01*
X110811428Y-84522857D01*
X110954285Y-84451428D01*
X111097142Y-84308571D01*
X111168571Y-84094285D01*
X111168571Y-83951428D01*
X111097142Y-83737142D01*
X111025714Y-83665714D01*
X110525714Y-83665714D01*
X110525714Y-83951428D01*
D11*
X142700952Y-65492380D02*
X142700952Y-66206666D01*
X142653333Y-66349523D01*
X142558095Y-66444761D01*
X142415238Y-66492380D01*
X142320000Y-66492380D01*
X143653333Y-66492380D02*
X143177142Y-66492380D01*
X143177142Y-65492380D01*
X144558095Y-66397142D02*
X144510476Y-66444761D01*
X144367619Y-66492380D01*
X144272380Y-66492380D01*
X144129523Y-66444761D01*
X144034285Y-66349523D01*
X143986666Y-66254285D01*
X143939047Y-66063809D01*
X143939047Y-65920952D01*
X143986666Y-65730476D01*
X144034285Y-65635238D01*
X144129523Y-65540000D01*
X144272380Y-65492380D01*
X144367619Y-65492380D01*
X144510476Y-65540000D01*
X144558095Y-65587619D01*
X145272380Y-65492380D02*
X145272380Y-66206666D01*
X145224761Y-66349523D01*
X145129523Y-66444761D01*
X144986666Y-66492380D01*
X144891428Y-66492380D01*
X146224761Y-66492380D02*
X145748571Y-66492380D01*
X145748571Y-65492380D01*
X147129523Y-66397142D02*
X147081904Y-66444761D01*
X146939047Y-66492380D01*
X146843809Y-66492380D01*
X146700952Y-66444761D01*
X146605714Y-66349523D01*
X146558095Y-66254285D01*
X146510476Y-66063809D01*
X146510476Y-65920952D01*
X146558095Y-65730476D01*
X146605714Y-65635238D01*
X146700952Y-65540000D01*
X146843809Y-65492380D01*
X146939047Y-65492380D01*
X147081904Y-65540000D01*
X147129523Y-65587619D01*
X147843809Y-65492380D02*
X147843809Y-66206666D01*
X147796190Y-66349523D01*
X147700952Y-66444761D01*
X147558095Y-66492380D01*
X147462857Y-66492380D01*
X148796190Y-66492380D02*
X148320000Y-66492380D01*
X148320000Y-65492380D01*
X149700952Y-66397142D02*
X149653333Y-66444761D01*
X149510476Y-66492380D01*
X149415238Y-66492380D01*
X149272380Y-66444761D01*
X149177142Y-66349523D01*
X149129523Y-66254285D01*
X149081904Y-66063809D01*
X149081904Y-65920952D01*
X149129523Y-65730476D01*
X149177142Y-65635238D01*
X149272380Y-65540000D01*
X149415238Y-65492380D01*
X149510476Y-65492380D01*
X149653333Y-65540000D01*
X149700952Y-65587619D01*
X150415238Y-65492380D02*
X150415238Y-66206666D01*
X150367619Y-66349523D01*
X150272380Y-66444761D01*
X150129523Y-66492380D01*
X150034285Y-66492380D01*
X151367619Y-66492380D02*
X150891428Y-66492380D01*
X150891428Y-65492380D01*
X152272380Y-66397142D02*
X152224761Y-66444761D01*
X152081904Y-66492380D01*
X151986666Y-66492380D01*
X151843809Y-66444761D01*
X151748571Y-66349523D01*
X151700952Y-66254285D01*
X151653333Y-66063809D01*
X151653333Y-65920952D01*
X151700952Y-65730476D01*
X151748571Y-65635238D01*
X151843809Y-65540000D01*
X151986666Y-65492380D01*
X152081904Y-65492380D01*
X152224761Y-65540000D01*
X152272380Y-65587619D01*
D10*
X106088571Y-87308571D02*
X106088571Y-88022857D01*
X104588571Y-88022857D01*
X105302857Y-86808571D02*
X105302857Y-86308571D01*
X106088571Y-86094285D02*
X106088571Y-86808571D01*
X104588571Y-86808571D01*
X104588571Y-86094285D01*
X105302857Y-84951428D02*
X105302857Y-85451428D01*
X106088571Y-85451428D02*
X104588571Y-85451428D01*
X104588571Y-84737142D01*
X104588571Y-84380000D02*
X104588571Y-83522857D01*
X106088571Y-83951428D02*
X104588571Y-83951428D01*
X107200000Y-83737142D02*
X107128571Y-83880000D01*
X107128571Y-84094285D01*
X107200000Y-84308571D01*
X107342857Y-84451428D01*
X107485714Y-84522857D01*
X107771428Y-84594285D01*
X107985714Y-84594285D01*
X108271428Y-84522857D01*
X108414285Y-84451428D01*
X108557142Y-84308571D01*
X108628571Y-84094285D01*
X108628571Y-83951428D01*
X108557142Y-83737142D01*
X108485714Y-83665714D01*
X107985714Y-83665714D01*
X107985714Y-83951428D01*
D11*
X166822380Y-86024404D02*
X165822380Y-86024404D01*
X165822380Y-85786309D01*
X165870000Y-85643452D01*
X165965238Y-85548214D01*
X166060476Y-85500595D01*
X166250952Y-85452976D01*
X166393809Y-85452976D01*
X166584285Y-85500595D01*
X166679523Y-85548214D01*
X166774761Y-85643452D01*
X166822380Y-85786309D01*
X166822380Y-86024404D01*
X166917619Y-85262500D02*
X166917619Y-84500595D01*
X166822380Y-84262500D02*
X165822380Y-84262500D01*
X166822380Y-83786309D02*
X165822380Y-83786309D01*
X166822380Y-83214880D01*
X165822380Y-83214880D01*
D10*
X135775000Y-79927142D02*
X135703571Y-80070000D01*
X135703571Y-80284285D01*
X135775000Y-80498571D01*
X135917857Y-80641428D01*
X136060714Y-80712857D01*
X136346428Y-80784285D01*
X136560714Y-80784285D01*
X136846428Y-80712857D01*
X136989285Y-80641428D01*
X137132142Y-80498571D01*
X137203571Y-80284285D01*
X137203571Y-80141428D01*
X137132142Y-79927142D01*
X137060714Y-79855714D01*
X136560714Y-79855714D01*
X136560714Y-80141428D01*
D11*
X168362380Y-86119642D02*
X168362380Y-85500595D01*
X168743333Y-85833928D01*
X168743333Y-85691071D01*
X168790952Y-85595833D01*
X168838571Y-85548214D01*
X168933809Y-85500595D01*
X169171904Y-85500595D01*
X169267142Y-85548214D01*
X169314761Y-85595833D01*
X169362380Y-85691071D01*
X169362380Y-85976785D01*
X169314761Y-86072023D01*
X169267142Y-86119642D01*
X168362380Y-85214880D02*
X169362380Y-84881547D01*
X168362380Y-84548214D01*
D10*
X139743571Y-80712857D02*
X138243571Y-80712857D01*
X138243571Y-80355714D01*
X138315000Y-80141428D01*
X138457857Y-79998571D01*
X138600714Y-79927142D01*
X138886428Y-79855714D01*
X139100714Y-79855714D01*
X139386428Y-79927142D01*
X139529285Y-79998571D01*
X139672142Y-80141428D01*
X139743571Y-80355714D01*
X139743571Y-80712857D01*
D11*
X154964047Y-83113571D02*
X155106904Y-83161190D01*
X155154523Y-83208809D01*
X155202142Y-83304047D01*
X155202142Y-83446904D01*
X155154523Y-83542142D01*
X155106904Y-83589761D01*
X155011666Y-83637380D01*
X154630714Y-83637380D01*
X154630714Y-82637380D01*
X154964047Y-82637380D01*
X155059285Y-82685000D01*
X155106904Y-82732619D01*
X155154523Y-82827857D01*
X155154523Y-82923095D01*
X155106904Y-83018333D01*
X155059285Y-83065952D01*
X154964047Y-83113571D01*
X154630714Y-83113571D01*
X155821190Y-82637380D02*
X156011666Y-82637380D01*
X156106904Y-82685000D01*
X156202142Y-82780238D01*
X156249761Y-82970714D01*
X156249761Y-83304047D01*
X156202142Y-83494523D01*
X156106904Y-83589761D01*
X156011666Y-83637380D01*
X155821190Y-83637380D01*
X155725952Y-83589761D01*
X155630714Y-83494523D01*
X155583095Y-83304047D01*
X155583095Y-82970714D01*
X155630714Y-82780238D01*
X155725952Y-82685000D01*
X155821190Y-82637380D01*
X156630714Y-83351666D02*
X157106904Y-83351666D01*
X156535476Y-83637380D02*
X156868809Y-82637380D01*
X157202142Y-83637380D01*
X158106904Y-83637380D02*
X157773571Y-83161190D01*
X157535476Y-83637380D02*
X157535476Y-82637380D01*
X157916428Y-82637380D01*
X158011666Y-82685000D01*
X158059285Y-82732619D01*
X158106904Y-82827857D01*
X158106904Y-82970714D01*
X158059285Y-83065952D01*
X158011666Y-83113571D01*
X157916428Y-83161190D01*
X157535476Y-83161190D01*
X158535476Y-83637380D02*
X158535476Y-82637380D01*
X158773571Y-82637380D01*
X158916428Y-82685000D01*
X159011666Y-82780238D01*
X159059285Y-82875476D01*
X159106904Y-83065952D01*
X159106904Y-83208809D01*
X159059285Y-83399285D01*
X159011666Y-83494523D01*
X158916428Y-83589761D01*
X158773571Y-83637380D01*
X158535476Y-83637380D01*
X127936666Y-87082380D02*
X127936666Y-87796666D01*
X127889047Y-87939523D01*
X127793809Y-88034761D01*
X127650952Y-88082380D01*
X127555714Y-88082380D01*
X128317619Y-87082380D02*
X128984285Y-87082380D01*
X128555714Y-88082380D01*
X143343333Y-69032380D02*
X143010000Y-68556190D01*
X142771904Y-69032380D02*
X142771904Y-68032380D01*
X143152857Y-68032380D01*
X143248095Y-68080000D01*
X143295714Y-68127619D01*
X143343333Y-68222857D01*
X143343333Y-68365714D01*
X143295714Y-68460952D01*
X143248095Y-68508571D01*
X143152857Y-68556190D01*
X142771904Y-68556190D01*
X144248095Y-68032380D02*
X143771904Y-68032380D01*
X143724285Y-68508571D01*
X143771904Y-68460952D01*
X143867142Y-68413333D01*
X144105238Y-68413333D01*
X144200476Y-68460952D01*
X144248095Y-68508571D01*
X144295714Y-68603809D01*
X144295714Y-68841904D01*
X144248095Y-68937142D01*
X144200476Y-68984761D01*
X144105238Y-69032380D01*
X143867142Y-69032380D01*
X143771904Y-68984761D01*
X143724285Y-68937142D01*
X141962142Y-76207857D02*
X142009761Y-76255476D01*
X142057380Y-76398333D01*
X142057380Y-76493571D01*
X142009761Y-76636428D01*
X141914523Y-76731666D01*
X141819285Y-76779285D01*
X141628809Y-76826904D01*
X141485952Y-76826904D01*
X141295476Y-76779285D01*
X141200238Y-76731666D01*
X141105000Y-76636428D01*
X141057380Y-76493571D01*
X141057380Y-76398333D01*
X141105000Y-76255476D01*
X141152619Y-76207857D01*
X142057380Y-75255476D02*
X142057380Y-75826904D01*
X142057380Y-75541190D02*
X141057380Y-75541190D01*
X141200238Y-75636428D01*
X141295476Y-75731666D01*
X141343095Y-75826904D01*
X141057380Y-74922142D02*
X141057380Y-74255476D01*
X142057380Y-74684047D01*
X162552142Y-85007380D02*
X162218809Y-84531190D01*
X161980714Y-85007380D02*
X161980714Y-84007380D01*
X162361666Y-84007380D01*
X162456904Y-84055000D01*
X162504523Y-84102619D01*
X162552142Y-84197857D01*
X162552142Y-84340714D01*
X162504523Y-84435952D01*
X162456904Y-84483571D01*
X162361666Y-84531190D01*
X161980714Y-84531190D01*
X163504523Y-85007380D02*
X162933095Y-85007380D01*
X163218809Y-85007380D02*
X163218809Y-84007380D01*
X163123571Y-84150238D01*
X163028333Y-84245476D01*
X162933095Y-84293095D01*
X164123571Y-84007380D02*
X164218809Y-84007380D01*
X164314047Y-84055000D01*
X164361666Y-84102619D01*
X164409285Y-84197857D01*
X164456904Y-84388333D01*
X164456904Y-84626428D01*
X164409285Y-84816904D01*
X164361666Y-84912142D01*
X164314047Y-84959761D01*
X164218809Y-85007380D01*
X164123571Y-85007380D01*
X164028333Y-84959761D01*
X163980714Y-84912142D01*
X163933095Y-84816904D01*
X163885476Y-84626428D01*
X163885476Y-84388333D01*
X163933095Y-84197857D01*
X163980714Y-84102619D01*
X164028333Y-84055000D01*
X164123571Y-84007380D01*
X147772380Y-83827857D02*
X147296190Y-84161190D01*
X147772380Y-84399285D02*
X146772380Y-84399285D01*
X146772380Y-84018333D01*
X146820000Y-83923095D01*
X146867619Y-83875476D01*
X146962857Y-83827857D01*
X147105714Y-83827857D01*
X147200952Y-83875476D01*
X147248571Y-83923095D01*
X147296190Y-84018333D01*
X147296190Y-84399285D01*
X147772380Y-82875476D02*
X147772380Y-83446904D01*
X147772380Y-83161190D02*
X146772380Y-83161190D01*
X146915238Y-83256428D01*
X147010476Y-83351666D01*
X147058095Y-83446904D01*
X146772380Y-82018333D02*
X146772380Y-82208809D01*
X146820000Y-82304047D01*
X146867619Y-82351666D01*
X147010476Y-82446904D01*
X147200952Y-82494523D01*
X147581904Y-82494523D01*
X147677142Y-82446904D01*
X147724761Y-82399285D01*
X147772380Y-82304047D01*
X147772380Y-82113571D01*
X147724761Y-82018333D01*
X147677142Y-81970714D01*
X147581904Y-81923095D01*
X147343809Y-81923095D01*
X147248571Y-81970714D01*
X147200952Y-82018333D01*
X147153333Y-82113571D01*
X147153333Y-82304047D01*
X147200952Y-82399285D01*
X147248571Y-82446904D01*
X147343809Y-82494523D01*
X135882142Y-67667142D02*
X135834523Y-67714761D01*
X135691666Y-67762380D01*
X135596428Y-67762380D01*
X135453571Y-67714761D01*
X135358333Y-67619523D01*
X135310714Y-67524285D01*
X135263095Y-67333809D01*
X135263095Y-67190952D01*
X135310714Y-67000476D01*
X135358333Y-66905238D01*
X135453571Y-66810000D01*
X135596428Y-66762380D01*
X135691666Y-66762380D01*
X135834523Y-66810000D01*
X135882142Y-66857619D01*
X136834523Y-67762380D02*
X136263095Y-67762380D01*
X136548809Y-67762380D02*
X136548809Y-66762380D01*
X136453571Y-66905238D01*
X136358333Y-67000476D01*
X136263095Y-67048095D01*
X137786904Y-67762380D02*
X137215476Y-67762380D01*
X137501190Y-67762380D02*
X137501190Y-66762380D01*
X137405952Y-66905238D01*
X137310714Y-67000476D01*
X137215476Y-67048095D01*
X165740595Y-76427380D02*
X165740595Y-77236904D01*
X165788214Y-77332142D01*
X165835833Y-77379761D01*
X165931071Y-77427380D01*
X166121547Y-77427380D01*
X166216785Y-77379761D01*
X166264404Y-77332142D01*
X166312023Y-77236904D01*
X166312023Y-76427380D01*
X166692976Y-76427380D02*
X167312023Y-76427380D01*
X166978690Y-76808333D01*
X167121547Y-76808333D01*
X167216785Y-76855952D01*
X167264404Y-76903571D01*
X167312023Y-76998809D01*
X167312023Y-77236904D01*
X167264404Y-77332142D01*
X167216785Y-77379761D01*
X167121547Y-77427380D01*
X166835833Y-77427380D01*
X166740595Y-77379761D01*
X166692976Y-77332142D01*
X119372142Y-67667142D02*
X119324523Y-67714761D01*
X119181666Y-67762380D01*
X119086428Y-67762380D01*
X118943571Y-67714761D01*
X118848333Y-67619523D01*
X118800714Y-67524285D01*
X118753095Y-67333809D01*
X118753095Y-67190952D01*
X118800714Y-67000476D01*
X118848333Y-66905238D01*
X118943571Y-66810000D01*
X119086428Y-66762380D01*
X119181666Y-66762380D01*
X119324523Y-66810000D01*
X119372142Y-66857619D01*
X120324523Y-67762380D02*
X119753095Y-67762380D01*
X120038809Y-67762380D02*
X120038809Y-66762380D01*
X119943571Y-66905238D01*
X119848333Y-67000476D01*
X119753095Y-67048095D01*
X120657857Y-66762380D02*
X121276904Y-66762380D01*
X120943571Y-67143333D01*
X121086428Y-67143333D01*
X121181666Y-67190952D01*
X121229285Y-67238571D01*
X121276904Y-67333809D01*
X121276904Y-67571904D01*
X121229285Y-67667142D01*
X121181666Y-67714761D01*
X121086428Y-67762380D01*
X120800714Y-67762380D01*
X120705476Y-67714761D01*
X120657857Y-67667142D01*
X158853142Y-74810857D02*
X158900761Y-74858476D01*
X158948380Y-75001333D01*
X158948380Y-75096571D01*
X158900761Y-75239428D01*
X158805523Y-75334666D01*
X158710285Y-75382285D01*
X158519809Y-75429904D01*
X158376952Y-75429904D01*
X158186476Y-75382285D01*
X158091238Y-75334666D01*
X157996000Y-75239428D01*
X157948380Y-75096571D01*
X157948380Y-75001333D01*
X157996000Y-74858476D01*
X158043619Y-74810857D01*
X158043619Y-74429904D02*
X157996000Y-74382285D01*
X157948380Y-74287047D01*
X157948380Y-74048952D01*
X157996000Y-73953714D01*
X158043619Y-73906095D01*
X158138857Y-73858476D01*
X158234095Y-73858476D01*
X158376952Y-73906095D01*
X158948380Y-74477523D01*
X158948380Y-73858476D01*
X157948380Y-73525142D02*
X157948380Y-72906095D01*
X158329333Y-73239428D01*
X158329333Y-73096571D01*
X158376952Y-73001333D01*
X158424571Y-72953714D01*
X158519809Y-72906095D01*
X158757904Y-72906095D01*
X158853142Y-72953714D01*
X158900761Y-73001333D01*
X158948380Y-73096571D01*
X158948380Y-73382285D01*
X158900761Y-73477523D01*
X158853142Y-73525142D01*
X133199142Y-75096666D02*
X133246761Y-75144285D01*
X133294380Y-75287142D01*
X133294380Y-75382380D01*
X133246761Y-75525238D01*
X133151523Y-75620476D01*
X133056285Y-75668095D01*
X132865809Y-75715714D01*
X132722952Y-75715714D01*
X132532476Y-75668095D01*
X132437238Y-75620476D01*
X132342000Y-75525238D01*
X132294380Y-75382380D01*
X132294380Y-75287142D01*
X132342000Y-75144285D01*
X132389619Y-75096666D01*
X132294380Y-74191904D02*
X132294380Y-74668095D01*
X132770571Y-74715714D01*
X132722952Y-74668095D01*
X132675333Y-74572857D01*
X132675333Y-74334761D01*
X132722952Y-74239523D01*
X132770571Y-74191904D01*
X132865809Y-74144285D01*
X133103904Y-74144285D01*
X133199142Y-74191904D01*
X133246761Y-74239523D01*
X133294380Y-74334761D01*
X133294380Y-74572857D01*
X133246761Y-74668095D01*
X133199142Y-74715714D01*
X142867142Y-88717380D02*
X142533809Y-88241190D01*
X142295714Y-88717380D02*
X142295714Y-87717380D01*
X142676666Y-87717380D01*
X142771904Y-87765000D01*
X142819523Y-87812619D01*
X142867142Y-87907857D01*
X142867142Y-88050714D01*
X142819523Y-88145952D01*
X142771904Y-88193571D01*
X142676666Y-88241190D01*
X142295714Y-88241190D01*
X143819523Y-88717380D02*
X143248095Y-88717380D01*
X143533809Y-88717380D02*
X143533809Y-87717380D01*
X143438571Y-87860238D01*
X143343333Y-87955476D01*
X143248095Y-88003095D01*
X144152857Y-87717380D02*
X144771904Y-87717380D01*
X144438571Y-88098333D01*
X144581428Y-88098333D01*
X144676666Y-88145952D01*
X144724285Y-88193571D01*
X144771904Y-88288809D01*
X144771904Y-88526904D01*
X144724285Y-88622142D01*
X144676666Y-88669761D01*
X144581428Y-88717380D01*
X144295714Y-88717380D01*
X144200476Y-88669761D01*
X144152857Y-88622142D01*
X141438333Y-72842380D02*
X141105000Y-72366190D01*
X140866904Y-72842380D02*
X140866904Y-71842380D01*
X141247857Y-71842380D01*
X141343095Y-71890000D01*
X141390714Y-71937619D01*
X141438333Y-72032857D01*
X141438333Y-72175714D01*
X141390714Y-72270952D01*
X141343095Y-72318571D01*
X141247857Y-72366190D01*
X140866904Y-72366190D01*
X142390714Y-72842380D02*
X141819285Y-72842380D01*
X142105000Y-72842380D02*
X142105000Y-71842380D01*
X142009761Y-71985238D01*
X141914523Y-72080476D01*
X141819285Y-72128095D01*
X116832142Y-80462380D02*
X116498809Y-79986190D01*
X116260714Y-80462380D02*
X116260714Y-79462380D01*
X116641666Y-79462380D01*
X116736904Y-79510000D01*
X116784523Y-79557619D01*
X116832142Y-79652857D01*
X116832142Y-79795714D01*
X116784523Y-79890952D01*
X116736904Y-79938571D01*
X116641666Y-79986190D01*
X116260714Y-79986190D01*
X117784523Y-80462380D02*
X117213095Y-80462380D01*
X117498809Y-80462380D02*
X117498809Y-79462380D01*
X117403571Y-79605238D01*
X117308333Y-79700476D01*
X117213095Y-79748095D01*
X118355952Y-79890952D02*
X118260714Y-79843333D01*
X118213095Y-79795714D01*
X118165476Y-79700476D01*
X118165476Y-79652857D01*
X118213095Y-79557619D01*
X118260714Y-79510000D01*
X118355952Y-79462380D01*
X118546428Y-79462380D01*
X118641666Y-79510000D01*
X118689285Y-79557619D01*
X118736904Y-79652857D01*
X118736904Y-79700476D01*
X118689285Y-79795714D01*
X118641666Y-79843333D01*
X118546428Y-79890952D01*
X118355952Y-79890952D01*
X118260714Y-79938571D01*
X118213095Y-79986190D01*
X118165476Y-80081428D01*
X118165476Y-80271904D01*
X118213095Y-80367142D01*
X118260714Y-80414761D01*
X118355952Y-80462380D01*
X118546428Y-80462380D01*
X118641666Y-80414761D01*
X118689285Y-80367142D01*
X118736904Y-80271904D01*
X118736904Y-80081428D01*
X118689285Y-79986190D01*
X118641666Y-79938571D01*
X118546428Y-79890952D01*
X131802142Y-80652857D02*
X131849761Y-80700476D01*
X131897380Y-80843333D01*
X131897380Y-80938571D01*
X131849761Y-81081428D01*
X131754523Y-81176666D01*
X131659285Y-81224285D01*
X131468809Y-81271904D01*
X131325952Y-81271904D01*
X131135476Y-81224285D01*
X131040238Y-81176666D01*
X130945000Y-81081428D01*
X130897380Y-80938571D01*
X130897380Y-80843333D01*
X130945000Y-80700476D01*
X130992619Y-80652857D01*
X130992619Y-80271904D02*
X130945000Y-80224285D01*
X130897380Y-80129047D01*
X130897380Y-79890952D01*
X130945000Y-79795714D01*
X130992619Y-79748095D01*
X131087857Y-79700476D01*
X131183095Y-79700476D01*
X131325952Y-79748095D01*
X131897380Y-80319523D01*
X131897380Y-79700476D01*
X130992619Y-79319523D02*
X130945000Y-79271904D01*
X130897380Y-79176666D01*
X130897380Y-78938571D01*
X130945000Y-78843333D01*
X130992619Y-78795714D01*
X131087857Y-78748095D01*
X131183095Y-78748095D01*
X131325952Y-78795714D01*
X131897380Y-79367142D01*
X131897380Y-78748095D01*
X123023333Y-74017142D02*
X122975714Y-74064761D01*
X122832857Y-74112380D01*
X122737619Y-74112380D01*
X122594761Y-74064761D01*
X122499523Y-73969523D01*
X122451904Y-73874285D01*
X122404285Y-73683809D01*
X122404285Y-73540952D01*
X122451904Y-73350476D01*
X122499523Y-73255238D01*
X122594761Y-73160000D01*
X122737619Y-73112380D01*
X122832857Y-73112380D01*
X122975714Y-73160000D01*
X123023333Y-73207619D01*
X123594761Y-73540952D02*
X123499523Y-73493333D01*
X123451904Y-73445714D01*
X123404285Y-73350476D01*
X123404285Y-73302857D01*
X123451904Y-73207619D01*
X123499523Y-73160000D01*
X123594761Y-73112380D01*
X123785238Y-73112380D01*
X123880476Y-73160000D01*
X123928095Y-73207619D01*
X123975714Y-73302857D01*
X123975714Y-73350476D01*
X123928095Y-73445714D01*
X123880476Y-73493333D01*
X123785238Y-73540952D01*
X123594761Y-73540952D01*
X123499523Y-73588571D01*
X123451904Y-73636190D01*
X123404285Y-73731428D01*
X123404285Y-73921904D01*
X123451904Y-74017142D01*
X123499523Y-74064761D01*
X123594761Y-74112380D01*
X123785238Y-74112380D01*
X123880476Y-74064761D01*
X123928095Y-74017142D01*
X123975714Y-73921904D01*
X123975714Y-73731428D01*
X123928095Y-73636190D01*
X123880476Y-73588571D01*
X123785238Y-73540952D01*
X154773333Y-70302380D02*
X154440000Y-69826190D01*
X154201904Y-70302380D02*
X154201904Y-69302380D01*
X154582857Y-69302380D01*
X154678095Y-69350000D01*
X154725714Y-69397619D01*
X154773333Y-69492857D01*
X154773333Y-69635714D01*
X154725714Y-69730952D01*
X154678095Y-69778571D01*
X154582857Y-69826190D01*
X154201904Y-69826190D01*
X155106666Y-69302380D02*
X155725714Y-69302380D01*
X155392380Y-69683333D01*
X155535238Y-69683333D01*
X155630476Y-69730952D01*
X155678095Y-69778571D01*
X155725714Y-69873809D01*
X155725714Y-70111904D01*
X155678095Y-70207142D01*
X155630476Y-70254761D01*
X155535238Y-70302380D01*
X155249523Y-70302380D01*
X155154285Y-70254761D01*
X155106666Y-70207142D01*
X163160833Y-82272142D02*
X163113214Y-82319761D01*
X162970357Y-82367380D01*
X162875119Y-82367380D01*
X162732261Y-82319761D01*
X162637023Y-82224523D01*
X162589404Y-82129285D01*
X162541785Y-81938809D01*
X162541785Y-81795952D01*
X162589404Y-81605476D01*
X162637023Y-81510238D01*
X162732261Y-81415000D01*
X162875119Y-81367380D01*
X162970357Y-81367380D01*
X163113214Y-81415000D01*
X163160833Y-81462619D01*
X163494166Y-81367380D02*
X164160833Y-81367380D01*
X163732261Y-82367380D01*
X156511666Y-87082380D02*
X156511666Y-87796666D01*
X156464047Y-87939523D01*
X156368809Y-88034761D01*
X156225952Y-88082380D01*
X156130714Y-88082380D01*
X156940238Y-87177619D02*
X156987857Y-87130000D01*
X157083095Y-87082380D01*
X157321190Y-87082380D01*
X157416428Y-87130000D01*
X157464047Y-87177619D01*
X157511666Y-87272857D01*
X157511666Y-87368095D01*
X157464047Y-87510952D01*
X156892619Y-88082380D01*
X157511666Y-88082380D01*
X140692142Y-76207857D02*
X140739761Y-76255476D01*
X140787380Y-76398333D01*
X140787380Y-76493571D01*
X140739761Y-76636428D01*
X140644523Y-76731666D01*
X140549285Y-76779285D01*
X140358809Y-76826904D01*
X140215952Y-76826904D01*
X140025476Y-76779285D01*
X139930238Y-76731666D01*
X139835000Y-76636428D01*
X139787380Y-76493571D01*
X139787380Y-76398333D01*
X139835000Y-76255476D01*
X139882619Y-76207857D01*
X140787380Y-75255476D02*
X140787380Y-75826904D01*
X140787380Y-75541190D02*
X139787380Y-75541190D01*
X139930238Y-75636428D01*
X140025476Y-75731666D01*
X140073095Y-75826904D01*
X140215952Y-74684047D02*
X140168333Y-74779285D01*
X140120714Y-74826904D01*
X140025476Y-74874523D01*
X139977857Y-74874523D01*
X139882619Y-74826904D01*
X139835000Y-74779285D01*
X139787380Y-74684047D01*
X139787380Y-74493571D01*
X139835000Y-74398333D01*
X139882619Y-74350714D01*
X139977857Y-74303095D01*
X140025476Y-74303095D01*
X140120714Y-74350714D01*
X140168333Y-74398333D01*
X140215952Y-74493571D01*
X140215952Y-74684047D01*
X140263571Y-74779285D01*
X140311190Y-74826904D01*
X140406428Y-74874523D01*
X140596904Y-74874523D01*
X140692142Y-74826904D01*
X140739761Y-74779285D01*
X140787380Y-74684047D01*
X140787380Y-74493571D01*
X140739761Y-74398333D01*
X140692142Y-74350714D01*
X140596904Y-74303095D01*
X140406428Y-74303095D01*
X140311190Y-74350714D01*
X140263571Y-74398333D01*
X140215952Y-74493571D01*
X128143095Y-73747380D02*
X128143095Y-74556904D01*
X128190714Y-74652142D01*
X128238333Y-74699761D01*
X128333571Y-74747380D01*
X128524047Y-74747380D01*
X128619285Y-74699761D01*
X128666904Y-74652142D01*
X128714523Y-74556904D01*
X128714523Y-73747380D01*
X129143095Y-73842619D02*
X129190714Y-73795000D01*
X129285952Y-73747380D01*
X129524047Y-73747380D01*
X129619285Y-73795000D01*
X129666904Y-73842619D01*
X129714523Y-73937857D01*
X129714523Y-74033095D01*
X129666904Y-74175952D01*
X129095476Y-74747380D01*
X129714523Y-74747380D01*
X158583333Y-79986142D02*
X158535714Y-80033761D01*
X158392857Y-80081380D01*
X158297619Y-80081380D01*
X158154761Y-80033761D01*
X158059523Y-79938523D01*
X158011904Y-79843285D01*
X157964285Y-79652809D01*
X157964285Y-79509952D01*
X158011904Y-79319476D01*
X158059523Y-79224238D01*
X158154761Y-79129000D01*
X158297619Y-79081380D01*
X158392857Y-79081380D01*
X158535714Y-79129000D01*
X158583333Y-79176619D01*
X159535714Y-80081380D02*
X158964285Y-80081380D01*
X159250000Y-80081380D02*
X159250000Y-79081380D01*
X159154761Y-79224238D01*
X159059523Y-79319476D01*
X158964285Y-79367095D01*
X138312142Y-69857857D02*
X138359761Y-69905476D01*
X138407380Y-70048333D01*
X138407380Y-70143571D01*
X138359761Y-70286428D01*
X138264523Y-70381666D01*
X138169285Y-70429285D01*
X137978809Y-70476904D01*
X137835952Y-70476904D01*
X137645476Y-70429285D01*
X137550238Y-70381666D01*
X137455000Y-70286428D01*
X137407380Y-70143571D01*
X137407380Y-70048333D01*
X137455000Y-69905476D01*
X137502619Y-69857857D01*
X138407380Y-68905476D02*
X138407380Y-69476904D01*
X138407380Y-69191190D02*
X137407380Y-69191190D01*
X137550238Y-69286428D01*
X137645476Y-69381666D01*
X137693095Y-69476904D01*
X137502619Y-68524523D02*
X137455000Y-68476904D01*
X137407380Y-68381666D01*
X137407380Y-68143571D01*
X137455000Y-68048333D01*
X137502619Y-68000714D01*
X137597857Y-67953095D01*
X137693095Y-67953095D01*
X137835952Y-68000714D01*
X138407380Y-68572142D01*
X138407380Y-67953095D01*
X117327142Y-75922142D02*
X117279523Y-75969761D01*
X117136666Y-76017380D01*
X117041428Y-76017380D01*
X116898571Y-75969761D01*
X116803333Y-75874523D01*
X116755714Y-75779285D01*
X116708095Y-75588809D01*
X116708095Y-75445952D01*
X116755714Y-75255476D01*
X116803333Y-75160238D01*
X116898571Y-75065000D01*
X117041428Y-75017380D01*
X117136666Y-75017380D01*
X117279523Y-75065000D01*
X117327142Y-75112619D01*
X118279523Y-76017380D02*
X117708095Y-76017380D01*
X117993809Y-76017380D02*
X117993809Y-75017380D01*
X117898571Y-75160238D01*
X117803333Y-75255476D01*
X117708095Y-75303095D01*
X118755714Y-76017380D02*
X118946190Y-76017380D01*
X119041428Y-75969761D01*
X119089047Y-75922142D01*
X119184285Y-75779285D01*
X119231904Y-75588809D01*
X119231904Y-75207857D01*
X119184285Y-75112619D01*
X119136666Y-75065000D01*
X119041428Y-75017380D01*
X118850952Y-75017380D01*
X118755714Y-75065000D01*
X118708095Y-75112619D01*
X118660476Y-75207857D01*
X118660476Y-75445952D01*
X118708095Y-75541190D01*
X118755714Y-75588809D01*
X118850952Y-75636428D01*
X119041428Y-75636428D01*
X119136666Y-75588809D01*
X119184285Y-75541190D01*
X119231904Y-75445952D01*
X125182380Y-70611904D02*
X125991904Y-70611904D01*
X126087142Y-70564285D01*
X126134761Y-70516666D01*
X126182380Y-70421428D01*
X126182380Y-70230952D01*
X126134761Y-70135714D01*
X126087142Y-70088095D01*
X125991904Y-70040476D01*
X125182380Y-70040476D01*
X125182380Y-69088095D02*
X125182380Y-69564285D01*
X125658571Y-69611904D01*
X125610952Y-69564285D01*
X125563333Y-69469047D01*
X125563333Y-69230952D01*
X125610952Y-69135714D01*
X125658571Y-69088095D01*
X125753809Y-69040476D01*
X125991904Y-69040476D01*
X126087142Y-69088095D01*
X126134761Y-69135714D01*
X126182380Y-69230952D01*
X126182380Y-69469047D01*
X126134761Y-69564285D01*
X126087142Y-69611904D01*
X143343333Y-84907380D02*
X143010000Y-84431190D01*
X142771904Y-84907380D02*
X142771904Y-83907380D01*
X143152857Y-83907380D01*
X143248095Y-83955000D01*
X143295714Y-84002619D01*
X143343333Y-84097857D01*
X143343333Y-84240714D01*
X143295714Y-84335952D01*
X143248095Y-84383571D01*
X143152857Y-84431190D01*
X142771904Y-84431190D01*
X143676666Y-83907380D02*
X144343333Y-83907380D01*
X143914761Y-84907380D01*
X118975142Y-82716666D02*
X119022761Y-82764285D01*
X119070380Y-82907142D01*
X119070380Y-83002380D01*
X119022761Y-83145238D01*
X118927523Y-83240476D01*
X118832285Y-83288095D01*
X118641809Y-83335714D01*
X118498952Y-83335714D01*
X118308476Y-83288095D01*
X118213238Y-83240476D01*
X118118000Y-83145238D01*
X118070380Y-83002380D01*
X118070380Y-82907142D01*
X118118000Y-82764285D01*
X118165619Y-82716666D01*
X118070380Y-82383333D02*
X118070380Y-81764285D01*
X118451333Y-82097619D01*
X118451333Y-81954761D01*
X118498952Y-81859523D01*
X118546571Y-81811904D01*
X118641809Y-81764285D01*
X118879904Y-81764285D01*
X118975142Y-81811904D01*
X119022761Y-81859523D01*
X119070380Y-81954761D01*
X119070380Y-82240476D01*
X119022761Y-82335714D01*
X118975142Y-82383333D01*
X155916333Y-72588380D02*
X155583000Y-72112190D01*
X155344904Y-72588380D02*
X155344904Y-71588380D01*
X155725857Y-71588380D01*
X155821095Y-71636000D01*
X155868714Y-71683619D01*
X155916333Y-71778857D01*
X155916333Y-71921714D01*
X155868714Y-72016952D01*
X155821095Y-72064571D01*
X155725857Y-72112190D01*
X155344904Y-72112190D01*
X156392523Y-72588380D02*
X156583000Y-72588380D01*
X156678238Y-72540761D01*
X156725857Y-72493142D01*
X156821095Y-72350285D01*
X156868714Y-72159809D01*
X156868714Y-71778857D01*
X156821095Y-71683619D01*
X156773476Y-71636000D01*
X156678238Y-71588380D01*
X156487761Y-71588380D01*
X156392523Y-71636000D01*
X156344904Y-71683619D01*
X156297285Y-71778857D01*
X156297285Y-72016952D01*
X156344904Y-72112190D01*
X156392523Y-72159809D01*
X156487761Y-72207428D01*
X156678238Y-72207428D01*
X156773476Y-72159809D01*
X156821095Y-72112190D01*
X156868714Y-72016952D01*
X154772142Y-80271857D02*
X154819761Y-80319476D01*
X154867380Y-80462333D01*
X154867380Y-80557571D01*
X154819761Y-80700428D01*
X154724523Y-80795666D01*
X154629285Y-80843285D01*
X154438809Y-80890904D01*
X154295952Y-80890904D01*
X154105476Y-80843285D01*
X154010238Y-80795666D01*
X153915000Y-80700428D01*
X153867380Y-80557571D01*
X153867380Y-80462333D01*
X153915000Y-80319476D01*
X153962619Y-80271857D01*
X153962619Y-79890904D02*
X153915000Y-79843285D01*
X153867380Y-79748047D01*
X153867380Y-79509952D01*
X153915000Y-79414714D01*
X153962619Y-79367095D01*
X154057857Y-79319476D01*
X154153095Y-79319476D01*
X154295952Y-79367095D01*
X154867380Y-79938523D01*
X154867380Y-79319476D01*
X153867380Y-78414714D02*
X153867380Y-78890904D01*
X154343571Y-78938523D01*
X154295952Y-78890904D01*
X154248333Y-78795666D01*
X154248333Y-78557571D01*
X154295952Y-78462333D01*
X154343571Y-78414714D01*
X154438809Y-78367095D01*
X154676904Y-78367095D01*
X154772142Y-78414714D01*
X154819761Y-78462333D01*
X154867380Y-78557571D01*
X154867380Y-78795666D01*
X154819761Y-78890904D01*
X154772142Y-78938523D01*
X117803333Y-74398142D02*
X117755714Y-74445761D01*
X117612857Y-74493380D01*
X117517619Y-74493380D01*
X117374761Y-74445761D01*
X117279523Y-74350523D01*
X117231904Y-74255285D01*
X117184285Y-74064809D01*
X117184285Y-73921952D01*
X117231904Y-73731476D01*
X117279523Y-73636238D01*
X117374761Y-73541000D01*
X117517619Y-73493380D01*
X117612857Y-73493380D01*
X117755714Y-73541000D01*
X117803333Y-73588619D01*
X118184285Y-73588619D02*
X118231904Y-73541000D01*
X118327142Y-73493380D01*
X118565238Y-73493380D01*
X118660476Y-73541000D01*
X118708095Y-73588619D01*
X118755714Y-73683857D01*
X118755714Y-73779095D01*
X118708095Y-73921952D01*
X118136666Y-74493380D01*
X118755714Y-74493380D01*
X159821666Y-74858571D02*
X159488333Y-74858571D01*
X159488333Y-75382380D02*
X159488333Y-74382380D01*
X159964523Y-74382380D01*
X160678809Y-74858571D02*
X160821666Y-74906190D01*
X160869285Y-74953809D01*
X160916904Y-75049047D01*
X160916904Y-75191904D01*
X160869285Y-75287142D01*
X160821666Y-75334761D01*
X160726428Y-75382380D01*
X160345476Y-75382380D01*
X160345476Y-74382380D01*
X160678809Y-74382380D01*
X160774047Y-74430000D01*
X160821666Y-74477619D01*
X160869285Y-74572857D01*
X160869285Y-74668095D01*
X160821666Y-74763333D01*
X160774047Y-74810952D01*
X160678809Y-74858571D01*
X160345476Y-74858571D01*
X161869285Y-75382380D02*
X161297857Y-75382380D01*
X161583571Y-75382380D02*
X161583571Y-74382380D01*
X161488333Y-74525238D01*
X161393095Y-74620476D01*
X161297857Y-74668095D01*
X141438333Y-71572380D02*
X141105000Y-71096190D01*
X140866904Y-71572380D02*
X140866904Y-70572380D01*
X141247857Y-70572380D01*
X141343095Y-70620000D01*
X141390714Y-70667619D01*
X141438333Y-70762857D01*
X141438333Y-70905714D01*
X141390714Y-71000952D01*
X141343095Y-71048571D01*
X141247857Y-71096190D01*
X140866904Y-71096190D01*
X142295476Y-70572380D02*
X142105000Y-70572380D01*
X142009761Y-70620000D01*
X141962142Y-70667619D01*
X141866904Y-70810476D01*
X141819285Y-71000952D01*
X141819285Y-71381904D01*
X141866904Y-71477142D01*
X141914523Y-71524761D01*
X142009761Y-71572380D01*
X142200238Y-71572380D01*
X142295476Y-71524761D01*
X142343095Y-71477142D01*
X142390714Y-71381904D01*
X142390714Y-71143809D01*
X142343095Y-71048571D01*
X142295476Y-71000952D01*
X142200238Y-70953333D01*
X142009761Y-70953333D01*
X141914523Y-71000952D01*
X141866904Y-71048571D01*
X141819285Y-71143809D01*
X151487142Y-85732857D02*
X151534761Y-85780476D01*
X151582380Y-85923333D01*
X151582380Y-86018571D01*
X151534761Y-86161428D01*
X151439523Y-86256666D01*
X151344285Y-86304285D01*
X151153809Y-86351904D01*
X151010952Y-86351904D01*
X150820476Y-86304285D01*
X150725238Y-86256666D01*
X150630000Y-86161428D01*
X150582380Y-86018571D01*
X150582380Y-85923333D01*
X150630000Y-85780476D01*
X150677619Y-85732857D01*
X150677619Y-85351904D02*
X150630000Y-85304285D01*
X150582380Y-85209047D01*
X150582380Y-84970952D01*
X150630000Y-84875714D01*
X150677619Y-84828095D01*
X150772857Y-84780476D01*
X150868095Y-84780476D01*
X151010952Y-84828095D01*
X151582380Y-85399523D01*
X151582380Y-84780476D01*
X150915714Y-83923333D02*
X151582380Y-83923333D01*
X150534761Y-84161428D02*
X151249047Y-84399523D01*
X151249047Y-83780476D01*
X118942142Y-70492857D02*
X118989761Y-70540476D01*
X119037380Y-70683333D01*
X119037380Y-70778571D01*
X118989761Y-70921428D01*
X118894523Y-71016666D01*
X118799285Y-71064285D01*
X118608809Y-71111904D01*
X118465952Y-71111904D01*
X118275476Y-71064285D01*
X118180238Y-71016666D01*
X118085000Y-70921428D01*
X118037380Y-70778571D01*
X118037380Y-70683333D01*
X118085000Y-70540476D01*
X118132619Y-70492857D01*
X119037380Y-69540476D02*
X119037380Y-70111904D01*
X119037380Y-69826190D02*
X118037380Y-69826190D01*
X118180238Y-69921428D01*
X118275476Y-70016666D01*
X118323095Y-70111904D01*
X118370714Y-68683333D02*
X119037380Y-68683333D01*
X117989761Y-68921428D02*
X118704047Y-69159523D01*
X118704047Y-68540476D01*
X161504380Y-70611904D02*
X162313904Y-70611904D01*
X162409142Y-70564285D01*
X162456761Y-70516666D01*
X162504380Y-70421428D01*
X162504380Y-70230952D01*
X162456761Y-70135714D01*
X162409142Y-70088095D01*
X162313904Y-70040476D01*
X161504380Y-70040476D01*
X161504380Y-69135714D02*
X161504380Y-69326190D01*
X161552000Y-69421428D01*
X161599619Y-69469047D01*
X161742476Y-69564285D01*
X161932952Y-69611904D01*
X162313904Y-69611904D01*
X162409142Y-69564285D01*
X162456761Y-69516666D01*
X162504380Y-69421428D01*
X162504380Y-69230952D01*
X162456761Y-69135714D01*
X162409142Y-69088095D01*
X162313904Y-69040476D01*
X162075809Y-69040476D01*
X161980571Y-69088095D01*
X161932952Y-69135714D01*
X161885333Y-69230952D01*
X161885333Y-69421428D01*
X161932952Y-69516666D01*
X161980571Y-69564285D01*
X162075809Y-69611904D01*
X161917142Y-72747142D02*
X161869523Y-72794761D01*
X161726666Y-72842380D01*
X161631428Y-72842380D01*
X161488571Y-72794761D01*
X161393333Y-72699523D01*
X161345714Y-72604285D01*
X161298095Y-72413809D01*
X161298095Y-72270952D01*
X161345714Y-72080476D01*
X161393333Y-71985238D01*
X161488571Y-71890000D01*
X161631428Y-71842380D01*
X161726666Y-71842380D01*
X161869523Y-71890000D01*
X161917142Y-71937619D01*
X162869523Y-72842380D02*
X162298095Y-72842380D01*
X162583809Y-72842380D02*
X162583809Y-71842380D01*
X162488571Y-71985238D01*
X162393333Y-72080476D01*
X162298095Y-72128095D01*
X163774285Y-71842380D02*
X163298095Y-71842380D01*
X163250476Y-72318571D01*
X163298095Y-72270952D01*
X163393333Y-72223333D01*
X163631428Y-72223333D01*
X163726666Y-72270952D01*
X163774285Y-72318571D01*
X163821904Y-72413809D01*
X163821904Y-72651904D01*
X163774285Y-72747142D01*
X163726666Y-72794761D01*
X163631428Y-72842380D01*
X163393333Y-72842380D01*
X163298095Y-72794761D01*
X163250476Y-72747142D01*
X114657142Y-81922857D02*
X114704761Y-81970476D01*
X114752380Y-82113333D01*
X114752380Y-82208571D01*
X114704761Y-82351428D01*
X114609523Y-82446666D01*
X114514285Y-82494285D01*
X114323809Y-82541904D01*
X114180952Y-82541904D01*
X113990476Y-82494285D01*
X113895238Y-82446666D01*
X113800000Y-82351428D01*
X113752380Y-82208571D01*
X113752380Y-82113333D01*
X113800000Y-81970476D01*
X113847619Y-81922857D01*
X113847619Y-81541904D02*
X113800000Y-81494285D01*
X113752380Y-81399047D01*
X113752380Y-81160952D01*
X113800000Y-81065714D01*
X113847619Y-81018095D01*
X113942857Y-80970476D01*
X114038095Y-80970476D01*
X114180952Y-81018095D01*
X114752380Y-81589523D01*
X114752380Y-80970476D01*
X113752380Y-80113333D02*
X113752380Y-80303809D01*
X113800000Y-80399047D01*
X113847619Y-80446666D01*
X113990476Y-80541904D01*
X114180952Y-80589523D01*
X114561904Y-80589523D01*
X114657142Y-80541904D01*
X114704761Y-80494285D01*
X114752380Y-80399047D01*
X114752380Y-80208571D01*
X114704761Y-80113333D01*
X114657142Y-80065714D01*
X114561904Y-80018095D01*
X114323809Y-80018095D01*
X114228571Y-80065714D01*
X114180952Y-80113333D01*
X114133333Y-80208571D01*
X114133333Y-80399047D01*
X114180952Y-80494285D01*
X114228571Y-80541904D01*
X114323809Y-80589523D01*
X121912142Y-84177142D02*
X121864523Y-84224761D01*
X121721666Y-84272380D01*
X121626428Y-84272380D01*
X121483571Y-84224761D01*
X121388333Y-84129523D01*
X121340714Y-84034285D01*
X121293095Y-83843809D01*
X121293095Y-83700952D01*
X121340714Y-83510476D01*
X121388333Y-83415238D01*
X121483571Y-83320000D01*
X121626428Y-83272380D01*
X121721666Y-83272380D01*
X121864523Y-83320000D01*
X121912142Y-83367619D01*
X122293095Y-83367619D02*
X122340714Y-83320000D01*
X122435952Y-83272380D01*
X122674047Y-83272380D01*
X122769285Y-83320000D01*
X122816904Y-83367619D01*
X122864523Y-83462857D01*
X122864523Y-83558095D01*
X122816904Y-83700952D01*
X122245476Y-84272380D01*
X122864523Y-84272380D01*
X123483571Y-83272380D02*
X123578809Y-83272380D01*
X123674047Y-83320000D01*
X123721666Y-83367619D01*
X123769285Y-83462857D01*
X123816904Y-83653333D01*
X123816904Y-83891428D01*
X123769285Y-84081904D01*
X123721666Y-84177142D01*
X123674047Y-84224761D01*
X123578809Y-84272380D01*
X123483571Y-84272380D01*
X123388333Y-84224761D01*
X123340714Y-84177142D01*
X123293095Y-84081904D01*
X123245476Y-83891428D01*
X123245476Y-83653333D01*
X123293095Y-83462857D01*
X123340714Y-83367619D01*
X123388333Y-83320000D01*
X123483571Y-83272380D01*
X171574642Y-77192142D02*
X171527023Y-77239761D01*
X171384166Y-77287380D01*
X171288928Y-77287380D01*
X171146071Y-77239761D01*
X171050833Y-77144523D01*
X171003214Y-77049285D01*
X170955595Y-76858809D01*
X170955595Y-76715952D01*
X171003214Y-76525476D01*
X171050833Y-76430238D01*
X171146071Y-76335000D01*
X171288928Y-76287380D01*
X171384166Y-76287380D01*
X171527023Y-76335000D01*
X171574642Y-76382619D01*
X172527023Y-77287380D02*
X171955595Y-77287380D01*
X172241309Y-77287380D02*
X172241309Y-76287380D01*
X172146071Y-76430238D01*
X172050833Y-76525476D01*
X171955595Y-76573095D01*
X173146071Y-76287380D02*
X173241309Y-76287380D01*
X173336547Y-76335000D01*
X173384166Y-76382619D01*
X173431785Y-76477857D01*
X173479404Y-76668333D01*
X173479404Y-76906428D01*
X173431785Y-77096904D01*
X173384166Y-77192142D01*
X173336547Y-77239761D01*
X173241309Y-77287380D01*
X173146071Y-77287380D01*
X173050833Y-77239761D01*
X173003214Y-77192142D01*
X172955595Y-77096904D01*
X172907976Y-76906428D01*
X172907976Y-76668333D01*
X172955595Y-76477857D01*
X173003214Y-76382619D01*
X173050833Y-76335000D01*
X173146071Y-76287380D01*
X142867142Y-86177380D02*
X142533809Y-85701190D01*
X142295714Y-86177380D02*
X142295714Y-85177380D01*
X142676666Y-85177380D01*
X142771904Y-85225000D01*
X142819523Y-85272619D01*
X142867142Y-85367857D01*
X142867142Y-85510714D01*
X142819523Y-85605952D01*
X142771904Y-85653571D01*
X142676666Y-85701190D01*
X142295714Y-85701190D01*
X143819523Y-86177380D02*
X143248095Y-86177380D01*
X143533809Y-86177380D02*
X143533809Y-85177380D01*
X143438571Y-85320238D01*
X143343333Y-85415476D01*
X143248095Y-85463095D01*
X144200476Y-85272619D02*
X144248095Y-85225000D01*
X144343333Y-85177380D01*
X144581428Y-85177380D01*
X144676666Y-85225000D01*
X144724285Y-85272619D01*
X144771904Y-85367857D01*
X144771904Y-85463095D01*
X144724285Y-85605952D01*
X144152857Y-86177380D01*
X144771904Y-86177380D01*
X117308333Y-77446142D02*
X117260714Y-77493761D01*
X117117857Y-77541380D01*
X117022619Y-77541380D01*
X116879761Y-77493761D01*
X116784523Y-77398523D01*
X116736904Y-77303285D01*
X116689285Y-77112809D01*
X116689285Y-76969952D01*
X116736904Y-76779476D01*
X116784523Y-76684238D01*
X116879761Y-76589000D01*
X117022619Y-76541380D01*
X117117857Y-76541380D01*
X117260714Y-76589000D01*
X117308333Y-76636619D01*
X117784523Y-77541380D02*
X117975000Y-77541380D01*
X118070238Y-77493761D01*
X118117857Y-77446142D01*
X118213095Y-77303285D01*
X118260714Y-77112809D01*
X118260714Y-76731857D01*
X118213095Y-76636619D01*
X118165476Y-76589000D01*
X118070238Y-76541380D01*
X117879761Y-76541380D01*
X117784523Y-76589000D01*
X117736904Y-76636619D01*
X117689285Y-76731857D01*
X117689285Y-76969952D01*
X117736904Y-77065190D01*
X117784523Y-77112809D01*
X117879761Y-77160428D01*
X118070238Y-77160428D01*
X118165476Y-77112809D01*
X118213095Y-77065190D01*
X118260714Y-76969952D01*
X147153333Y-69032380D02*
X146820000Y-68556190D01*
X146581904Y-69032380D02*
X146581904Y-68032380D01*
X146962857Y-68032380D01*
X147058095Y-68080000D01*
X147105714Y-68127619D01*
X147153333Y-68222857D01*
X147153333Y-68365714D01*
X147105714Y-68460952D01*
X147058095Y-68508571D01*
X146962857Y-68556190D01*
X146581904Y-68556190D01*
X148010476Y-68365714D02*
X148010476Y-69032380D01*
X147772380Y-67984761D02*
X147534285Y-68699047D01*
X148153333Y-68699047D01*
X142867142Y-89987380D02*
X142533809Y-89511190D01*
X142295714Y-89987380D02*
X142295714Y-88987380D01*
X142676666Y-88987380D01*
X142771904Y-89035000D01*
X142819523Y-89082619D01*
X142867142Y-89177857D01*
X142867142Y-89320714D01*
X142819523Y-89415952D01*
X142771904Y-89463571D01*
X142676666Y-89511190D01*
X142295714Y-89511190D01*
X143819523Y-89987380D02*
X143248095Y-89987380D01*
X143533809Y-89987380D02*
X143533809Y-88987380D01*
X143438571Y-89130238D01*
X143343333Y-89225476D01*
X143248095Y-89273095D01*
X144724285Y-88987380D02*
X144248095Y-88987380D01*
X144200476Y-89463571D01*
X144248095Y-89415952D01*
X144343333Y-89368333D01*
X144581428Y-89368333D01*
X144676666Y-89415952D01*
X144724285Y-89463571D01*
X144771904Y-89558809D01*
X144771904Y-89796904D01*
X144724285Y-89892142D01*
X144676666Y-89939761D01*
X144581428Y-89987380D01*
X144343333Y-89987380D01*
X144248095Y-89939761D01*
X144200476Y-89892142D01*
X119372142Y-86177380D02*
X119038809Y-85701190D01*
X118800714Y-86177380D02*
X118800714Y-85177380D01*
X119181666Y-85177380D01*
X119276904Y-85225000D01*
X119324523Y-85272619D01*
X119372142Y-85367857D01*
X119372142Y-85510714D01*
X119324523Y-85605952D01*
X119276904Y-85653571D01*
X119181666Y-85701190D01*
X118800714Y-85701190D01*
X120324523Y-86177380D02*
X119753095Y-86177380D01*
X120038809Y-86177380D02*
X120038809Y-85177380D01*
X119943571Y-85320238D01*
X119848333Y-85415476D01*
X119753095Y-85463095D01*
X120800714Y-86177380D02*
X120991190Y-86177380D01*
X121086428Y-86129761D01*
X121134047Y-86082142D01*
X121229285Y-85939285D01*
X121276904Y-85748809D01*
X121276904Y-85367857D01*
X121229285Y-85272619D01*
X121181666Y-85225000D01*
X121086428Y-85177380D01*
X120895952Y-85177380D01*
X120800714Y-85225000D01*
X120753095Y-85272619D01*
X120705476Y-85367857D01*
X120705476Y-85605952D01*
X120753095Y-85701190D01*
X120800714Y-85748809D01*
X120895952Y-85796428D01*
X121086428Y-85796428D01*
X121181666Y-85748809D01*
X121229285Y-85701190D01*
X121276904Y-85605952D01*
X141438333Y-74112380D02*
X141105000Y-73636190D01*
X140866904Y-74112380D02*
X140866904Y-73112380D01*
X141247857Y-73112380D01*
X141343095Y-73160000D01*
X141390714Y-73207619D01*
X141438333Y-73302857D01*
X141438333Y-73445714D01*
X141390714Y-73540952D01*
X141343095Y-73588571D01*
X141247857Y-73636190D01*
X140866904Y-73636190D01*
X141819285Y-73207619D02*
X141866904Y-73160000D01*
X141962142Y-73112380D01*
X142200238Y-73112380D01*
X142295476Y-73160000D01*
X142343095Y-73207619D01*
X142390714Y-73302857D01*
X142390714Y-73398095D01*
X142343095Y-73540952D01*
X141771666Y-74112380D01*
X142390714Y-74112380D01*
X149733095Y-81452380D02*
X149733095Y-82261904D01*
X149780714Y-82357142D01*
X149828333Y-82404761D01*
X149923571Y-82452380D01*
X150114047Y-82452380D01*
X150209285Y-82404761D01*
X150256904Y-82357142D01*
X150304523Y-82261904D01*
X150304523Y-81452380D01*
X151304523Y-82452380D02*
X150733095Y-82452380D01*
X151018809Y-82452380D02*
X151018809Y-81452380D01*
X150923571Y-81595238D01*
X150828333Y-81690476D01*
X150733095Y-81738095D01*
X136501142Y-75096666D02*
X136548761Y-75144285D01*
X136596380Y-75287142D01*
X136596380Y-75382380D01*
X136548761Y-75525238D01*
X136453523Y-75620476D01*
X136358285Y-75668095D01*
X136167809Y-75715714D01*
X136024952Y-75715714D01*
X135834476Y-75668095D01*
X135739238Y-75620476D01*
X135644000Y-75525238D01*
X135596380Y-75382380D01*
X135596380Y-75287142D01*
X135644000Y-75144285D01*
X135691619Y-75096666D01*
X135929714Y-74239523D02*
X136596380Y-74239523D01*
X135548761Y-74477619D02*
X136263047Y-74715714D01*
X136263047Y-74096666D01*
X156678333Y-67127380D02*
X156345000Y-66651190D01*
X156106904Y-67127380D02*
X156106904Y-66127380D01*
X156487857Y-66127380D01*
X156583095Y-66175000D01*
X156630714Y-66222619D01*
X156678333Y-66317857D01*
X156678333Y-66460714D01*
X156630714Y-66555952D01*
X156583095Y-66603571D01*
X156487857Y-66651190D01*
X156106904Y-66651190D01*
X157249761Y-66555952D02*
X157154523Y-66508333D01*
X157106904Y-66460714D01*
X157059285Y-66365476D01*
X157059285Y-66317857D01*
X157106904Y-66222619D01*
X157154523Y-66175000D01*
X157249761Y-66127380D01*
X157440238Y-66127380D01*
X157535476Y-66175000D01*
X157583095Y-66222619D01*
X157630714Y-66317857D01*
X157630714Y-66365476D01*
X157583095Y-66460714D01*
X157535476Y-66508333D01*
X157440238Y-66555952D01*
X157249761Y-66555952D01*
X157154523Y-66603571D01*
X157106904Y-66651190D01*
X157059285Y-66746428D01*
X157059285Y-66936904D01*
X157106904Y-67032142D01*
X157154523Y-67079761D01*
X157249761Y-67127380D01*
X157440238Y-67127380D01*
X157535476Y-67079761D01*
X157583095Y-67032142D01*
X157630714Y-66936904D01*
X157630714Y-66746428D01*
X157583095Y-66651190D01*
X157535476Y-66603571D01*
X157440238Y-66555952D01*
X116832142Y-79192380D02*
X116498809Y-78716190D01*
X116260714Y-79192380D02*
X116260714Y-78192380D01*
X116641666Y-78192380D01*
X116736904Y-78240000D01*
X116784523Y-78287619D01*
X116832142Y-78382857D01*
X116832142Y-78525714D01*
X116784523Y-78620952D01*
X116736904Y-78668571D01*
X116641666Y-78716190D01*
X116260714Y-78716190D01*
X117784523Y-79192380D02*
X117213095Y-79192380D01*
X117498809Y-79192380D02*
X117498809Y-78192380D01*
X117403571Y-78335238D01*
X117308333Y-78430476D01*
X117213095Y-78478095D01*
X118117857Y-78192380D02*
X118784523Y-78192380D01*
X118355952Y-79192380D01*
X169510833Y-76938142D02*
X169463214Y-76985761D01*
X169320357Y-77033380D01*
X169225119Y-77033380D01*
X169082261Y-76985761D01*
X168987023Y-76890523D01*
X168939404Y-76795285D01*
X168891785Y-76604809D01*
X168891785Y-76461952D01*
X168939404Y-76271476D01*
X168987023Y-76176238D01*
X169082261Y-76081000D01*
X169225119Y-76033380D01*
X169320357Y-76033380D01*
X169463214Y-76081000D01*
X169510833Y-76128619D01*
X170367976Y-76033380D02*
X170177500Y-76033380D01*
X170082261Y-76081000D01*
X170034642Y-76128619D01*
X169939404Y-76271476D01*
X169891785Y-76461952D01*
X169891785Y-76842904D01*
X169939404Y-76938142D01*
X169987023Y-76985761D01*
X170082261Y-77033380D01*
X170272738Y-77033380D01*
X170367976Y-76985761D01*
X170415595Y-76938142D01*
X170463214Y-76842904D01*
X170463214Y-76604809D01*
X170415595Y-76509571D01*
X170367976Y-76461952D01*
X170272738Y-76414333D01*
X170082261Y-76414333D01*
X169987023Y-76461952D01*
X169939404Y-76509571D01*
X169891785Y-76604809D01*
X130262380Y-70611904D02*
X131071904Y-70611904D01*
X131167142Y-70564285D01*
X131214761Y-70516666D01*
X131262380Y-70421428D01*
X131262380Y-70230952D01*
X131214761Y-70135714D01*
X131167142Y-70088095D01*
X131071904Y-70040476D01*
X130262380Y-70040476D01*
X130595714Y-69135714D02*
X131262380Y-69135714D01*
X130214761Y-69373809D02*
X130929047Y-69611904D01*
X130929047Y-68992857D01*
X154789142Y-76207857D02*
X154836761Y-76255476D01*
X154884380Y-76398333D01*
X154884380Y-76493571D01*
X154836761Y-76636428D01*
X154741523Y-76731666D01*
X154646285Y-76779285D01*
X154455809Y-76826904D01*
X154312952Y-76826904D01*
X154122476Y-76779285D01*
X154027238Y-76731666D01*
X153932000Y-76636428D01*
X153884380Y-76493571D01*
X153884380Y-76398333D01*
X153932000Y-76255476D01*
X153979619Y-76207857D01*
X153979619Y-75826904D02*
X153932000Y-75779285D01*
X153884380Y-75684047D01*
X153884380Y-75445952D01*
X153932000Y-75350714D01*
X153979619Y-75303095D01*
X154074857Y-75255476D01*
X154170095Y-75255476D01*
X154312952Y-75303095D01*
X154884380Y-75874523D01*
X154884380Y-75255476D01*
X154312952Y-74684047D02*
X154265333Y-74779285D01*
X154217714Y-74826904D01*
X154122476Y-74874523D01*
X154074857Y-74874523D01*
X153979619Y-74826904D01*
X153932000Y-74779285D01*
X153884380Y-74684047D01*
X153884380Y-74493571D01*
X153932000Y-74398333D01*
X153979619Y-74350714D01*
X154074857Y-74303095D01*
X154122476Y-74303095D01*
X154217714Y-74350714D01*
X154265333Y-74398333D01*
X154312952Y-74493571D01*
X154312952Y-74684047D01*
X154360571Y-74779285D01*
X154408190Y-74826904D01*
X154503428Y-74874523D01*
X154693904Y-74874523D01*
X154789142Y-74826904D01*
X154836761Y-74779285D01*
X154884380Y-74684047D01*
X154884380Y-74493571D01*
X154836761Y-74398333D01*
X154789142Y-74350714D01*
X154693904Y-74303095D01*
X154503428Y-74303095D01*
X154408190Y-74350714D01*
X154360571Y-74398333D01*
X154312952Y-74493571D01*
X130802142Y-73382142D02*
X130754523Y-73429761D01*
X130611666Y-73477380D01*
X130516428Y-73477380D01*
X130373571Y-73429761D01*
X130278333Y-73334523D01*
X130230714Y-73239285D01*
X130183095Y-73048809D01*
X130183095Y-72905952D01*
X130230714Y-72715476D01*
X130278333Y-72620238D01*
X130373571Y-72525000D01*
X130516428Y-72477380D01*
X130611666Y-72477380D01*
X130754523Y-72525000D01*
X130802142Y-72572619D01*
X131183095Y-72572619D02*
X131230714Y-72525000D01*
X131325952Y-72477380D01*
X131564047Y-72477380D01*
X131659285Y-72525000D01*
X131706904Y-72572619D01*
X131754523Y-72667857D01*
X131754523Y-72763095D01*
X131706904Y-72905952D01*
X131135476Y-73477380D01*
X131754523Y-73477380D01*
X132706904Y-73477380D02*
X132135476Y-73477380D01*
X132421190Y-73477380D02*
X132421190Y-72477380D01*
X132325952Y-72620238D01*
X132230714Y-72715476D01*
X132135476Y-72763095D01*
X157202142Y-79255857D02*
X157249761Y-79303476D01*
X157297380Y-79446333D01*
X157297380Y-79541571D01*
X157249761Y-79684428D01*
X157154523Y-79779666D01*
X157059285Y-79827285D01*
X156868809Y-79874904D01*
X156725952Y-79874904D01*
X156535476Y-79827285D01*
X156440238Y-79779666D01*
X156345000Y-79684428D01*
X156297380Y-79541571D01*
X156297380Y-79446333D01*
X156345000Y-79303476D01*
X156392619Y-79255857D01*
X157297380Y-78303476D02*
X157297380Y-78874904D01*
X157297380Y-78589190D02*
X156297380Y-78589190D01*
X156440238Y-78684428D01*
X156535476Y-78779666D01*
X156583095Y-78874904D01*
X156297380Y-77446333D02*
X156297380Y-77636809D01*
X156345000Y-77732047D01*
X156392619Y-77779666D01*
X156535476Y-77874904D01*
X156725952Y-77922523D01*
X157106904Y-77922523D01*
X157202142Y-77874904D01*
X157249761Y-77827285D01*
X157297380Y-77732047D01*
X157297380Y-77541571D01*
X157249761Y-77446333D01*
X157202142Y-77398714D01*
X157106904Y-77351095D01*
X156868809Y-77351095D01*
X156773571Y-77398714D01*
X156725952Y-77446333D01*
X156678333Y-77541571D01*
X156678333Y-77732047D01*
X156725952Y-77827285D01*
X156773571Y-77874904D01*
X156868809Y-77922523D01*
X142867142Y-87447380D02*
X142533809Y-86971190D01*
X142295714Y-87447380D02*
X142295714Y-86447380D01*
X142676666Y-86447380D01*
X142771904Y-86495000D01*
X142819523Y-86542619D01*
X142867142Y-86637857D01*
X142867142Y-86780714D01*
X142819523Y-86875952D01*
X142771904Y-86923571D01*
X142676666Y-86971190D01*
X142295714Y-86971190D01*
X143819523Y-87447380D02*
X143248095Y-87447380D01*
X143533809Y-87447380D02*
X143533809Y-86447380D01*
X143438571Y-86590238D01*
X143343333Y-86685476D01*
X143248095Y-86733095D01*
X144676666Y-86780714D02*
X144676666Y-87447380D01*
X144438571Y-86399761D02*
X144200476Y-87114047D01*
X144819523Y-87114047D01*
X104497142Y-81922857D02*
X104544761Y-81970476D01*
X104592380Y-82113333D01*
X104592380Y-82208571D01*
X104544761Y-82351428D01*
X104449523Y-82446666D01*
X104354285Y-82494285D01*
X104163809Y-82541904D01*
X104020952Y-82541904D01*
X103830476Y-82494285D01*
X103735238Y-82446666D01*
X103640000Y-82351428D01*
X103592380Y-82208571D01*
X103592380Y-82113333D01*
X103640000Y-81970476D01*
X103687619Y-81922857D01*
X103687619Y-81541904D02*
X103640000Y-81494285D01*
X103592380Y-81399047D01*
X103592380Y-81160952D01*
X103640000Y-81065714D01*
X103687619Y-81018095D01*
X103782857Y-80970476D01*
X103878095Y-80970476D01*
X104020952Y-81018095D01*
X104592380Y-81589523D01*
X104592380Y-80970476D01*
X103592380Y-80637142D02*
X103592380Y-79970476D01*
X104592380Y-80399047D01*
D12*
X127330000Y-90188000D02*
X129210000Y-90188000D01*
X127210000Y-85718000D02*
X127210000Y-84728000D01*
X126160000Y-85718000D02*
X127210000Y-85718000D01*
X130380000Y-88218000D02*
X130380000Y-85718000D01*
X130380000Y-85718000D02*
X129330000Y-85718000D01*
X126160000Y-88218000D02*
X126160000Y-85718000D01*
X143663641Y-70230000D02*
X143356359Y-70230000D01*
X143663641Y-69470000D02*
X143356359Y-69470000D01*
X144505000Y-75457164D02*
X144505000Y-75672836D01*
X143785000Y-75457164D02*
X143785000Y-75672836D01*
X138495000Y-74930000D02*
G75*
G03*
X138495000Y-74930000I-700000J0D01*
G01*
X163041359Y-85345000D02*
X163348641Y-85345000D01*
X163041359Y-86105000D02*
X163348641Y-86105000D01*
X148210000Y-83031359D02*
X148210000Y-83338641D01*
X148970000Y-83031359D02*
X148970000Y-83338641D01*
X133209420Y-66800000D02*
X133490580Y-66800000D01*
X133209420Y-67820000D02*
X133490580Y-67820000D01*
X166502500Y-77815000D02*
X164702500Y-77815000D01*
X166502500Y-77815000D02*
X167302500Y-77815000D01*
X166502500Y-80935000D02*
X167302500Y-80935000D01*
X166502500Y-80935000D02*
X165702500Y-80935000D01*
X123330580Y-66800000D02*
X123049420Y-66800000D01*
X123330580Y-67820000D02*
X123049420Y-67820000D01*
X157205000Y-75457164D02*
X157205000Y-75672836D01*
X156485000Y-75457164D02*
X156485000Y-75672836D01*
X133352000Y-77610580D02*
X133352000Y-77329420D01*
X132332000Y-77610580D02*
X132332000Y-77329420D01*
X143663641Y-82295000D02*
X143356359Y-82295000D01*
X143663641Y-81535000D02*
X143356359Y-81535000D01*
X143663641Y-72770000D02*
X143356359Y-72770000D01*
X143663641Y-72010000D02*
X143356359Y-72010000D01*
X120168641Y-80390000D02*
X119861359Y-80390000D01*
X120168641Y-79630000D02*
X119861359Y-79630000D01*
X131805000Y-77577836D02*
X131805000Y-77362164D01*
X131085000Y-77577836D02*
X131085000Y-77362164D01*
X125589420Y-73150000D02*
X125870580Y-73150000D01*
X125589420Y-74170000D02*
X125870580Y-74170000D01*
X153188641Y-69470000D02*
X152881359Y-69470000D01*
X153188641Y-70230000D02*
X152881359Y-70230000D01*
X163837500Y-79234420D02*
X163837500Y-79515580D01*
X162817500Y-79234420D02*
X162817500Y-79515580D01*
D11*
X106175000Y-74295000D02*
G75*
G03*
X106175000Y-74295000I-1400000J0D01*
G01*
D12*
X153735000Y-88218000D02*
X153735000Y-85718000D01*
X153735000Y-85718000D02*
X154785000Y-85718000D01*
X154905000Y-90188000D02*
X158785000Y-90188000D01*
X159955000Y-88218000D02*
X159955000Y-85718000D01*
X154785000Y-85718000D02*
X154785000Y-84728000D01*
X159955000Y-85718000D02*
X158905000Y-85718000D01*
X143235000Y-76307836D02*
X143235000Y-76092164D01*
X142515000Y-76307836D02*
X142515000Y-76092164D01*
X126365000Y-82125000D02*
X128565000Y-82125000D01*
X126365000Y-75355000D02*
X122765000Y-75355000D01*
X126365000Y-75355000D02*
X128565000Y-75355000D01*
X126365000Y-82125000D02*
X124165000Y-82125000D01*
X158240000Y-77610580D02*
X158240000Y-77329420D01*
X159260000Y-77610580D02*
X159260000Y-77329420D01*
X137035000Y-69074420D02*
X137035000Y-69355580D01*
X136015000Y-69074420D02*
X136015000Y-69355580D01*
X120617836Y-75205000D02*
X120402164Y-75205000D01*
X120617836Y-75925000D02*
X120402164Y-75925000D01*
X123190000Y-68290000D02*
X123840000Y-68290000D01*
X123190000Y-68290000D02*
X121515000Y-68290000D01*
X123190000Y-71410000D02*
X122540000Y-71410000D01*
X123190000Y-71410000D02*
X123840000Y-71410000D01*
X143356359Y-78485000D02*
X143663641Y-78485000D01*
X143356359Y-77725000D02*
X143663641Y-77725000D01*
D11*
X172850000Y-74295000D02*
G75*
G03*
X172850000Y-74295000I-1400000J0D01*
G01*
D12*
X119378000Y-82409420D02*
X119378000Y-82690580D01*
X120398000Y-82409420D02*
X120398000Y-82690580D01*
X156447258Y-73137500D02*
X155972742Y-73137500D01*
X156447258Y-74182500D02*
X155972742Y-74182500D01*
X155935000Y-79736836D02*
X155935000Y-79521164D01*
X155215000Y-79736836D02*
X155215000Y-79521164D01*
X120650580Y-74551000D02*
X120369420Y-74551000D01*
X120650580Y-73531000D02*
X120369420Y-73531000D01*
X161215000Y-77070378D02*
X161215000Y-77869622D01*
X160095000Y-77070378D02*
X160095000Y-77869622D01*
X163260000Y-66675000D02*
G75*
G03*
X163260000Y-66675000I-700000J0D01*
G01*
X143356359Y-71500000D02*
X143663641Y-71500000D01*
X143356359Y-70740000D02*
X143663641Y-70740000D01*
X152040000Y-85197836D02*
X152040000Y-84982164D01*
X152760000Y-85197836D02*
X152760000Y-84982164D01*
X119505000Y-69990580D02*
X119505000Y-69709420D01*
X120525000Y-69990580D02*
X120525000Y-69709420D01*
X157825000Y-69850000D02*
X157825000Y-69200000D01*
X157825000Y-69850000D02*
X157825000Y-70500000D01*
X160945000Y-69850000D02*
X160945000Y-70500000D01*
X160945000Y-69850000D02*
X160945000Y-68175000D01*
X159912164Y-72030000D02*
X160127836Y-72030000D01*
X159912164Y-72750000D02*
X160127836Y-72750000D01*
X112021252Y-82015000D02*
X111498748Y-82015000D01*
X112021252Y-80545000D02*
X111498748Y-80545000D01*
X120925000Y-81807164D02*
X120925000Y-82022836D01*
X121645000Y-81807164D02*
X121645000Y-82022836D01*
X171072500Y-79515580D02*
X171072500Y-79234420D01*
X172092500Y-79515580D02*
X172092500Y-79234420D01*
X143663641Y-78995000D02*
X143356359Y-78995000D01*
X143663641Y-79755000D02*
X143356359Y-79755000D01*
X120155580Y-77599000D02*
X119874420Y-77599000D01*
X120155580Y-76579000D02*
X119874420Y-76579000D01*
X147473641Y-69470000D02*
X147166359Y-69470000D01*
X147473641Y-70230000D02*
X147166359Y-70230000D01*
X143663641Y-83565000D02*
X143356359Y-83565000D01*
X143663641Y-82805000D02*
X143356359Y-82805000D01*
X122708641Y-86105000D02*
X122401359Y-86105000D01*
X122708641Y-85345000D02*
X122401359Y-85345000D01*
X143663641Y-74040000D02*
X143356359Y-74040000D01*
X143663641Y-73280000D02*
X143356359Y-73280000D01*
X117540000Y-71755000D02*
G75*
G03*
X117540000Y-71755000I-700000J0D01*
G01*
X147550000Y-81160000D02*
X147550000Y-80885000D01*
X149860000Y-81160000D02*
X147550000Y-81160000D01*
X152170000Y-81160000D02*
X152170000Y-80885000D01*
X149860000Y-71240000D02*
X152170000Y-71240000D01*
X152170000Y-80885000D02*
X153460000Y-80885000D01*
X149860000Y-71240000D02*
X147550000Y-71240000D01*
X152170000Y-71240000D02*
X152170000Y-71515000D01*
X149860000Y-81160000D02*
X152170000Y-81160000D01*
X147550000Y-71240000D02*
X147550000Y-71515000D01*
X135130000Y-74789420D02*
X135130000Y-75070580D01*
X134110000Y-74789420D02*
X134110000Y-75070580D01*
X157225000Y-68733641D02*
X157225000Y-68426359D01*
X156465000Y-68733641D02*
X156465000Y-68426359D01*
X120168641Y-78360000D02*
X119861359Y-78360000D01*
X120168641Y-79120000D02*
X119861359Y-79120000D01*
X169167500Y-78880580D02*
X169167500Y-78599420D01*
X170187500Y-78880580D02*
X170187500Y-78599420D01*
X133350000Y-71410000D02*
X135025000Y-71410000D01*
X133350000Y-71410000D02*
X132700000Y-71410000D01*
X133350000Y-68290000D02*
X134000000Y-68290000D01*
X133350000Y-68290000D02*
X132700000Y-68290000D01*
X155215000Y-75457164D02*
X155215000Y-75672836D01*
X155935000Y-75457164D02*
X155935000Y-75672836D01*
X131805000Y-75037836D02*
X131805000Y-74822164D01*
X131085000Y-75037836D02*
X131085000Y-74822164D01*
X155215000Y-77704836D02*
X155215000Y-77489164D01*
X155935000Y-77704836D02*
X155935000Y-77489164D01*
X143663641Y-80265000D02*
X143356359Y-80265000D01*
X143663641Y-81025000D02*
X143356359Y-81025000D01*
X106418748Y-82015000D02*
X106941252Y-82015000D01*
X106418748Y-80545000D02*
X106941252Y-80545000D01*
%LPC*%
D13*
X127770000Y-85503000D03*
X128770000Y-85503000D03*
D14*
X130070000Y-89378000D03*
X126470000Y-89378000D03*
D15*
X144020000Y-69850000D03*
X143000000Y-69850000D03*
D16*
X144145000Y-75085000D03*
X144145000Y-76045000D03*
D17*
X137795000Y-74930000D03*
D18*
X162685000Y-85725000D03*
X163705000Y-85725000D03*
D19*
X148590000Y-82675000D03*
X148590000Y-83695000D03*
D20*
X132575000Y-67310000D03*
X134125000Y-67310000D03*
D21*
X165365000Y-78425000D03*
X165365000Y-79375000D03*
X165365000Y-80325000D03*
X167640000Y-80325000D03*
X167640000Y-79375000D03*
X167640000Y-78425000D03*
D22*
X123965000Y-67310000D03*
X122415000Y-67310000D03*
D16*
X156845000Y-75085000D03*
X156845000Y-76045000D03*
D23*
X132842000Y-78245000D03*
X132842000Y-76695000D03*
D15*
X144020000Y-81915000D03*
X143000000Y-81915000D03*
X144020000Y-72390000D03*
X143000000Y-72390000D03*
X120525000Y-80010000D03*
X119505000Y-80010000D03*
D24*
X131445000Y-77950000D03*
X131445000Y-76990000D03*
D20*
X124955000Y-73660000D03*
X126505000Y-73660000D03*
D15*
X153545000Y-69850000D03*
X152525000Y-69850000D03*
D25*
X163327500Y-78600000D03*
X163327500Y-80150000D03*
D26*
X169035000Y-69215000D03*
D27*
X104775000Y-74295000D03*
D13*
X155345000Y-85503000D03*
X156345000Y-85503000D03*
X157345000Y-85503000D03*
X158345000Y-85503000D03*
D14*
X159645000Y-89378000D03*
X154045000Y-89378000D03*
D24*
X142875000Y-76680000D03*
X142875000Y-75720000D03*
D28*
X123502500Y-75815000D03*
X123502500Y-76465000D03*
X123502500Y-77115000D03*
X123502500Y-77765000D03*
X123502500Y-78415000D03*
X123502500Y-79065000D03*
X123502500Y-79715000D03*
X123502500Y-80365000D03*
X123502500Y-81015000D03*
X123502500Y-81665000D03*
X129227500Y-81665000D03*
X129227500Y-81015000D03*
X129227500Y-80365000D03*
X129227500Y-79715000D03*
X129227500Y-79065000D03*
X129227500Y-78415000D03*
X129227500Y-77765000D03*
X129227500Y-77115000D03*
X129227500Y-76465000D03*
X129227500Y-75815000D03*
D23*
X158750000Y-78245000D03*
X158750000Y-76695000D03*
D25*
X136525000Y-68440000D03*
X136525000Y-69990000D03*
D29*
X120990000Y-75565000D03*
X120030000Y-75565000D03*
D30*
X122252500Y-68900000D03*
X122252500Y-70800000D03*
X124127500Y-69850000D03*
D18*
X143000000Y-78105000D03*
X144020000Y-78105000D03*
D27*
X171450000Y-74295000D03*
D25*
X119888000Y-81775000D03*
X119888000Y-83325000D03*
D31*
X157035000Y-73660000D03*
X155385000Y-73660000D03*
D24*
X155575000Y-80109000D03*
X155575000Y-79149000D03*
D22*
X121285000Y-74041000D03*
X119735000Y-74041000D03*
D32*
X160655000Y-76407500D03*
X160655000Y-78532500D03*
D17*
X162560000Y-66675000D03*
D18*
X143000000Y-71120000D03*
X144020000Y-71120000D03*
D24*
X152400000Y-85570000D03*
X152400000Y-84610000D03*
D23*
X120015000Y-70625000D03*
X120015000Y-69075000D03*
D33*
X160335000Y-68912500D03*
X158435000Y-68912500D03*
X159385000Y-70787500D03*
D34*
X159540000Y-72390000D03*
X160500000Y-72390000D03*
D35*
X112710000Y-81280000D03*
X110810000Y-81280000D03*
D16*
X121285000Y-81435000D03*
X121285000Y-82395000D03*
D23*
X171582500Y-80150000D03*
X171582500Y-78600000D03*
D15*
X144020000Y-79375000D03*
X143000000Y-79375000D03*
D22*
X120790000Y-77089000D03*
X119240000Y-77089000D03*
D15*
X147830000Y-69850000D03*
X146810000Y-69850000D03*
X144020000Y-83185000D03*
X143000000Y-83185000D03*
X123065000Y-85725000D03*
X122045000Y-85725000D03*
X144020000Y-73660000D03*
X143000000Y-73660000D03*
D17*
X116840000Y-71755000D03*
D36*
X152722500Y-80425000D03*
X152722500Y-79775000D03*
X152722500Y-79125000D03*
X152722500Y-78475000D03*
X152722500Y-77825000D03*
X152722500Y-77175000D03*
X152722500Y-76525000D03*
X152722500Y-75875000D03*
X152722500Y-75225000D03*
X152722500Y-74575000D03*
X152722500Y-73925000D03*
X152722500Y-73275000D03*
X152722500Y-72625000D03*
X152722500Y-71975000D03*
X146997500Y-71975000D03*
X146997500Y-72625000D03*
X146997500Y-73275000D03*
X146997500Y-73925000D03*
X146997500Y-74575000D03*
X146997500Y-75225000D03*
X146997500Y-75875000D03*
X146997500Y-76525000D03*
X146997500Y-77175000D03*
X146997500Y-77825000D03*
X146997500Y-78475000D03*
X146997500Y-79125000D03*
X146997500Y-79775000D03*
X146997500Y-80425000D03*
D26*
X107315000Y-69215000D03*
D25*
X134620000Y-74155000D03*
X134620000Y-75705000D03*
D37*
X156845000Y-69090000D03*
X156845000Y-68070000D03*
D15*
X120525000Y-78740000D03*
X119505000Y-78740000D03*
D23*
X169677500Y-79515000D03*
X169677500Y-77965000D03*
D38*
X134287500Y-70800000D03*
X134287500Y-68900000D03*
X132412500Y-69850000D03*
D16*
X155575000Y-75085000D03*
X155575000Y-76045000D03*
D24*
X131445000Y-75410000D03*
X131445000Y-74450000D03*
X155575000Y-78077000D03*
X155575000Y-77117000D03*
D15*
X144020000Y-80645000D03*
X143000000Y-80645000D03*
D39*
X105730000Y-81280000D03*
X107630000Y-81280000D03*
D40*
X136525000Y-77808550D03*
X139065000Y-77808550D03*
X105410000Y-77808550D03*
X107950000Y-77808550D03*
X110490000Y-77808550D03*
X113030000Y-77808550D03*
D41*
X148595000Y-88265000D03*
D42*
X146055000Y-88265000D03*
D41*
X171450000Y-88265000D03*
D42*
X168910000Y-88265000D03*
X166370000Y-88265000D03*
X163830000Y-88265000D03*
D41*
X122560000Y-88265000D03*
D42*
X120020000Y-88265000D03*
M02*
